%TF.GenerationSoftware,KiCad,Pcbnew,8.0.8*%
%TF.CreationDate,2025-01-31T17:17:07-07:00*%
%TF.ProjectId,Arduino_uno_Shield,41726475-696e-46f5-9f75-6e6f5f536869,rev?*%
%TF.SameCoordinates,Original*%
%TF.FileFunction,Drillmap*%
%TF.FilePolarity,Positive*%
%FSLAX45Y45*%
G04 Gerber Fmt 4.5, Leading zero omitted, Abs format (unit mm)*
G04 Created by KiCad (PCBNEW 8.0.8) date 2025-01-31 17:17:07*
%MOMM*%
%LPD*%
G01*
G04 APERTURE LIST*
%ADD10C,0.150000*%
%ADD11C,0.200000*%
%ADD12C,0.100000*%
%ADD13C,0.110000*%
G04 APERTURE END LIST*
D10*
X16600000Y-5936006D02*
X16858000Y-6190000D01*
X10000000Y-9923800D02*
X10000000Y-4742200D01*
X16550000Y-4666000D02*
X16600000Y-4700000D01*
X16858000Y-6190000D02*
X16858000Y-9619000D01*
X16527800Y-10000000D02*
X10076200Y-10000000D01*
X10076200Y-4666000D02*
X16550000Y-4666000D01*
X10076200Y-10000000D02*
G75*
G02*
X10000000Y-9923800I0J76200D01*
G01*
X16858000Y-9619000D02*
X16604000Y-9873000D01*
X10000000Y-4742200D02*
X10076200Y-4666000D01*
X16604000Y-9923800D02*
G75*
G02*
X16527800Y-10000000I-76200J0D01*
G01*
X16600000Y-4700000D02*
X16600000Y-5936006D01*
X16604000Y-9873000D02*
X16604000Y-9923800D01*
D11*
D12*
X10951503Y-6558497D02*
X10991503Y-6598497D01*
X10991503Y-6558497D02*
X10951503Y-6598497D01*
X11730000Y-5230000D02*
X11770000Y-5270000D01*
X11770000Y-5230000D02*
X11730000Y-5270000D01*
X13580000Y-8980000D02*
X13620000Y-9020000D01*
X13620000Y-8980000D02*
X13580000Y-9020000D01*
X13680000Y-9480000D02*
X13720000Y-9520000D01*
X13720000Y-9480000D02*
X13680000Y-9520000D01*
X13980000Y-9410000D02*
X14020000Y-9450000D01*
X14020000Y-9410000D02*
X13980000Y-9450000D01*
X14330000Y-6030000D02*
X14370000Y-6070000D01*
X14370000Y-6030000D02*
X14330000Y-6070000D01*
X14630000Y-9080000D02*
X14670000Y-9120000D01*
X14670000Y-9080000D02*
X14630000Y-9120000D01*
X14880000Y-5930000D02*
X14920000Y-5970000D01*
X14920000Y-5930000D02*
X14880000Y-5970000D01*
X15030000Y-5480000D02*
X15070000Y-5520000D01*
X15070000Y-5480000D02*
X15030000Y-5520000D01*
X15180000Y-5630000D02*
X15220000Y-5670000D01*
X15220000Y-5630000D02*
X15180000Y-5670000D01*
X15380000Y-7880000D02*
X15420000Y-7920000D01*
X15420000Y-7880000D02*
X15380000Y-7920000D01*
X15530000Y-9480000D02*
X15570000Y-9520000D01*
X15570000Y-9480000D02*
X15530000Y-9520000D01*
X16280000Y-6280000D02*
X16320000Y-6320000D01*
X16320000Y-6280000D02*
X16280000Y-6320000D01*
X16330000Y-6530000D02*
X16370000Y-6570000D01*
X16370000Y-6530000D02*
X16330000Y-6570000D01*
X16480000Y-6130000D02*
X16520000Y-6170000D01*
X16520000Y-6130000D02*
X16480000Y-6170000D01*
X13524000Y-9250000D02*
G75*
G02*
X13444000Y-9250000I-40000J0D01*
G01*
X13444000Y-9250000D02*
G75*
G02*
X13524000Y-9250000I40000J0D01*
G01*
X13724000Y-6250000D02*
G75*
G02*
X13644000Y-6250000I-40000J0D01*
G01*
X13644000Y-6250000D02*
G75*
G02*
X13724000Y-6250000I40000J0D01*
G01*
X13832000Y-7700000D02*
G75*
G02*
X13752000Y-7700000I-40000J0D01*
G01*
X13752000Y-7700000D02*
G75*
G02*
X13832000Y-7700000I40000J0D01*
G01*
X14540000Y-9250000D02*
G75*
G02*
X14460000Y-9250000I-40000J0D01*
G01*
X14460000Y-9250000D02*
G75*
G02*
X14540000Y-9250000I40000J0D01*
G01*
X14740000Y-6250000D02*
G75*
G02*
X14660000Y-6250000I-40000J0D01*
G01*
X14660000Y-6250000D02*
G75*
G02*
X14740000Y-6250000I40000J0D01*
G01*
X14848000Y-7700000D02*
G75*
G02*
X14768000Y-7700000I-40000J0D01*
G01*
X14768000Y-7700000D02*
G75*
G02*
X14848000Y-7700000I40000J0D01*
G01*
X14974000Y-9300000D02*
G75*
G02*
X14894000Y-9300000I-40000J0D01*
G01*
X14894000Y-9300000D02*
G75*
G02*
X14974000Y-9300000I40000J0D01*
G01*
X15124000Y-7700000D02*
G75*
G02*
X15044000Y-7700000I-40000J0D01*
G01*
X15044000Y-7700000D02*
G75*
G02*
X15124000Y-7700000I40000J0D01*
G01*
X15990000Y-9300000D02*
G75*
G02*
X15910000Y-9300000I-40000J0D01*
G01*
X15910000Y-9300000D02*
G75*
G02*
X15990000Y-9300000I40000J0D01*
G01*
X16041500Y-8246000D02*
G75*
G02*
X15961500Y-8246000I-40000J0D01*
G01*
X15961500Y-8246000D02*
G75*
G02*
X16041500Y-8246000I40000J0D01*
G01*
X16041500Y-8754000D02*
G75*
G02*
X15961500Y-8754000I-40000J0D01*
G01*
X15961500Y-8754000D02*
G75*
G02*
X16041500Y-8754000I40000J0D01*
G01*
X16140000Y-7700000D02*
G75*
G02*
X16060000Y-7700000I-40000J0D01*
G01*
X16060000Y-7700000D02*
G75*
G02*
X16140000Y-7700000I40000J0D01*
G01*
X16295500Y-8500000D02*
G75*
G02*
X16215500Y-8500000I-40000J0D01*
G01*
X16215500Y-8500000D02*
G75*
G02*
X16295500Y-8500000I40000J0D01*
G01*
X16640000Y-6434000D02*
G75*
G02*
X16560000Y-6434000I-40000J0D01*
G01*
X16560000Y-6434000D02*
G75*
G02*
X16640000Y-6434000I40000J0D01*
G01*
X16640000Y-7450000D02*
G75*
G02*
X16560000Y-7450000I-40000J0D01*
G01*
X16560000Y-7450000D02*
G75*
G02*
X16640000Y-7450000I40000J0D01*
G01*
X14200000Y-5455000D02*
X14200000Y-5545000D01*
X14155000Y-5500000D02*
X14245000Y-5500000D01*
X14200000Y-5709000D02*
X14200000Y-5799000D01*
X14155000Y-5754000D02*
X14245000Y-5754000D01*
X15733588Y-5583588D02*
X15733588Y-5516412D01*
X15666412Y-5516412D01*
X15666412Y-5583588D01*
X15733588Y-5583588D01*
X15733588Y-5833588D02*
X15733588Y-5766412D01*
X15666412Y-5766412D01*
X15666412Y-5833588D01*
X15733588Y-5833588D01*
X15733588Y-6083588D02*
X15733588Y-6016412D01*
X15666412Y-6016412D01*
X15666412Y-6083588D01*
X15733588Y-6083588D01*
X10588000Y-6400000D02*
X10638000Y-6350000D01*
X10588000Y-6300000D01*
X10538000Y-6350000D01*
X10588000Y-6400000D01*
X10842000Y-6400000D02*
X10892000Y-6350000D01*
X10842000Y-6300000D01*
X10792000Y-6350000D01*
X10842000Y-6400000D01*
X11096000Y-6400000D02*
X11146000Y-6350000D01*
X11096000Y-6300000D01*
X11046000Y-6350000D01*
X11096000Y-6400000D01*
X11170000Y-6847500D02*
X11220000Y-6797500D01*
X11170000Y-6747500D01*
X11120000Y-6797500D01*
X11170000Y-6847500D01*
X11350000Y-6400000D02*
X11400000Y-6350000D01*
X11350000Y-6300000D01*
X11300000Y-6350000D01*
X11350000Y-6400000D01*
X11424000Y-6847500D02*
X11474000Y-6797500D01*
X11424000Y-6747500D01*
X11374000Y-6797500D01*
X11424000Y-6847500D01*
X11604000Y-6400000D02*
X11654000Y-6350000D01*
X11604000Y-6300000D01*
X11554000Y-6350000D01*
X11604000Y-6400000D01*
X11678000Y-6847500D02*
X11728000Y-6797500D01*
X11678000Y-6747500D01*
X11628000Y-6797500D01*
X11678000Y-6847500D01*
X11858000Y-6400000D02*
X11908000Y-6350000D01*
X11858000Y-6300000D01*
X11808000Y-6350000D01*
X11858000Y-6400000D01*
X11879600Y-4970000D02*
X11929600Y-4920000D01*
X11879600Y-4870000D01*
X11829600Y-4920000D01*
X11879600Y-4970000D01*
X11932000Y-6847500D02*
X11982000Y-6797500D01*
X11932000Y-6747500D01*
X11882000Y-6797500D01*
X11932000Y-6847500D01*
X12112000Y-6400000D02*
X12162000Y-6350000D01*
X12112000Y-6300000D01*
X12062000Y-6350000D01*
X12112000Y-6400000D01*
X12133600Y-4970000D02*
X12183600Y-4920000D01*
X12133600Y-4870000D01*
X12083600Y-4920000D01*
X12133600Y-4970000D01*
X12366000Y-6400000D02*
X12416000Y-6350000D01*
X12366000Y-6300000D01*
X12316000Y-6350000D01*
X12366000Y-6400000D01*
X12387600Y-4970000D02*
X12437600Y-4920000D01*
X12387600Y-4870000D01*
X12337600Y-4920000D01*
X12387600Y-4970000D01*
X12641600Y-4970000D02*
X12691600Y-4920000D01*
X12641600Y-4870000D01*
X12591600Y-4920000D01*
X12641600Y-4970000D01*
X12794000Y-9796000D02*
X12844000Y-9746000D01*
X12794000Y-9696000D01*
X12744000Y-9746000D01*
X12794000Y-9796000D01*
X12895600Y-4970000D02*
X12945600Y-4920000D01*
X12895600Y-4870000D01*
X12845600Y-4920000D01*
X12895600Y-4970000D01*
X13048000Y-9796000D02*
X13098000Y-9746000D01*
X13048000Y-9696000D01*
X12998000Y-9746000D01*
X13048000Y-9796000D01*
X13149600Y-4970000D02*
X13199600Y-4920000D01*
X13149600Y-4870000D01*
X13099600Y-4920000D01*
X13149600Y-4970000D01*
X13302000Y-9796000D02*
X13352000Y-9746000D01*
X13302000Y-9696000D01*
X13252000Y-9746000D01*
X13302000Y-9796000D01*
X13403600Y-4970000D02*
X13453600Y-4920000D01*
X13403600Y-4870000D01*
X13353600Y-4920000D01*
X13403600Y-4970000D01*
X13556000Y-9796000D02*
X13606000Y-9746000D01*
X13556000Y-9696000D01*
X13506000Y-9746000D01*
X13556000Y-9796000D01*
X13657600Y-4970000D02*
X13707600Y-4920000D01*
X13657600Y-4870000D01*
X13607600Y-4920000D01*
X13657600Y-4970000D01*
X13810000Y-9796000D02*
X13860000Y-9746000D01*
X13810000Y-9696000D01*
X13760000Y-9746000D01*
X13810000Y-9796000D01*
X13911600Y-4970000D02*
X13961600Y-4920000D01*
X13911600Y-4870000D01*
X13861600Y-4920000D01*
X13911600Y-4970000D01*
X14064000Y-9796000D02*
X14114000Y-9746000D01*
X14064000Y-9696000D01*
X14014000Y-9746000D01*
X14064000Y-9796000D01*
X14165600Y-4970000D02*
X14215600Y-4920000D01*
X14165600Y-4870000D01*
X14115600Y-4920000D01*
X14165600Y-4970000D01*
X14318000Y-9796000D02*
X14368000Y-9746000D01*
X14318000Y-9696000D01*
X14268000Y-9746000D01*
X14318000Y-9796000D01*
X14572000Y-4970000D02*
X14622000Y-4920000D01*
X14572000Y-4870000D01*
X14522000Y-4920000D01*
X14572000Y-4970000D01*
X14572000Y-9796000D02*
X14622000Y-9746000D01*
X14572000Y-9696000D01*
X14522000Y-9746000D01*
X14572000Y-9796000D01*
X14826000Y-4970000D02*
X14876000Y-4920000D01*
X14826000Y-4870000D01*
X14776000Y-4920000D01*
X14826000Y-4970000D01*
X15080000Y-4970000D02*
X15130000Y-4920000D01*
X15080000Y-4870000D01*
X15030000Y-4920000D01*
X15080000Y-4970000D01*
X15080000Y-9796000D02*
X15130000Y-9746000D01*
X15080000Y-9696000D01*
X15030000Y-9746000D01*
X15080000Y-9796000D01*
X15334000Y-4970000D02*
X15384000Y-4920000D01*
X15334000Y-4870000D01*
X15284000Y-4920000D01*
X15334000Y-4970000D01*
X15334000Y-9796000D02*
X15384000Y-9746000D01*
X15334000Y-9696000D01*
X15284000Y-9746000D01*
X15334000Y-9796000D01*
X15588000Y-4970000D02*
X15638000Y-4920000D01*
X15588000Y-4870000D01*
X15538000Y-4920000D01*
X15588000Y-4970000D01*
X15588000Y-9796000D02*
X15638000Y-9746000D01*
X15588000Y-9696000D01*
X15538000Y-9746000D01*
X15588000Y-9796000D01*
X15842000Y-4970000D02*
X15892000Y-4920000D01*
X15842000Y-4870000D01*
X15792000Y-4920000D01*
X15842000Y-4970000D01*
X15842000Y-9796000D02*
X15892000Y-9746000D01*
X15842000Y-9696000D01*
X15792000Y-9746000D01*
X15842000Y-9796000D01*
X16096000Y-4970000D02*
X16146000Y-4920000D01*
X16096000Y-4870000D01*
X16046000Y-4920000D01*
X16096000Y-4970000D01*
X16096000Y-9796000D02*
X16146000Y-9746000D01*
X16096000Y-9696000D01*
X16046000Y-9746000D01*
X16096000Y-9796000D01*
X16350000Y-4970000D02*
X16400000Y-4920000D01*
X16350000Y-4870000D01*
X16300000Y-4920000D01*
X16350000Y-4970000D01*
X16350000Y-9796000D02*
X16400000Y-9746000D01*
X16350000Y-9696000D01*
X16300000Y-9746000D01*
X16350000Y-9796000D01*
D13*
X13445000Y-6545000D02*
X13555000Y-6655000D01*
X13555000Y-6545000D02*
X13445000Y-6655000D01*
X13555000Y-6600000D02*
G75*
G02*
X13445000Y-6600000I-55000J0D01*
G01*
X13445000Y-6600000D02*
G75*
G02*
X13555000Y-6600000I55000J0D01*
G01*
X13445000Y-7195000D02*
X13555000Y-7305000D01*
X13555000Y-7195000D02*
X13445000Y-7305000D01*
X13555000Y-7250000D02*
G75*
G02*
X13445000Y-7250000I-55000J0D01*
G01*
X13445000Y-7250000D02*
G75*
G02*
X13555000Y-7250000I55000J0D01*
G01*
X13645000Y-8045000D02*
X13755000Y-8155000D01*
X13755000Y-8045000D02*
X13645000Y-8155000D01*
X13755000Y-8100000D02*
G75*
G02*
X13645000Y-8100000I-55000J0D01*
G01*
X13645000Y-8100000D02*
G75*
G02*
X13755000Y-8100000I55000J0D01*
G01*
X13645000Y-8695000D02*
X13755000Y-8805000D01*
X13755000Y-8695000D02*
X13645000Y-8805000D01*
X13755000Y-8750000D02*
G75*
G02*
X13645000Y-8750000I-55000J0D01*
G01*
X13645000Y-8750000D02*
G75*
G02*
X13755000Y-8750000I55000J0D01*
G01*
X13895000Y-6545000D02*
X14005000Y-6655000D01*
X14005000Y-6545000D02*
X13895000Y-6655000D01*
X14005000Y-6600000D02*
G75*
G02*
X13895000Y-6600000I-55000J0D01*
G01*
X13895000Y-6600000D02*
G75*
G02*
X14005000Y-6600000I55000J0D01*
G01*
X13895000Y-7195000D02*
X14005000Y-7305000D01*
X14005000Y-7195000D02*
X13895000Y-7305000D01*
X14005000Y-7250000D02*
G75*
G02*
X13895000Y-7250000I-55000J0D01*
G01*
X13895000Y-7250000D02*
G75*
G02*
X14005000Y-7250000I55000J0D01*
G01*
X14095000Y-8045000D02*
X14205000Y-8155000D01*
X14205000Y-8045000D02*
X14095000Y-8155000D01*
X14205000Y-8100000D02*
G75*
G02*
X14095000Y-8100000I-55000J0D01*
G01*
X14095000Y-8100000D02*
G75*
G02*
X14205000Y-8100000I55000J0D01*
G01*
X14095000Y-8695000D02*
X14205000Y-8805000D01*
X14205000Y-8695000D02*
X14095000Y-8805000D01*
X14205000Y-8750000D02*
G75*
G02*
X14095000Y-8750000I-55000J0D01*
G01*
X14095000Y-8750000D02*
G75*
G02*
X14205000Y-8750000I55000J0D01*
G01*
X14495000Y-6595000D02*
X14605000Y-6705000D01*
X14605000Y-6595000D02*
X14495000Y-6705000D01*
X14605000Y-6650000D02*
G75*
G02*
X14495000Y-6650000I-55000J0D01*
G01*
X14495000Y-6650000D02*
G75*
G02*
X14605000Y-6650000I55000J0D01*
G01*
X14495000Y-7245000D02*
X14605000Y-7355000D01*
X14605000Y-7245000D02*
X14495000Y-7355000D01*
X14605000Y-7300000D02*
G75*
G02*
X14495000Y-7300000I-55000J0D01*
G01*
X14495000Y-7300000D02*
G75*
G02*
X14605000Y-7300000I55000J0D01*
G01*
X14595000Y-8095000D02*
X14705000Y-8205000D01*
X14705000Y-8095000D02*
X14595000Y-8205000D01*
X14705000Y-8150000D02*
G75*
G02*
X14595000Y-8150000I-55000J0D01*
G01*
X14595000Y-8150000D02*
G75*
G02*
X14705000Y-8150000I55000J0D01*
G01*
X14595000Y-8745000D02*
X14705000Y-8855000D01*
X14705000Y-8745000D02*
X14595000Y-8855000D01*
X14705000Y-8800000D02*
G75*
G02*
X14595000Y-8800000I-55000J0D01*
G01*
X14595000Y-8800000D02*
G75*
G02*
X14705000Y-8800000I55000J0D01*
G01*
X14945000Y-6595000D02*
X15055000Y-6705000D01*
X15055000Y-6595000D02*
X14945000Y-6705000D01*
X15055000Y-6650000D02*
G75*
G02*
X14945000Y-6650000I-55000J0D01*
G01*
X14945000Y-6650000D02*
G75*
G02*
X15055000Y-6650000I55000J0D01*
G01*
X14945000Y-7245000D02*
X15055000Y-7355000D01*
X15055000Y-7245000D02*
X14945000Y-7355000D01*
X15055000Y-7300000D02*
G75*
G02*
X14945000Y-7300000I-55000J0D01*
G01*
X14945000Y-7300000D02*
G75*
G02*
X15055000Y-7300000I55000J0D01*
G01*
X15045000Y-8095000D02*
X15155000Y-8205000D01*
X15155000Y-8095000D02*
X15045000Y-8205000D01*
X15155000Y-8150000D02*
G75*
G02*
X15045000Y-8150000I-55000J0D01*
G01*
X15045000Y-8150000D02*
G75*
G02*
X15155000Y-8150000I55000J0D01*
G01*
X15045000Y-8745000D02*
X15155000Y-8855000D01*
X15155000Y-8745000D02*
X15045000Y-8855000D01*
X15155000Y-8800000D02*
G75*
G02*
X15045000Y-8800000I-55000J0D01*
G01*
X15045000Y-8800000D02*
G75*
G02*
X15155000Y-8800000I55000J0D01*
G01*
X15545000Y-6545000D02*
X15655000Y-6655000D01*
X15655000Y-6545000D02*
X15545000Y-6655000D01*
X15655000Y-6600000D02*
G75*
G02*
X15545000Y-6600000I-55000J0D01*
G01*
X15545000Y-6600000D02*
G75*
G02*
X15655000Y-6600000I55000J0D01*
G01*
X15545000Y-7195000D02*
X15655000Y-7305000D01*
X15655000Y-7195000D02*
X15545000Y-7305000D01*
X15655000Y-7250000D02*
G75*
G02*
X15545000Y-7250000I-55000J0D01*
G01*
X15545000Y-7250000D02*
G75*
G02*
X15655000Y-7250000I55000J0D01*
G01*
X15995000Y-6545000D02*
X16105000Y-6655000D01*
X16105000Y-6545000D02*
X15995000Y-6655000D01*
X16105000Y-6600000D02*
G75*
G02*
X15995000Y-6600000I-55000J0D01*
G01*
X15995000Y-6600000D02*
G75*
G02*
X16105000Y-6600000I55000J0D01*
G01*
X15995000Y-7195000D02*
X16105000Y-7305000D01*
X16105000Y-7195000D02*
X15995000Y-7305000D01*
X16105000Y-7250000D02*
G75*
G02*
X15995000Y-7250000I-55000J0D01*
G01*
X15995000Y-7250000D02*
G75*
G02*
X16105000Y-7250000I55000J0D01*
G01*
D11*
X10253277Y-10318984D02*
X10253277Y-10118984D01*
X10253277Y-10118984D02*
X10300896Y-10118984D01*
X10300896Y-10118984D02*
X10329467Y-10128508D01*
X10329467Y-10128508D02*
X10348515Y-10147555D01*
X10348515Y-10147555D02*
X10358039Y-10166603D01*
X10358039Y-10166603D02*
X10367563Y-10204698D01*
X10367563Y-10204698D02*
X10367563Y-10233270D01*
X10367563Y-10233270D02*
X10358039Y-10271365D01*
X10358039Y-10271365D02*
X10348515Y-10290412D01*
X10348515Y-10290412D02*
X10329467Y-10309460D01*
X10329467Y-10309460D02*
X10300896Y-10318984D01*
X10300896Y-10318984D02*
X10253277Y-10318984D01*
X10453277Y-10318984D02*
X10453277Y-10185650D01*
X10453277Y-10223746D02*
X10462801Y-10204698D01*
X10462801Y-10204698D02*
X10472324Y-10195174D01*
X10472324Y-10195174D02*
X10491372Y-10185650D01*
X10491372Y-10185650D02*
X10510420Y-10185650D01*
X10577086Y-10318984D02*
X10577086Y-10185650D01*
X10577086Y-10118984D02*
X10567563Y-10128508D01*
X10567563Y-10128508D02*
X10577086Y-10138031D01*
X10577086Y-10138031D02*
X10586610Y-10128508D01*
X10586610Y-10128508D02*
X10577086Y-10118984D01*
X10577086Y-10118984D02*
X10577086Y-10138031D01*
X10700896Y-10318984D02*
X10681848Y-10309460D01*
X10681848Y-10309460D02*
X10672324Y-10290412D01*
X10672324Y-10290412D02*
X10672324Y-10118984D01*
X10805658Y-10318984D02*
X10786610Y-10309460D01*
X10786610Y-10309460D02*
X10777086Y-10290412D01*
X10777086Y-10290412D02*
X10777086Y-10118984D01*
X11034229Y-10318984D02*
X11034229Y-10118984D01*
X11034229Y-10118984D02*
X11100896Y-10261841D01*
X11100896Y-10261841D02*
X11167563Y-10118984D01*
X11167563Y-10118984D02*
X11167563Y-10318984D01*
X11348515Y-10318984D02*
X11348515Y-10214222D01*
X11348515Y-10214222D02*
X11338991Y-10195174D01*
X11338991Y-10195174D02*
X11319943Y-10185650D01*
X11319943Y-10185650D02*
X11281848Y-10185650D01*
X11281848Y-10185650D02*
X11262801Y-10195174D01*
X11348515Y-10309460D02*
X11329467Y-10318984D01*
X11329467Y-10318984D02*
X11281848Y-10318984D01*
X11281848Y-10318984D02*
X11262801Y-10309460D01*
X11262801Y-10309460D02*
X11253277Y-10290412D01*
X11253277Y-10290412D02*
X11253277Y-10271365D01*
X11253277Y-10271365D02*
X11262801Y-10252317D01*
X11262801Y-10252317D02*
X11281848Y-10242793D01*
X11281848Y-10242793D02*
X11329467Y-10242793D01*
X11329467Y-10242793D02*
X11348515Y-10233270D01*
X11443753Y-10185650D02*
X11443753Y-10385650D01*
X11443753Y-10195174D02*
X11462801Y-10185650D01*
X11462801Y-10185650D02*
X11500896Y-10185650D01*
X11500896Y-10185650D02*
X11519943Y-10195174D01*
X11519943Y-10195174D02*
X11529467Y-10204698D01*
X11529467Y-10204698D02*
X11538991Y-10223746D01*
X11538991Y-10223746D02*
X11538991Y-10280889D01*
X11538991Y-10280889D02*
X11529467Y-10299936D01*
X11529467Y-10299936D02*
X11519943Y-10309460D01*
X11519943Y-10309460D02*
X11500896Y-10318984D01*
X11500896Y-10318984D02*
X11462801Y-10318984D01*
X11462801Y-10318984D02*
X11443753Y-10309460D01*
X11624705Y-10299936D02*
X11634229Y-10309460D01*
X11634229Y-10309460D02*
X11624705Y-10318984D01*
X11624705Y-10318984D02*
X11615182Y-10309460D01*
X11615182Y-10309460D02*
X11624705Y-10299936D01*
X11624705Y-10299936D02*
X11624705Y-10318984D01*
X11624705Y-10195174D02*
X11634229Y-10204698D01*
X11634229Y-10204698D02*
X11624705Y-10214222D01*
X11624705Y-10214222D02*
X11615182Y-10204698D01*
X11615182Y-10204698D02*
X11624705Y-10195174D01*
X11624705Y-10195174D02*
X11624705Y-10214222D01*
D12*
X9952500Y-10627500D02*
X9992500Y-10667500D01*
X9992500Y-10627500D02*
X9952500Y-10667500D01*
D11*
X10291372Y-10538984D02*
X10310420Y-10538984D01*
X10310420Y-10538984D02*
X10329467Y-10548508D01*
X10329467Y-10548508D02*
X10338991Y-10558031D01*
X10338991Y-10558031D02*
X10348515Y-10577079D01*
X10348515Y-10577079D02*
X10358039Y-10615174D01*
X10358039Y-10615174D02*
X10358039Y-10662793D01*
X10358039Y-10662793D02*
X10348515Y-10700889D01*
X10348515Y-10700889D02*
X10338991Y-10719936D01*
X10338991Y-10719936D02*
X10329467Y-10729460D01*
X10329467Y-10729460D02*
X10310420Y-10738984D01*
X10310420Y-10738984D02*
X10291372Y-10738984D01*
X10291372Y-10738984D02*
X10272324Y-10729460D01*
X10272324Y-10729460D02*
X10262801Y-10719936D01*
X10262801Y-10719936D02*
X10253277Y-10700889D01*
X10253277Y-10700889D02*
X10243753Y-10662793D01*
X10243753Y-10662793D02*
X10243753Y-10615174D01*
X10243753Y-10615174D02*
X10253277Y-10577079D01*
X10253277Y-10577079D02*
X10262801Y-10558031D01*
X10262801Y-10558031D02*
X10272324Y-10548508D01*
X10272324Y-10548508D02*
X10291372Y-10538984D01*
X10443753Y-10719936D02*
X10453277Y-10729460D01*
X10453277Y-10729460D02*
X10443753Y-10738984D01*
X10443753Y-10738984D02*
X10434229Y-10729460D01*
X10434229Y-10729460D02*
X10443753Y-10719936D01*
X10443753Y-10719936D02*
X10443753Y-10738984D01*
X10624705Y-10605650D02*
X10624705Y-10738984D01*
X10577086Y-10529460D02*
X10529467Y-10672317D01*
X10529467Y-10672317D02*
X10653277Y-10672317D01*
X10767563Y-10538984D02*
X10786610Y-10538984D01*
X10786610Y-10538984D02*
X10805658Y-10548508D01*
X10805658Y-10548508D02*
X10815182Y-10558031D01*
X10815182Y-10558031D02*
X10824705Y-10577079D01*
X10824705Y-10577079D02*
X10834229Y-10615174D01*
X10834229Y-10615174D02*
X10834229Y-10662793D01*
X10834229Y-10662793D02*
X10824705Y-10700889D01*
X10824705Y-10700889D02*
X10815182Y-10719936D01*
X10815182Y-10719936D02*
X10805658Y-10729460D01*
X10805658Y-10729460D02*
X10786610Y-10738984D01*
X10786610Y-10738984D02*
X10767563Y-10738984D01*
X10767563Y-10738984D02*
X10748515Y-10729460D01*
X10748515Y-10729460D02*
X10738991Y-10719936D01*
X10738991Y-10719936D02*
X10729467Y-10700889D01*
X10729467Y-10700889D02*
X10719944Y-10662793D01*
X10719944Y-10662793D02*
X10719944Y-10615174D01*
X10719944Y-10615174D02*
X10729467Y-10577079D01*
X10729467Y-10577079D02*
X10738991Y-10558031D01*
X10738991Y-10558031D02*
X10748515Y-10548508D01*
X10748515Y-10548508D02*
X10767563Y-10538984D01*
X10958039Y-10538984D02*
X10977086Y-10538984D01*
X10977086Y-10538984D02*
X10996134Y-10548508D01*
X10996134Y-10548508D02*
X11005658Y-10558031D01*
X11005658Y-10558031D02*
X11015182Y-10577079D01*
X11015182Y-10577079D02*
X11024705Y-10615174D01*
X11024705Y-10615174D02*
X11024705Y-10662793D01*
X11024705Y-10662793D02*
X11015182Y-10700889D01*
X11015182Y-10700889D02*
X11005658Y-10719936D01*
X11005658Y-10719936D02*
X10996134Y-10729460D01*
X10996134Y-10729460D02*
X10977086Y-10738984D01*
X10977086Y-10738984D02*
X10958039Y-10738984D01*
X10958039Y-10738984D02*
X10938991Y-10729460D01*
X10938991Y-10729460D02*
X10929467Y-10719936D01*
X10929467Y-10719936D02*
X10919944Y-10700889D01*
X10919944Y-10700889D02*
X10910420Y-10662793D01*
X10910420Y-10662793D02*
X10910420Y-10615174D01*
X10910420Y-10615174D02*
X10919944Y-10577079D01*
X10919944Y-10577079D02*
X10929467Y-10558031D01*
X10929467Y-10558031D02*
X10938991Y-10548508D01*
X10938991Y-10548508D02*
X10958039Y-10538984D01*
X11110420Y-10738984D02*
X11110420Y-10605650D01*
X11110420Y-10624698D02*
X11119944Y-10615174D01*
X11119944Y-10615174D02*
X11138991Y-10605650D01*
X11138991Y-10605650D02*
X11167563Y-10605650D01*
X11167563Y-10605650D02*
X11186610Y-10615174D01*
X11186610Y-10615174D02*
X11196134Y-10634222D01*
X11196134Y-10634222D02*
X11196134Y-10738984D01*
X11196134Y-10634222D02*
X11205658Y-10615174D01*
X11205658Y-10615174D02*
X11224705Y-10605650D01*
X11224705Y-10605650D02*
X11253277Y-10605650D01*
X11253277Y-10605650D02*
X11272324Y-10615174D01*
X11272324Y-10615174D02*
X11281848Y-10634222D01*
X11281848Y-10634222D02*
X11281848Y-10738984D01*
X11377086Y-10738984D02*
X11377086Y-10605650D01*
X11377086Y-10624698D02*
X11386610Y-10615174D01*
X11386610Y-10615174D02*
X11405658Y-10605650D01*
X11405658Y-10605650D02*
X11434229Y-10605650D01*
X11434229Y-10605650D02*
X11453277Y-10615174D01*
X11453277Y-10615174D02*
X11462801Y-10634222D01*
X11462801Y-10634222D02*
X11462801Y-10738984D01*
X11462801Y-10634222D02*
X11472324Y-10615174D01*
X11472324Y-10615174D02*
X11491372Y-10605650D01*
X11491372Y-10605650D02*
X11519943Y-10605650D01*
X11519943Y-10605650D02*
X11538991Y-10615174D01*
X11538991Y-10615174D02*
X11548515Y-10634222D01*
X11548515Y-10634222D02*
X11548515Y-10738984D01*
X11938991Y-10529460D02*
X11767563Y-10786603D01*
X12196134Y-10538984D02*
X12215182Y-10538984D01*
X12215182Y-10538984D02*
X12234229Y-10548508D01*
X12234229Y-10548508D02*
X12243753Y-10558031D01*
X12243753Y-10558031D02*
X12253277Y-10577079D01*
X12253277Y-10577079D02*
X12262801Y-10615174D01*
X12262801Y-10615174D02*
X12262801Y-10662793D01*
X12262801Y-10662793D02*
X12253277Y-10700889D01*
X12253277Y-10700889D02*
X12243753Y-10719936D01*
X12243753Y-10719936D02*
X12234229Y-10729460D01*
X12234229Y-10729460D02*
X12215182Y-10738984D01*
X12215182Y-10738984D02*
X12196134Y-10738984D01*
X12196134Y-10738984D02*
X12177086Y-10729460D01*
X12177086Y-10729460D02*
X12167563Y-10719936D01*
X12167563Y-10719936D02*
X12158039Y-10700889D01*
X12158039Y-10700889D02*
X12148515Y-10662793D01*
X12148515Y-10662793D02*
X12148515Y-10615174D01*
X12148515Y-10615174D02*
X12158039Y-10577079D01*
X12158039Y-10577079D02*
X12167563Y-10558031D01*
X12167563Y-10558031D02*
X12177086Y-10548508D01*
X12177086Y-10548508D02*
X12196134Y-10538984D01*
X12348515Y-10719936D02*
X12358039Y-10729460D01*
X12358039Y-10729460D02*
X12348515Y-10738984D01*
X12348515Y-10738984D02*
X12338991Y-10729460D01*
X12338991Y-10729460D02*
X12348515Y-10719936D01*
X12348515Y-10719936D02*
X12348515Y-10738984D01*
X12481848Y-10538984D02*
X12500896Y-10538984D01*
X12500896Y-10538984D02*
X12519944Y-10548508D01*
X12519944Y-10548508D02*
X12529467Y-10558031D01*
X12529467Y-10558031D02*
X12538991Y-10577079D01*
X12538991Y-10577079D02*
X12548515Y-10615174D01*
X12548515Y-10615174D02*
X12548515Y-10662793D01*
X12548515Y-10662793D02*
X12538991Y-10700889D01*
X12538991Y-10700889D02*
X12529467Y-10719936D01*
X12529467Y-10719936D02*
X12519944Y-10729460D01*
X12519944Y-10729460D02*
X12500896Y-10738984D01*
X12500896Y-10738984D02*
X12481848Y-10738984D01*
X12481848Y-10738984D02*
X12462801Y-10729460D01*
X12462801Y-10729460D02*
X12453277Y-10719936D01*
X12453277Y-10719936D02*
X12443753Y-10700889D01*
X12443753Y-10700889D02*
X12434229Y-10662793D01*
X12434229Y-10662793D02*
X12434229Y-10615174D01*
X12434229Y-10615174D02*
X12443753Y-10577079D01*
X12443753Y-10577079D02*
X12453277Y-10558031D01*
X12453277Y-10558031D02*
X12462801Y-10548508D01*
X12462801Y-10548508D02*
X12481848Y-10538984D01*
X12738991Y-10738984D02*
X12624706Y-10738984D01*
X12681848Y-10738984D02*
X12681848Y-10538984D01*
X12681848Y-10538984D02*
X12662801Y-10567555D01*
X12662801Y-10567555D02*
X12643753Y-10586603D01*
X12643753Y-10586603D02*
X12624706Y-10596127D01*
X12919944Y-10538984D02*
X12824706Y-10538984D01*
X12824706Y-10538984D02*
X12815182Y-10634222D01*
X12815182Y-10634222D02*
X12824706Y-10624698D01*
X12824706Y-10624698D02*
X12843753Y-10615174D01*
X12843753Y-10615174D02*
X12891372Y-10615174D01*
X12891372Y-10615174D02*
X12910420Y-10624698D01*
X12910420Y-10624698D02*
X12919944Y-10634222D01*
X12919944Y-10634222D02*
X12929467Y-10653270D01*
X12929467Y-10653270D02*
X12929467Y-10700889D01*
X12929467Y-10700889D02*
X12919944Y-10719936D01*
X12919944Y-10719936D02*
X12910420Y-10729460D01*
X12910420Y-10729460D02*
X12891372Y-10738984D01*
X12891372Y-10738984D02*
X12843753Y-10738984D01*
X12843753Y-10738984D02*
X12824706Y-10729460D01*
X12824706Y-10729460D02*
X12815182Y-10719936D01*
X12996134Y-10538984D02*
X13129467Y-10538984D01*
X13129467Y-10538984D02*
X13043753Y-10738984D01*
X13196134Y-10538984D02*
X13196134Y-10577079D01*
X13272325Y-10538984D02*
X13272325Y-10577079D01*
X13567563Y-10815174D02*
X13558039Y-10805650D01*
X13558039Y-10805650D02*
X13538991Y-10777079D01*
X13538991Y-10777079D02*
X13529468Y-10758031D01*
X13529468Y-10758031D02*
X13519944Y-10729460D01*
X13519944Y-10729460D02*
X13510420Y-10681841D01*
X13510420Y-10681841D02*
X13510420Y-10643746D01*
X13510420Y-10643746D02*
X13519944Y-10596127D01*
X13519944Y-10596127D02*
X13529468Y-10567555D01*
X13529468Y-10567555D02*
X13538991Y-10548508D01*
X13538991Y-10548508D02*
X13558039Y-10519936D01*
X13558039Y-10519936D02*
X13567563Y-10510412D01*
X13748515Y-10738984D02*
X13634229Y-10738984D01*
X13691372Y-10738984D02*
X13691372Y-10538984D01*
X13691372Y-10538984D02*
X13672325Y-10567555D01*
X13672325Y-10567555D02*
X13653277Y-10586603D01*
X13653277Y-10586603D02*
X13634229Y-10596127D01*
X13929468Y-10538984D02*
X13834229Y-10538984D01*
X13834229Y-10538984D02*
X13824706Y-10634222D01*
X13824706Y-10634222D02*
X13834229Y-10624698D01*
X13834229Y-10624698D02*
X13853277Y-10615174D01*
X13853277Y-10615174D02*
X13900896Y-10615174D01*
X13900896Y-10615174D02*
X13919944Y-10624698D01*
X13919944Y-10624698D02*
X13929468Y-10634222D01*
X13929468Y-10634222D02*
X13938991Y-10653270D01*
X13938991Y-10653270D02*
X13938991Y-10700889D01*
X13938991Y-10700889D02*
X13929468Y-10719936D01*
X13929468Y-10719936D02*
X13919944Y-10729460D01*
X13919944Y-10729460D02*
X13900896Y-10738984D01*
X13900896Y-10738984D02*
X13853277Y-10738984D01*
X13853277Y-10738984D02*
X13834229Y-10729460D01*
X13834229Y-10729460D02*
X13824706Y-10719936D01*
X14177087Y-10738984D02*
X14177087Y-10538984D01*
X14262801Y-10738984D02*
X14262801Y-10634222D01*
X14262801Y-10634222D02*
X14253277Y-10615174D01*
X14253277Y-10615174D02*
X14234230Y-10605650D01*
X14234230Y-10605650D02*
X14205658Y-10605650D01*
X14205658Y-10605650D02*
X14186610Y-10615174D01*
X14186610Y-10615174D02*
X14177087Y-10624698D01*
X14386610Y-10738984D02*
X14367563Y-10729460D01*
X14367563Y-10729460D02*
X14358039Y-10719936D01*
X14358039Y-10719936D02*
X14348515Y-10700889D01*
X14348515Y-10700889D02*
X14348515Y-10643746D01*
X14348515Y-10643746D02*
X14358039Y-10624698D01*
X14358039Y-10624698D02*
X14367563Y-10615174D01*
X14367563Y-10615174D02*
X14386610Y-10605650D01*
X14386610Y-10605650D02*
X14415182Y-10605650D01*
X14415182Y-10605650D02*
X14434230Y-10615174D01*
X14434230Y-10615174D02*
X14443753Y-10624698D01*
X14443753Y-10624698D02*
X14453277Y-10643746D01*
X14453277Y-10643746D02*
X14453277Y-10700889D01*
X14453277Y-10700889D02*
X14443753Y-10719936D01*
X14443753Y-10719936D02*
X14434230Y-10729460D01*
X14434230Y-10729460D02*
X14415182Y-10738984D01*
X14415182Y-10738984D02*
X14386610Y-10738984D01*
X14567563Y-10738984D02*
X14548515Y-10729460D01*
X14548515Y-10729460D02*
X14538991Y-10710412D01*
X14538991Y-10710412D02*
X14538991Y-10538984D01*
X14719944Y-10729460D02*
X14700896Y-10738984D01*
X14700896Y-10738984D02*
X14662801Y-10738984D01*
X14662801Y-10738984D02*
X14643753Y-10729460D01*
X14643753Y-10729460D02*
X14634230Y-10710412D01*
X14634230Y-10710412D02*
X14634230Y-10634222D01*
X14634230Y-10634222D02*
X14643753Y-10615174D01*
X14643753Y-10615174D02*
X14662801Y-10605650D01*
X14662801Y-10605650D02*
X14700896Y-10605650D01*
X14700896Y-10605650D02*
X14719944Y-10615174D01*
X14719944Y-10615174D02*
X14729468Y-10634222D01*
X14729468Y-10634222D02*
X14729468Y-10653270D01*
X14729468Y-10653270D02*
X14634230Y-10672317D01*
X14805658Y-10729460D02*
X14824706Y-10738984D01*
X14824706Y-10738984D02*
X14862801Y-10738984D01*
X14862801Y-10738984D02*
X14881849Y-10729460D01*
X14881849Y-10729460D02*
X14891372Y-10710412D01*
X14891372Y-10710412D02*
X14891372Y-10700889D01*
X14891372Y-10700889D02*
X14881849Y-10681841D01*
X14881849Y-10681841D02*
X14862801Y-10672317D01*
X14862801Y-10672317D02*
X14834230Y-10672317D01*
X14834230Y-10672317D02*
X14815182Y-10662793D01*
X14815182Y-10662793D02*
X14805658Y-10643746D01*
X14805658Y-10643746D02*
X14805658Y-10634222D01*
X14805658Y-10634222D02*
X14815182Y-10615174D01*
X14815182Y-10615174D02*
X14834230Y-10605650D01*
X14834230Y-10605650D02*
X14862801Y-10605650D01*
X14862801Y-10605650D02*
X14881849Y-10615174D01*
X14958039Y-10815174D02*
X14967563Y-10805650D01*
X14967563Y-10805650D02*
X14986611Y-10777079D01*
X14986611Y-10777079D02*
X14996134Y-10758031D01*
X14996134Y-10758031D02*
X15005658Y-10729460D01*
X15005658Y-10729460D02*
X15015182Y-10681841D01*
X15015182Y-10681841D02*
X15015182Y-10643746D01*
X15015182Y-10643746D02*
X15005658Y-10596127D01*
X15005658Y-10596127D02*
X14996134Y-10567555D01*
X14996134Y-10567555D02*
X14986611Y-10548508D01*
X14986611Y-10548508D02*
X14967563Y-10519936D01*
X14967563Y-10519936D02*
X14958039Y-10510412D01*
D12*
X9992500Y-10911500D02*
G75*
G02*
X9912500Y-10911500I-40000J0D01*
G01*
X9912500Y-10911500D02*
G75*
G02*
X9992500Y-10911500I40000J0D01*
G01*
D11*
X10291372Y-10802984D02*
X10310420Y-10802984D01*
X10310420Y-10802984D02*
X10329467Y-10812508D01*
X10329467Y-10812508D02*
X10338991Y-10822031D01*
X10338991Y-10822031D02*
X10348515Y-10841079D01*
X10348515Y-10841079D02*
X10358039Y-10879174D01*
X10358039Y-10879174D02*
X10358039Y-10926793D01*
X10358039Y-10926793D02*
X10348515Y-10964889D01*
X10348515Y-10964889D02*
X10338991Y-10983936D01*
X10338991Y-10983936D02*
X10329467Y-10993460D01*
X10329467Y-10993460D02*
X10310420Y-11002984D01*
X10310420Y-11002984D02*
X10291372Y-11002984D01*
X10291372Y-11002984D02*
X10272324Y-10993460D01*
X10272324Y-10993460D02*
X10262801Y-10983936D01*
X10262801Y-10983936D02*
X10253277Y-10964889D01*
X10253277Y-10964889D02*
X10243753Y-10926793D01*
X10243753Y-10926793D02*
X10243753Y-10879174D01*
X10243753Y-10879174D02*
X10253277Y-10841079D01*
X10253277Y-10841079D02*
X10262801Y-10822031D01*
X10262801Y-10822031D02*
X10272324Y-10812508D01*
X10272324Y-10812508D02*
X10291372Y-10802984D01*
X10443753Y-10983936D02*
X10453277Y-10993460D01*
X10453277Y-10993460D02*
X10443753Y-11002984D01*
X10443753Y-11002984D02*
X10434229Y-10993460D01*
X10434229Y-10993460D02*
X10443753Y-10983936D01*
X10443753Y-10983936D02*
X10443753Y-11002984D01*
X10567563Y-10888698D02*
X10548515Y-10879174D01*
X10548515Y-10879174D02*
X10538991Y-10869650D01*
X10538991Y-10869650D02*
X10529467Y-10850603D01*
X10529467Y-10850603D02*
X10529467Y-10841079D01*
X10529467Y-10841079D02*
X10538991Y-10822031D01*
X10538991Y-10822031D02*
X10548515Y-10812508D01*
X10548515Y-10812508D02*
X10567563Y-10802984D01*
X10567563Y-10802984D02*
X10605658Y-10802984D01*
X10605658Y-10802984D02*
X10624705Y-10812508D01*
X10624705Y-10812508D02*
X10634229Y-10822031D01*
X10634229Y-10822031D02*
X10643753Y-10841079D01*
X10643753Y-10841079D02*
X10643753Y-10850603D01*
X10643753Y-10850603D02*
X10634229Y-10869650D01*
X10634229Y-10869650D02*
X10624705Y-10879174D01*
X10624705Y-10879174D02*
X10605658Y-10888698D01*
X10605658Y-10888698D02*
X10567563Y-10888698D01*
X10567563Y-10888698D02*
X10548515Y-10898222D01*
X10548515Y-10898222D02*
X10538991Y-10907746D01*
X10538991Y-10907746D02*
X10529467Y-10926793D01*
X10529467Y-10926793D02*
X10529467Y-10964889D01*
X10529467Y-10964889D02*
X10538991Y-10983936D01*
X10538991Y-10983936D02*
X10548515Y-10993460D01*
X10548515Y-10993460D02*
X10567563Y-11002984D01*
X10567563Y-11002984D02*
X10605658Y-11002984D01*
X10605658Y-11002984D02*
X10624705Y-10993460D01*
X10624705Y-10993460D02*
X10634229Y-10983936D01*
X10634229Y-10983936D02*
X10643753Y-10964889D01*
X10643753Y-10964889D02*
X10643753Y-10926793D01*
X10643753Y-10926793D02*
X10634229Y-10907746D01*
X10634229Y-10907746D02*
X10624705Y-10898222D01*
X10624705Y-10898222D02*
X10605658Y-10888698D01*
X10767563Y-10802984D02*
X10786610Y-10802984D01*
X10786610Y-10802984D02*
X10805658Y-10812508D01*
X10805658Y-10812508D02*
X10815182Y-10822031D01*
X10815182Y-10822031D02*
X10824705Y-10841079D01*
X10824705Y-10841079D02*
X10834229Y-10879174D01*
X10834229Y-10879174D02*
X10834229Y-10926793D01*
X10834229Y-10926793D02*
X10824705Y-10964889D01*
X10824705Y-10964889D02*
X10815182Y-10983936D01*
X10815182Y-10983936D02*
X10805658Y-10993460D01*
X10805658Y-10993460D02*
X10786610Y-11002984D01*
X10786610Y-11002984D02*
X10767563Y-11002984D01*
X10767563Y-11002984D02*
X10748515Y-10993460D01*
X10748515Y-10993460D02*
X10738991Y-10983936D01*
X10738991Y-10983936D02*
X10729467Y-10964889D01*
X10729467Y-10964889D02*
X10719944Y-10926793D01*
X10719944Y-10926793D02*
X10719944Y-10879174D01*
X10719944Y-10879174D02*
X10729467Y-10841079D01*
X10729467Y-10841079D02*
X10738991Y-10822031D01*
X10738991Y-10822031D02*
X10748515Y-10812508D01*
X10748515Y-10812508D02*
X10767563Y-10802984D01*
X10958039Y-10802984D02*
X10977086Y-10802984D01*
X10977086Y-10802984D02*
X10996134Y-10812508D01*
X10996134Y-10812508D02*
X11005658Y-10822031D01*
X11005658Y-10822031D02*
X11015182Y-10841079D01*
X11015182Y-10841079D02*
X11024705Y-10879174D01*
X11024705Y-10879174D02*
X11024705Y-10926793D01*
X11024705Y-10926793D02*
X11015182Y-10964889D01*
X11015182Y-10964889D02*
X11005658Y-10983936D01*
X11005658Y-10983936D02*
X10996134Y-10993460D01*
X10996134Y-10993460D02*
X10977086Y-11002984D01*
X10977086Y-11002984D02*
X10958039Y-11002984D01*
X10958039Y-11002984D02*
X10938991Y-10993460D01*
X10938991Y-10993460D02*
X10929467Y-10983936D01*
X10929467Y-10983936D02*
X10919944Y-10964889D01*
X10919944Y-10964889D02*
X10910420Y-10926793D01*
X10910420Y-10926793D02*
X10910420Y-10879174D01*
X10910420Y-10879174D02*
X10919944Y-10841079D01*
X10919944Y-10841079D02*
X10929467Y-10822031D01*
X10929467Y-10822031D02*
X10938991Y-10812508D01*
X10938991Y-10812508D02*
X10958039Y-10802984D01*
X11110420Y-11002984D02*
X11110420Y-10869650D01*
X11110420Y-10888698D02*
X11119944Y-10879174D01*
X11119944Y-10879174D02*
X11138991Y-10869650D01*
X11138991Y-10869650D02*
X11167563Y-10869650D01*
X11167563Y-10869650D02*
X11186610Y-10879174D01*
X11186610Y-10879174D02*
X11196134Y-10898222D01*
X11196134Y-10898222D02*
X11196134Y-11002984D01*
X11196134Y-10898222D02*
X11205658Y-10879174D01*
X11205658Y-10879174D02*
X11224705Y-10869650D01*
X11224705Y-10869650D02*
X11253277Y-10869650D01*
X11253277Y-10869650D02*
X11272324Y-10879174D01*
X11272324Y-10879174D02*
X11281848Y-10898222D01*
X11281848Y-10898222D02*
X11281848Y-11002984D01*
X11377086Y-11002984D02*
X11377086Y-10869650D01*
X11377086Y-10888698D02*
X11386610Y-10879174D01*
X11386610Y-10879174D02*
X11405658Y-10869650D01*
X11405658Y-10869650D02*
X11434229Y-10869650D01*
X11434229Y-10869650D02*
X11453277Y-10879174D01*
X11453277Y-10879174D02*
X11462801Y-10898222D01*
X11462801Y-10898222D02*
X11462801Y-11002984D01*
X11462801Y-10898222D02*
X11472324Y-10879174D01*
X11472324Y-10879174D02*
X11491372Y-10869650D01*
X11491372Y-10869650D02*
X11519943Y-10869650D01*
X11519943Y-10869650D02*
X11538991Y-10879174D01*
X11538991Y-10879174D02*
X11548515Y-10898222D01*
X11548515Y-10898222D02*
X11548515Y-11002984D01*
X11938991Y-10793460D02*
X11767563Y-11050603D01*
X12196134Y-10802984D02*
X12215182Y-10802984D01*
X12215182Y-10802984D02*
X12234229Y-10812508D01*
X12234229Y-10812508D02*
X12243753Y-10822031D01*
X12243753Y-10822031D02*
X12253277Y-10841079D01*
X12253277Y-10841079D02*
X12262801Y-10879174D01*
X12262801Y-10879174D02*
X12262801Y-10926793D01*
X12262801Y-10926793D02*
X12253277Y-10964889D01*
X12253277Y-10964889D02*
X12243753Y-10983936D01*
X12243753Y-10983936D02*
X12234229Y-10993460D01*
X12234229Y-10993460D02*
X12215182Y-11002984D01*
X12215182Y-11002984D02*
X12196134Y-11002984D01*
X12196134Y-11002984D02*
X12177086Y-10993460D01*
X12177086Y-10993460D02*
X12167563Y-10983936D01*
X12167563Y-10983936D02*
X12158039Y-10964889D01*
X12158039Y-10964889D02*
X12148515Y-10926793D01*
X12148515Y-10926793D02*
X12148515Y-10879174D01*
X12148515Y-10879174D02*
X12158039Y-10841079D01*
X12158039Y-10841079D02*
X12167563Y-10822031D01*
X12167563Y-10822031D02*
X12177086Y-10812508D01*
X12177086Y-10812508D02*
X12196134Y-10802984D01*
X12348515Y-10983936D02*
X12358039Y-10993460D01*
X12358039Y-10993460D02*
X12348515Y-11002984D01*
X12348515Y-11002984D02*
X12338991Y-10993460D01*
X12338991Y-10993460D02*
X12348515Y-10983936D01*
X12348515Y-10983936D02*
X12348515Y-11002984D01*
X12481848Y-10802984D02*
X12500896Y-10802984D01*
X12500896Y-10802984D02*
X12519944Y-10812508D01*
X12519944Y-10812508D02*
X12529467Y-10822031D01*
X12529467Y-10822031D02*
X12538991Y-10841079D01*
X12538991Y-10841079D02*
X12548515Y-10879174D01*
X12548515Y-10879174D02*
X12548515Y-10926793D01*
X12548515Y-10926793D02*
X12538991Y-10964889D01*
X12538991Y-10964889D02*
X12529467Y-10983936D01*
X12529467Y-10983936D02*
X12519944Y-10993460D01*
X12519944Y-10993460D02*
X12500896Y-11002984D01*
X12500896Y-11002984D02*
X12481848Y-11002984D01*
X12481848Y-11002984D02*
X12462801Y-10993460D01*
X12462801Y-10993460D02*
X12453277Y-10983936D01*
X12453277Y-10983936D02*
X12443753Y-10964889D01*
X12443753Y-10964889D02*
X12434229Y-10926793D01*
X12434229Y-10926793D02*
X12434229Y-10879174D01*
X12434229Y-10879174D02*
X12443753Y-10841079D01*
X12443753Y-10841079D02*
X12453277Y-10822031D01*
X12453277Y-10822031D02*
X12462801Y-10812508D01*
X12462801Y-10812508D02*
X12481848Y-10802984D01*
X12615182Y-10802984D02*
X12738991Y-10802984D01*
X12738991Y-10802984D02*
X12672325Y-10879174D01*
X12672325Y-10879174D02*
X12700896Y-10879174D01*
X12700896Y-10879174D02*
X12719944Y-10888698D01*
X12719944Y-10888698D02*
X12729467Y-10898222D01*
X12729467Y-10898222D02*
X12738991Y-10917270D01*
X12738991Y-10917270D02*
X12738991Y-10964889D01*
X12738991Y-10964889D02*
X12729467Y-10983936D01*
X12729467Y-10983936D02*
X12719944Y-10993460D01*
X12719944Y-10993460D02*
X12700896Y-11002984D01*
X12700896Y-11002984D02*
X12643753Y-11002984D01*
X12643753Y-11002984D02*
X12624706Y-10993460D01*
X12624706Y-10993460D02*
X12615182Y-10983936D01*
X12929467Y-11002984D02*
X12815182Y-11002984D01*
X12872325Y-11002984D02*
X12872325Y-10802984D01*
X12872325Y-10802984D02*
X12853277Y-10831555D01*
X12853277Y-10831555D02*
X12834229Y-10850603D01*
X12834229Y-10850603D02*
X12815182Y-10860127D01*
X13110420Y-10802984D02*
X13015182Y-10802984D01*
X13015182Y-10802984D02*
X13005658Y-10898222D01*
X13005658Y-10898222D02*
X13015182Y-10888698D01*
X13015182Y-10888698D02*
X13034229Y-10879174D01*
X13034229Y-10879174D02*
X13081848Y-10879174D01*
X13081848Y-10879174D02*
X13100896Y-10888698D01*
X13100896Y-10888698D02*
X13110420Y-10898222D01*
X13110420Y-10898222D02*
X13119944Y-10917270D01*
X13119944Y-10917270D02*
X13119944Y-10964889D01*
X13119944Y-10964889D02*
X13110420Y-10983936D01*
X13110420Y-10983936D02*
X13100896Y-10993460D01*
X13100896Y-10993460D02*
X13081848Y-11002984D01*
X13081848Y-11002984D02*
X13034229Y-11002984D01*
X13034229Y-11002984D02*
X13015182Y-10993460D01*
X13015182Y-10993460D02*
X13005658Y-10983936D01*
X13196134Y-10802984D02*
X13196134Y-10841079D01*
X13272325Y-10802984D02*
X13272325Y-10841079D01*
X13567563Y-11079174D02*
X13558039Y-11069650D01*
X13558039Y-11069650D02*
X13538991Y-11041079D01*
X13538991Y-11041079D02*
X13529468Y-11022031D01*
X13529468Y-11022031D02*
X13519944Y-10993460D01*
X13519944Y-10993460D02*
X13510420Y-10945841D01*
X13510420Y-10945841D02*
X13510420Y-10907746D01*
X13510420Y-10907746D02*
X13519944Y-10860127D01*
X13519944Y-10860127D02*
X13529468Y-10831555D01*
X13529468Y-10831555D02*
X13538991Y-10812508D01*
X13538991Y-10812508D02*
X13558039Y-10783936D01*
X13558039Y-10783936D02*
X13567563Y-10774412D01*
X13748515Y-11002984D02*
X13634229Y-11002984D01*
X13691372Y-11002984D02*
X13691372Y-10802984D01*
X13691372Y-10802984D02*
X13672325Y-10831555D01*
X13672325Y-10831555D02*
X13653277Y-10850603D01*
X13653277Y-10850603D02*
X13634229Y-10860127D01*
X13929468Y-10802984D02*
X13834229Y-10802984D01*
X13834229Y-10802984D02*
X13824706Y-10898222D01*
X13824706Y-10898222D02*
X13834229Y-10888698D01*
X13834229Y-10888698D02*
X13853277Y-10879174D01*
X13853277Y-10879174D02*
X13900896Y-10879174D01*
X13900896Y-10879174D02*
X13919944Y-10888698D01*
X13919944Y-10888698D02*
X13929468Y-10898222D01*
X13929468Y-10898222D02*
X13938991Y-10917270D01*
X13938991Y-10917270D02*
X13938991Y-10964889D01*
X13938991Y-10964889D02*
X13929468Y-10983936D01*
X13929468Y-10983936D02*
X13919944Y-10993460D01*
X13919944Y-10993460D02*
X13900896Y-11002984D01*
X13900896Y-11002984D02*
X13853277Y-11002984D01*
X13853277Y-11002984D02*
X13834229Y-10993460D01*
X13834229Y-10993460D02*
X13824706Y-10983936D01*
X14177087Y-11002984D02*
X14177087Y-10802984D01*
X14262801Y-11002984D02*
X14262801Y-10898222D01*
X14262801Y-10898222D02*
X14253277Y-10879174D01*
X14253277Y-10879174D02*
X14234230Y-10869650D01*
X14234230Y-10869650D02*
X14205658Y-10869650D01*
X14205658Y-10869650D02*
X14186610Y-10879174D01*
X14186610Y-10879174D02*
X14177087Y-10888698D01*
X14386610Y-11002984D02*
X14367563Y-10993460D01*
X14367563Y-10993460D02*
X14358039Y-10983936D01*
X14358039Y-10983936D02*
X14348515Y-10964889D01*
X14348515Y-10964889D02*
X14348515Y-10907746D01*
X14348515Y-10907746D02*
X14358039Y-10888698D01*
X14358039Y-10888698D02*
X14367563Y-10879174D01*
X14367563Y-10879174D02*
X14386610Y-10869650D01*
X14386610Y-10869650D02*
X14415182Y-10869650D01*
X14415182Y-10869650D02*
X14434230Y-10879174D01*
X14434230Y-10879174D02*
X14443753Y-10888698D01*
X14443753Y-10888698D02*
X14453277Y-10907746D01*
X14453277Y-10907746D02*
X14453277Y-10964889D01*
X14453277Y-10964889D02*
X14443753Y-10983936D01*
X14443753Y-10983936D02*
X14434230Y-10993460D01*
X14434230Y-10993460D02*
X14415182Y-11002984D01*
X14415182Y-11002984D02*
X14386610Y-11002984D01*
X14567563Y-11002984D02*
X14548515Y-10993460D01*
X14548515Y-10993460D02*
X14538991Y-10974412D01*
X14538991Y-10974412D02*
X14538991Y-10802984D01*
X14719944Y-10993460D02*
X14700896Y-11002984D01*
X14700896Y-11002984D02*
X14662801Y-11002984D01*
X14662801Y-11002984D02*
X14643753Y-10993460D01*
X14643753Y-10993460D02*
X14634230Y-10974412D01*
X14634230Y-10974412D02*
X14634230Y-10898222D01*
X14634230Y-10898222D02*
X14643753Y-10879174D01*
X14643753Y-10879174D02*
X14662801Y-10869650D01*
X14662801Y-10869650D02*
X14700896Y-10869650D01*
X14700896Y-10869650D02*
X14719944Y-10879174D01*
X14719944Y-10879174D02*
X14729468Y-10898222D01*
X14729468Y-10898222D02*
X14729468Y-10917270D01*
X14729468Y-10917270D02*
X14634230Y-10936317D01*
X14805658Y-10993460D02*
X14824706Y-11002984D01*
X14824706Y-11002984D02*
X14862801Y-11002984D01*
X14862801Y-11002984D02*
X14881849Y-10993460D01*
X14881849Y-10993460D02*
X14891372Y-10974412D01*
X14891372Y-10974412D02*
X14891372Y-10964889D01*
X14891372Y-10964889D02*
X14881849Y-10945841D01*
X14881849Y-10945841D02*
X14862801Y-10936317D01*
X14862801Y-10936317D02*
X14834230Y-10936317D01*
X14834230Y-10936317D02*
X14815182Y-10926793D01*
X14815182Y-10926793D02*
X14805658Y-10907746D01*
X14805658Y-10907746D02*
X14805658Y-10898222D01*
X14805658Y-10898222D02*
X14815182Y-10879174D01*
X14815182Y-10879174D02*
X14834230Y-10869650D01*
X14834230Y-10869650D02*
X14862801Y-10869650D01*
X14862801Y-10869650D02*
X14881849Y-10879174D01*
X14958039Y-11079174D02*
X14967563Y-11069650D01*
X14967563Y-11069650D02*
X14986611Y-11041079D01*
X14986611Y-11041079D02*
X14996134Y-11022031D01*
X14996134Y-11022031D02*
X15005658Y-10993460D01*
X15005658Y-10993460D02*
X15015182Y-10945841D01*
X15015182Y-10945841D02*
X15015182Y-10907746D01*
X15015182Y-10907746D02*
X15005658Y-10860127D01*
X15005658Y-10860127D02*
X14996134Y-10831555D01*
X14996134Y-10831555D02*
X14986611Y-10812508D01*
X14986611Y-10812508D02*
X14967563Y-10783936D01*
X14967563Y-10783936D02*
X14958039Y-10774412D01*
D12*
X9947500Y-11130500D02*
X9947500Y-11220500D01*
X9902500Y-11175500D02*
X9992500Y-11175500D01*
D11*
X10291372Y-11066984D02*
X10310420Y-11066984D01*
X10310420Y-11066984D02*
X10329467Y-11076508D01*
X10329467Y-11076508D02*
X10338991Y-11086031D01*
X10338991Y-11086031D02*
X10348515Y-11105079D01*
X10348515Y-11105079D02*
X10358039Y-11143174D01*
X10358039Y-11143174D02*
X10358039Y-11190793D01*
X10358039Y-11190793D02*
X10348515Y-11228888D01*
X10348515Y-11228888D02*
X10338991Y-11247936D01*
X10338991Y-11247936D02*
X10329467Y-11257460D01*
X10329467Y-11257460D02*
X10310420Y-11266984D01*
X10310420Y-11266984D02*
X10291372Y-11266984D01*
X10291372Y-11266984D02*
X10272324Y-11257460D01*
X10272324Y-11257460D02*
X10262801Y-11247936D01*
X10262801Y-11247936D02*
X10253277Y-11228888D01*
X10253277Y-11228888D02*
X10243753Y-11190793D01*
X10243753Y-11190793D02*
X10243753Y-11143174D01*
X10243753Y-11143174D02*
X10253277Y-11105079D01*
X10253277Y-11105079D02*
X10262801Y-11086031D01*
X10262801Y-11086031D02*
X10272324Y-11076508D01*
X10272324Y-11076508D02*
X10291372Y-11066984D01*
X10443753Y-11247936D02*
X10453277Y-11257460D01*
X10453277Y-11257460D02*
X10443753Y-11266984D01*
X10443753Y-11266984D02*
X10434229Y-11257460D01*
X10434229Y-11257460D02*
X10443753Y-11247936D01*
X10443753Y-11247936D02*
X10443753Y-11266984D01*
X10548515Y-11266984D02*
X10586610Y-11266984D01*
X10586610Y-11266984D02*
X10605658Y-11257460D01*
X10605658Y-11257460D02*
X10615182Y-11247936D01*
X10615182Y-11247936D02*
X10634229Y-11219365D01*
X10634229Y-11219365D02*
X10643753Y-11181270D01*
X10643753Y-11181270D02*
X10643753Y-11105079D01*
X10643753Y-11105079D02*
X10634229Y-11086031D01*
X10634229Y-11086031D02*
X10624705Y-11076508D01*
X10624705Y-11076508D02*
X10605658Y-11066984D01*
X10605658Y-11066984D02*
X10567563Y-11066984D01*
X10567563Y-11066984D02*
X10548515Y-11076508D01*
X10548515Y-11076508D02*
X10538991Y-11086031D01*
X10538991Y-11086031D02*
X10529467Y-11105079D01*
X10529467Y-11105079D02*
X10529467Y-11152698D01*
X10529467Y-11152698D02*
X10538991Y-11171746D01*
X10538991Y-11171746D02*
X10548515Y-11181270D01*
X10548515Y-11181270D02*
X10567563Y-11190793D01*
X10567563Y-11190793D02*
X10605658Y-11190793D01*
X10605658Y-11190793D02*
X10624705Y-11181270D01*
X10624705Y-11181270D02*
X10634229Y-11171746D01*
X10634229Y-11171746D02*
X10643753Y-11152698D01*
X10767563Y-11066984D02*
X10786610Y-11066984D01*
X10786610Y-11066984D02*
X10805658Y-11076508D01*
X10805658Y-11076508D02*
X10815182Y-11086031D01*
X10815182Y-11086031D02*
X10824705Y-11105079D01*
X10824705Y-11105079D02*
X10834229Y-11143174D01*
X10834229Y-11143174D02*
X10834229Y-11190793D01*
X10834229Y-11190793D02*
X10824705Y-11228888D01*
X10824705Y-11228888D02*
X10815182Y-11247936D01*
X10815182Y-11247936D02*
X10805658Y-11257460D01*
X10805658Y-11257460D02*
X10786610Y-11266984D01*
X10786610Y-11266984D02*
X10767563Y-11266984D01*
X10767563Y-11266984D02*
X10748515Y-11257460D01*
X10748515Y-11257460D02*
X10738991Y-11247936D01*
X10738991Y-11247936D02*
X10729467Y-11228888D01*
X10729467Y-11228888D02*
X10719944Y-11190793D01*
X10719944Y-11190793D02*
X10719944Y-11143174D01*
X10719944Y-11143174D02*
X10729467Y-11105079D01*
X10729467Y-11105079D02*
X10738991Y-11086031D01*
X10738991Y-11086031D02*
X10748515Y-11076508D01*
X10748515Y-11076508D02*
X10767563Y-11066984D01*
X10958039Y-11066984D02*
X10977086Y-11066984D01*
X10977086Y-11066984D02*
X10996134Y-11076508D01*
X10996134Y-11076508D02*
X11005658Y-11086031D01*
X11005658Y-11086031D02*
X11015182Y-11105079D01*
X11015182Y-11105079D02*
X11024705Y-11143174D01*
X11024705Y-11143174D02*
X11024705Y-11190793D01*
X11024705Y-11190793D02*
X11015182Y-11228888D01*
X11015182Y-11228888D02*
X11005658Y-11247936D01*
X11005658Y-11247936D02*
X10996134Y-11257460D01*
X10996134Y-11257460D02*
X10977086Y-11266984D01*
X10977086Y-11266984D02*
X10958039Y-11266984D01*
X10958039Y-11266984D02*
X10938991Y-11257460D01*
X10938991Y-11257460D02*
X10929467Y-11247936D01*
X10929467Y-11247936D02*
X10919944Y-11228888D01*
X10919944Y-11228888D02*
X10910420Y-11190793D01*
X10910420Y-11190793D02*
X10910420Y-11143174D01*
X10910420Y-11143174D02*
X10919944Y-11105079D01*
X10919944Y-11105079D02*
X10929467Y-11086031D01*
X10929467Y-11086031D02*
X10938991Y-11076508D01*
X10938991Y-11076508D02*
X10958039Y-11066984D01*
X11110420Y-11266984D02*
X11110420Y-11133650D01*
X11110420Y-11152698D02*
X11119944Y-11143174D01*
X11119944Y-11143174D02*
X11138991Y-11133650D01*
X11138991Y-11133650D02*
X11167563Y-11133650D01*
X11167563Y-11133650D02*
X11186610Y-11143174D01*
X11186610Y-11143174D02*
X11196134Y-11162222D01*
X11196134Y-11162222D02*
X11196134Y-11266984D01*
X11196134Y-11162222D02*
X11205658Y-11143174D01*
X11205658Y-11143174D02*
X11224705Y-11133650D01*
X11224705Y-11133650D02*
X11253277Y-11133650D01*
X11253277Y-11133650D02*
X11272324Y-11143174D01*
X11272324Y-11143174D02*
X11281848Y-11162222D01*
X11281848Y-11162222D02*
X11281848Y-11266984D01*
X11377086Y-11266984D02*
X11377086Y-11133650D01*
X11377086Y-11152698D02*
X11386610Y-11143174D01*
X11386610Y-11143174D02*
X11405658Y-11133650D01*
X11405658Y-11133650D02*
X11434229Y-11133650D01*
X11434229Y-11133650D02*
X11453277Y-11143174D01*
X11453277Y-11143174D02*
X11462801Y-11162222D01*
X11462801Y-11162222D02*
X11462801Y-11266984D01*
X11462801Y-11162222D02*
X11472324Y-11143174D01*
X11472324Y-11143174D02*
X11491372Y-11133650D01*
X11491372Y-11133650D02*
X11519943Y-11133650D01*
X11519943Y-11133650D02*
X11538991Y-11143174D01*
X11538991Y-11143174D02*
X11548515Y-11162222D01*
X11548515Y-11162222D02*
X11548515Y-11266984D01*
X11938991Y-11057460D02*
X11767563Y-11314603D01*
X12196134Y-11066984D02*
X12215182Y-11066984D01*
X12215182Y-11066984D02*
X12234229Y-11076508D01*
X12234229Y-11076508D02*
X12243753Y-11086031D01*
X12243753Y-11086031D02*
X12253277Y-11105079D01*
X12253277Y-11105079D02*
X12262801Y-11143174D01*
X12262801Y-11143174D02*
X12262801Y-11190793D01*
X12262801Y-11190793D02*
X12253277Y-11228888D01*
X12253277Y-11228888D02*
X12243753Y-11247936D01*
X12243753Y-11247936D02*
X12234229Y-11257460D01*
X12234229Y-11257460D02*
X12215182Y-11266984D01*
X12215182Y-11266984D02*
X12196134Y-11266984D01*
X12196134Y-11266984D02*
X12177086Y-11257460D01*
X12177086Y-11257460D02*
X12167563Y-11247936D01*
X12167563Y-11247936D02*
X12158039Y-11228888D01*
X12158039Y-11228888D02*
X12148515Y-11190793D01*
X12148515Y-11190793D02*
X12148515Y-11143174D01*
X12148515Y-11143174D02*
X12158039Y-11105079D01*
X12158039Y-11105079D02*
X12167563Y-11086031D01*
X12167563Y-11086031D02*
X12177086Y-11076508D01*
X12177086Y-11076508D02*
X12196134Y-11066984D01*
X12348515Y-11247936D02*
X12358039Y-11257460D01*
X12358039Y-11257460D02*
X12348515Y-11266984D01*
X12348515Y-11266984D02*
X12338991Y-11257460D01*
X12338991Y-11257460D02*
X12348515Y-11247936D01*
X12348515Y-11247936D02*
X12348515Y-11266984D01*
X12481848Y-11066984D02*
X12500896Y-11066984D01*
X12500896Y-11066984D02*
X12519944Y-11076508D01*
X12519944Y-11076508D02*
X12529467Y-11086031D01*
X12529467Y-11086031D02*
X12538991Y-11105079D01*
X12538991Y-11105079D02*
X12548515Y-11143174D01*
X12548515Y-11143174D02*
X12548515Y-11190793D01*
X12548515Y-11190793D02*
X12538991Y-11228888D01*
X12538991Y-11228888D02*
X12529467Y-11247936D01*
X12529467Y-11247936D02*
X12519944Y-11257460D01*
X12519944Y-11257460D02*
X12500896Y-11266984D01*
X12500896Y-11266984D02*
X12481848Y-11266984D01*
X12481848Y-11266984D02*
X12462801Y-11257460D01*
X12462801Y-11257460D02*
X12453277Y-11247936D01*
X12453277Y-11247936D02*
X12443753Y-11228888D01*
X12443753Y-11228888D02*
X12434229Y-11190793D01*
X12434229Y-11190793D02*
X12434229Y-11143174D01*
X12434229Y-11143174D02*
X12443753Y-11105079D01*
X12443753Y-11105079D02*
X12453277Y-11086031D01*
X12453277Y-11086031D02*
X12462801Y-11076508D01*
X12462801Y-11076508D02*
X12481848Y-11066984D01*
X12615182Y-11066984D02*
X12738991Y-11066984D01*
X12738991Y-11066984D02*
X12672325Y-11143174D01*
X12672325Y-11143174D02*
X12700896Y-11143174D01*
X12700896Y-11143174D02*
X12719944Y-11152698D01*
X12719944Y-11152698D02*
X12729467Y-11162222D01*
X12729467Y-11162222D02*
X12738991Y-11181270D01*
X12738991Y-11181270D02*
X12738991Y-11228888D01*
X12738991Y-11228888D02*
X12729467Y-11247936D01*
X12729467Y-11247936D02*
X12719944Y-11257460D01*
X12719944Y-11257460D02*
X12700896Y-11266984D01*
X12700896Y-11266984D02*
X12643753Y-11266984D01*
X12643753Y-11266984D02*
X12624706Y-11257460D01*
X12624706Y-11257460D02*
X12615182Y-11247936D01*
X12919944Y-11066984D02*
X12824706Y-11066984D01*
X12824706Y-11066984D02*
X12815182Y-11162222D01*
X12815182Y-11162222D02*
X12824706Y-11152698D01*
X12824706Y-11152698D02*
X12843753Y-11143174D01*
X12843753Y-11143174D02*
X12891372Y-11143174D01*
X12891372Y-11143174D02*
X12910420Y-11152698D01*
X12910420Y-11152698D02*
X12919944Y-11162222D01*
X12919944Y-11162222D02*
X12929467Y-11181270D01*
X12929467Y-11181270D02*
X12929467Y-11228888D01*
X12929467Y-11228888D02*
X12919944Y-11247936D01*
X12919944Y-11247936D02*
X12910420Y-11257460D01*
X12910420Y-11257460D02*
X12891372Y-11266984D01*
X12891372Y-11266984D02*
X12843753Y-11266984D01*
X12843753Y-11266984D02*
X12824706Y-11257460D01*
X12824706Y-11257460D02*
X12815182Y-11247936D01*
X13100896Y-11133650D02*
X13100896Y-11266984D01*
X13053277Y-11057460D02*
X13005658Y-11200317D01*
X13005658Y-11200317D02*
X13129467Y-11200317D01*
X13196134Y-11066984D02*
X13196134Y-11105079D01*
X13272325Y-11066984D02*
X13272325Y-11105079D01*
X13567563Y-11343174D02*
X13558039Y-11333650D01*
X13558039Y-11333650D02*
X13538991Y-11305079D01*
X13538991Y-11305079D02*
X13529468Y-11286031D01*
X13529468Y-11286031D02*
X13519944Y-11257460D01*
X13519944Y-11257460D02*
X13510420Y-11209841D01*
X13510420Y-11209841D02*
X13510420Y-11171746D01*
X13510420Y-11171746D02*
X13519944Y-11124127D01*
X13519944Y-11124127D02*
X13529468Y-11095555D01*
X13529468Y-11095555D02*
X13538991Y-11076508D01*
X13538991Y-11076508D02*
X13558039Y-11047936D01*
X13558039Y-11047936D02*
X13567563Y-11038412D01*
X13634229Y-11086031D02*
X13643753Y-11076508D01*
X13643753Y-11076508D02*
X13662801Y-11066984D01*
X13662801Y-11066984D02*
X13710420Y-11066984D01*
X13710420Y-11066984D02*
X13729468Y-11076508D01*
X13729468Y-11076508D02*
X13738991Y-11086031D01*
X13738991Y-11086031D02*
X13748515Y-11105079D01*
X13748515Y-11105079D02*
X13748515Y-11124127D01*
X13748515Y-11124127D02*
X13738991Y-11152698D01*
X13738991Y-11152698D02*
X13624706Y-11266984D01*
X13624706Y-11266984D02*
X13748515Y-11266984D01*
X13986610Y-11266984D02*
X13986610Y-11066984D01*
X14072325Y-11266984D02*
X14072325Y-11162222D01*
X14072325Y-11162222D02*
X14062801Y-11143174D01*
X14062801Y-11143174D02*
X14043753Y-11133650D01*
X14043753Y-11133650D02*
X14015182Y-11133650D01*
X14015182Y-11133650D02*
X13996134Y-11143174D01*
X13996134Y-11143174D02*
X13986610Y-11152698D01*
X14196134Y-11266984D02*
X14177087Y-11257460D01*
X14177087Y-11257460D02*
X14167563Y-11247936D01*
X14167563Y-11247936D02*
X14158039Y-11228888D01*
X14158039Y-11228888D02*
X14158039Y-11171746D01*
X14158039Y-11171746D02*
X14167563Y-11152698D01*
X14167563Y-11152698D02*
X14177087Y-11143174D01*
X14177087Y-11143174D02*
X14196134Y-11133650D01*
X14196134Y-11133650D02*
X14224706Y-11133650D01*
X14224706Y-11133650D02*
X14243753Y-11143174D01*
X14243753Y-11143174D02*
X14253277Y-11152698D01*
X14253277Y-11152698D02*
X14262801Y-11171746D01*
X14262801Y-11171746D02*
X14262801Y-11228888D01*
X14262801Y-11228888D02*
X14253277Y-11247936D01*
X14253277Y-11247936D02*
X14243753Y-11257460D01*
X14243753Y-11257460D02*
X14224706Y-11266984D01*
X14224706Y-11266984D02*
X14196134Y-11266984D01*
X14377087Y-11266984D02*
X14358039Y-11257460D01*
X14358039Y-11257460D02*
X14348515Y-11238412D01*
X14348515Y-11238412D02*
X14348515Y-11066984D01*
X14529468Y-11257460D02*
X14510420Y-11266984D01*
X14510420Y-11266984D02*
X14472325Y-11266984D01*
X14472325Y-11266984D02*
X14453277Y-11257460D01*
X14453277Y-11257460D02*
X14443753Y-11238412D01*
X14443753Y-11238412D02*
X14443753Y-11162222D01*
X14443753Y-11162222D02*
X14453277Y-11143174D01*
X14453277Y-11143174D02*
X14472325Y-11133650D01*
X14472325Y-11133650D02*
X14510420Y-11133650D01*
X14510420Y-11133650D02*
X14529468Y-11143174D01*
X14529468Y-11143174D02*
X14538991Y-11162222D01*
X14538991Y-11162222D02*
X14538991Y-11181270D01*
X14538991Y-11181270D02*
X14443753Y-11200317D01*
X14615182Y-11257460D02*
X14634230Y-11266984D01*
X14634230Y-11266984D02*
X14672325Y-11266984D01*
X14672325Y-11266984D02*
X14691372Y-11257460D01*
X14691372Y-11257460D02*
X14700896Y-11238412D01*
X14700896Y-11238412D02*
X14700896Y-11228888D01*
X14700896Y-11228888D02*
X14691372Y-11209841D01*
X14691372Y-11209841D02*
X14672325Y-11200317D01*
X14672325Y-11200317D02*
X14643753Y-11200317D01*
X14643753Y-11200317D02*
X14624706Y-11190793D01*
X14624706Y-11190793D02*
X14615182Y-11171746D01*
X14615182Y-11171746D02*
X14615182Y-11162222D01*
X14615182Y-11162222D02*
X14624706Y-11143174D01*
X14624706Y-11143174D02*
X14643753Y-11133650D01*
X14643753Y-11133650D02*
X14672325Y-11133650D01*
X14672325Y-11133650D02*
X14691372Y-11143174D01*
X14767563Y-11343174D02*
X14777087Y-11333650D01*
X14777087Y-11333650D02*
X14796134Y-11305079D01*
X14796134Y-11305079D02*
X14805658Y-11286031D01*
X14805658Y-11286031D02*
X14815182Y-11257460D01*
X14815182Y-11257460D02*
X14824706Y-11209841D01*
X14824706Y-11209841D02*
X14824706Y-11171746D01*
X14824706Y-11171746D02*
X14815182Y-11124127D01*
X14815182Y-11124127D02*
X14805658Y-11095555D01*
X14805658Y-11095555D02*
X14796134Y-11076508D01*
X14796134Y-11076508D02*
X14777087Y-11047936D01*
X14777087Y-11047936D02*
X14767563Y-11038412D01*
D12*
X9978588Y-11473088D02*
X9978588Y-11405912D01*
X9911412Y-11405912D01*
X9911412Y-11473088D01*
X9978588Y-11473088D01*
D11*
X10291372Y-11330984D02*
X10310420Y-11330984D01*
X10310420Y-11330984D02*
X10329467Y-11340508D01*
X10329467Y-11340508D02*
X10338991Y-11350031D01*
X10338991Y-11350031D02*
X10348515Y-11369079D01*
X10348515Y-11369079D02*
X10358039Y-11407174D01*
X10358039Y-11407174D02*
X10358039Y-11454793D01*
X10358039Y-11454793D02*
X10348515Y-11492888D01*
X10348515Y-11492888D02*
X10338991Y-11511936D01*
X10338991Y-11511936D02*
X10329467Y-11521460D01*
X10329467Y-11521460D02*
X10310420Y-11530984D01*
X10310420Y-11530984D02*
X10291372Y-11530984D01*
X10291372Y-11530984D02*
X10272324Y-11521460D01*
X10272324Y-11521460D02*
X10262801Y-11511936D01*
X10262801Y-11511936D02*
X10253277Y-11492888D01*
X10253277Y-11492888D02*
X10243753Y-11454793D01*
X10243753Y-11454793D02*
X10243753Y-11407174D01*
X10243753Y-11407174D02*
X10253277Y-11369079D01*
X10253277Y-11369079D02*
X10262801Y-11350031D01*
X10262801Y-11350031D02*
X10272324Y-11340508D01*
X10272324Y-11340508D02*
X10291372Y-11330984D01*
X10443753Y-11511936D02*
X10453277Y-11521460D01*
X10453277Y-11521460D02*
X10443753Y-11530984D01*
X10443753Y-11530984D02*
X10434229Y-11521460D01*
X10434229Y-11521460D02*
X10443753Y-11511936D01*
X10443753Y-11511936D02*
X10443753Y-11530984D01*
X10548515Y-11530984D02*
X10586610Y-11530984D01*
X10586610Y-11530984D02*
X10605658Y-11521460D01*
X10605658Y-11521460D02*
X10615182Y-11511936D01*
X10615182Y-11511936D02*
X10634229Y-11483365D01*
X10634229Y-11483365D02*
X10643753Y-11445269D01*
X10643753Y-11445269D02*
X10643753Y-11369079D01*
X10643753Y-11369079D02*
X10634229Y-11350031D01*
X10634229Y-11350031D02*
X10624705Y-11340508D01*
X10624705Y-11340508D02*
X10605658Y-11330984D01*
X10605658Y-11330984D02*
X10567563Y-11330984D01*
X10567563Y-11330984D02*
X10548515Y-11340508D01*
X10548515Y-11340508D02*
X10538991Y-11350031D01*
X10538991Y-11350031D02*
X10529467Y-11369079D01*
X10529467Y-11369079D02*
X10529467Y-11416698D01*
X10529467Y-11416698D02*
X10538991Y-11435746D01*
X10538991Y-11435746D02*
X10548515Y-11445269D01*
X10548515Y-11445269D02*
X10567563Y-11454793D01*
X10567563Y-11454793D02*
X10605658Y-11454793D01*
X10605658Y-11454793D02*
X10624705Y-11445269D01*
X10624705Y-11445269D02*
X10634229Y-11435746D01*
X10634229Y-11435746D02*
X10643753Y-11416698D01*
X10824705Y-11330984D02*
X10729467Y-11330984D01*
X10729467Y-11330984D02*
X10719944Y-11426222D01*
X10719944Y-11426222D02*
X10729467Y-11416698D01*
X10729467Y-11416698D02*
X10748515Y-11407174D01*
X10748515Y-11407174D02*
X10796134Y-11407174D01*
X10796134Y-11407174D02*
X10815182Y-11416698D01*
X10815182Y-11416698D02*
X10824705Y-11426222D01*
X10824705Y-11426222D02*
X10834229Y-11445269D01*
X10834229Y-11445269D02*
X10834229Y-11492888D01*
X10834229Y-11492888D02*
X10824705Y-11511936D01*
X10824705Y-11511936D02*
X10815182Y-11521460D01*
X10815182Y-11521460D02*
X10796134Y-11530984D01*
X10796134Y-11530984D02*
X10748515Y-11530984D01*
X10748515Y-11530984D02*
X10729467Y-11521460D01*
X10729467Y-11521460D02*
X10719944Y-11511936D01*
X10958039Y-11330984D02*
X10977086Y-11330984D01*
X10977086Y-11330984D02*
X10996134Y-11340508D01*
X10996134Y-11340508D02*
X11005658Y-11350031D01*
X11005658Y-11350031D02*
X11015182Y-11369079D01*
X11015182Y-11369079D02*
X11024705Y-11407174D01*
X11024705Y-11407174D02*
X11024705Y-11454793D01*
X11024705Y-11454793D02*
X11015182Y-11492888D01*
X11015182Y-11492888D02*
X11005658Y-11511936D01*
X11005658Y-11511936D02*
X10996134Y-11521460D01*
X10996134Y-11521460D02*
X10977086Y-11530984D01*
X10977086Y-11530984D02*
X10958039Y-11530984D01*
X10958039Y-11530984D02*
X10938991Y-11521460D01*
X10938991Y-11521460D02*
X10929467Y-11511936D01*
X10929467Y-11511936D02*
X10919944Y-11492888D01*
X10919944Y-11492888D02*
X10910420Y-11454793D01*
X10910420Y-11454793D02*
X10910420Y-11407174D01*
X10910420Y-11407174D02*
X10919944Y-11369079D01*
X10919944Y-11369079D02*
X10929467Y-11350031D01*
X10929467Y-11350031D02*
X10938991Y-11340508D01*
X10938991Y-11340508D02*
X10958039Y-11330984D01*
X11110420Y-11530984D02*
X11110420Y-11397650D01*
X11110420Y-11416698D02*
X11119944Y-11407174D01*
X11119944Y-11407174D02*
X11138991Y-11397650D01*
X11138991Y-11397650D02*
X11167563Y-11397650D01*
X11167563Y-11397650D02*
X11186610Y-11407174D01*
X11186610Y-11407174D02*
X11196134Y-11426222D01*
X11196134Y-11426222D02*
X11196134Y-11530984D01*
X11196134Y-11426222D02*
X11205658Y-11407174D01*
X11205658Y-11407174D02*
X11224705Y-11397650D01*
X11224705Y-11397650D02*
X11253277Y-11397650D01*
X11253277Y-11397650D02*
X11272324Y-11407174D01*
X11272324Y-11407174D02*
X11281848Y-11426222D01*
X11281848Y-11426222D02*
X11281848Y-11530984D01*
X11377086Y-11530984D02*
X11377086Y-11397650D01*
X11377086Y-11416698D02*
X11386610Y-11407174D01*
X11386610Y-11407174D02*
X11405658Y-11397650D01*
X11405658Y-11397650D02*
X11434229Y-11397650D01*
X11434229Y-11397650D02*
X11453277Y-11407174D01*
X11453277Y-11407174D02*
X11462801Y-11426222D01*
X11462801Y-11426222D02*
X11462801Y-11530984D01*
X11462801Y-11426222D02*
X11472324Y-11407174D01*
X11472324Y-11407174D02*
X11491372Y-11397650D01*
X11491372Y-11397650D02*
X11519943Y-11397650D01*
X11519943Y-11397650D02*
X11538991Y-11407174D01*
X11538991Y-11407174D02*
X11548515Y-11426222D01*
X11548515Y-11426222D02*
X11548515Y-11530984D01*
X11938991Y-11321460D02*
X11767563Y-11578603D01*
X12196134Y-11330984D02*
X12215182Y-11330984D01*
X12215182Y-11330984D02*
X12234229Y-11340508D01*
X12234229Y-11340508D02*
X12243753Y-11350031D01*
X12243753Y-11350031D02*
X12253277Y-11369079D01*
X12253277Y-11369079D02*
X12262801Y-11407174D01*
X12262801Y-11407174D02*
X12262801Y-11454793D01*
X12262801Y-11454793D02*
X12253277Y-11492888D01*
X12253277Y-11492888D02*
X12243753Y-11511936D01*
X12243753Y-11511936D02*
X12234229Y-11521460D01*
X12234229Y-11521460D02*
X12215182Y-11530984D01*
X12215182Y-11530984D02*
X12196134Y-11530984D01*
X12196134Y-11530984D02*
X12177086Y-11521460D01*
X12177086Y-11521460D02*
X12167563Y-11511936D01*
X12167563Y-11511936D02*
X12158039Y-11492888D01*
X12158039Y-11492888D02*
X12148515Y-11454793D01*
X12148515Y-11454793D02*
X12148515Y-11407174D01*
X12148515Y-11407174D02*
X12158039Y-11369079D01*
X12158039Y-11369079D02*
X12167563Y-11350031D01*
X12167563Y-11350031D02*
X12177086Y-11340508D01*
X12177086Y-11340508D02*
X12196134Y-11330984D01*
X12348515Y-11511936D02*
X12358039Y-11521460D01*
X12358039Y-11521460D02*
X12348515Y-11530984D01*
X12348515Y-11530984D02*
X12338991Y-11521460D01*
X12338991Y-11521460D02*
X12348515Y-11511936D01*
X12348515Y-11511936D02*
X12348515Y-11530984D01*
X12481848Y-11330984D02*
X12500896Y-11330984D01*
X12500896Y-11330984D02*
X12519944Y-11340508D01*
X12519944Y-11340508D02*
X12529467Y-11350031D01*
X12529467Y-11350031D02*
X12538991Y-11369079D01*
X12538991Y-11369079D02*
X12548515Y-11407174D01*
X12548515Y-11407174D02*
X12548515Y-11454793D01*
X12548515Y-11454793D02*
X12538991Y-11492888D01*
X12538991Y-11492888D02*
X12529467Y-11511936D01*
X12529467Y-11511936D02*
X12519944Y-11521460D01*
X12519944Y-11521460D02*
X12500896Y-11530984D01*
X12500896Y-11530984D02*
X12481848Y-11530984D01*
X12481848Y-11530984D02*
X12462801Y-11521460D01*
X12462801Y-11521460D02*
X12453277Y-11511936D01*
X12453277Y-11511936D02*
X12443753Y-11492888D01*
X12443753Y-11492888D02*
X12434229Y-11454793D01*
X12434229Y-11454793D02*
X12434229Y-11407174D01*
X12434229Y-11407174D02*
X12443753Y-11369079D01*
X12443753Y-11369079D02*
X12453277Y-11350031D01*
X12453277Y-11350031D02*
X12462801Y-11340508D01*
X12462801Y-11340508D02*
X12481848Y-11330984D01*
X12615182Y-11330984D02*
X12738991Y-11330984D01*
X12738991Y-11330984D02*
X12672325Y-11407174D01*
X12672325Y-11407174D02*
X12700896Y-11407174D01*
X12700896Y-11407174D02*
X12719944Y-11416698D01*
X12719944Y-11416698D02*
X12729467Y-11426222D01*
X12729467Y-11426222D02*
X12738991Y-11445269D01*
X12738991Y-11445269D02*
X12738991Y-11492888D01*
X12738991Y-11492888D02*
X12729467Y-11511936D01*
X12729467Y-11511936D02*
X12719944Y-11521460D01*
X12719944Y-11521460D02*
X12700896Y-11530984D01*
X12700896Y-11530984D02*
X12643753Y-11530984D01*
X12643753Y-11530984D02*
X12624706Y-11521460D01*
X12624706Y-11521460D02*
X12615182Y-11511936D01*
X12805658Y-11330984D02*
X12938991Y-11330984D01*
X12938991Y-11330984D02*
X12853277Y-11530984D01*
X13100896Y-11397650D02*
X13100896Y-11530984D01*
X13053277Y-11321460D02*
X13005658Y-11464317D01*
X13005658Y-11464317D02*
X13129467Y-11464317D01*
X13196134Y-11330984D02*
X13196134Y-11369079D01*
X13272325Y-11330984D02*
X13272325Y-11369079D01*
X13567563Y-11607174D02*
X13558039Y-11597650D01*
X13558039Y-11597650D02*
X13538991Y-11569079D01*
X13538991Y-11569079D02*
X13529468Y-11550031D01*
X13529468Y-11550031D02*
X13519944Y-11521460D01*
X13519944Y-11521460D02*
X13510420Y-11473841D01*
X13510420Y-11473841D02*
X13510420Y-11435746D01*
X13510420Y-11435746D02*
X13519944Y-11388127D01*
X13519944Y-11388127D02*
X13529468Y-11359555D01*
X13529468Y-11359555D02*
X13538991Y-11340508D01*
X13538991Y-11340508D02*
X13558039Y-11311936D01*
X13558039Y-11311936D02*
X13567563Y-11302412D01*
X13624706Y-11330984D02*
X13748515Y-11330984D01*
X13748515Y-11330984D02*
X13681848Y-11407174D01*
X13681848Y-11407174D02*
X13710420Y-11407174D01*
X13710420Y-11407174D02*
X13729468Y-11416698D01*
X13729468Y-11416698D02*
X13738991Y-11426222D01*
X13738991Y-11426222D02*
X13748515Y-11445269D01*
X13748515Y-11445269D02*
X13748515Y-11492888D01*
X13748515Y-11492888D02*
X13738991Y-11511936D01*
X13738991Y-11511936D02*
X13729468Y-11521460D01*
X13729468Y-11521460D02*
X13710420Y-11530984D01*
X13710420Y-11530984D02*
X13653277Y-11530984D01*
X13653277Y-11530984D02*
X13634229Y-11521460D01*
X13634229Y-11521460D02*
X13624706Y-11511936D01*
X13986610Y-11530984D02*
X13986610Y-11330984D01*
X14072325Y-11530984D02*
X14072325Y-11426222D01*
X14072325Y-11426222D02*
X14062801Y-11407174D01*
X14062801Y-11407174D02*
X14043753Y-11397650D01*
X14043753Y-11397650D02*
X14015182Y-11397650D01*
X14015182Y-11397650D02*
X13996134Y-11407174D01*
X13996134Y-11407174D02*
X13986610Y-11416698D01*
X14196134Y-11530984D02*
X14177087Y-11521460D01*
X14177087Y-11521460D02*
X14167563Y-11511936D01*
X14167563Y-11511936D02*
X14158039Y-11492888D01*
X14158039Y-11492888D02*
X14158039Y-11435746D01*
X14158039Y-11435746D02*
X14167563Y-11416698D01*
X14167563Y-11416698D02*
X14177087Y-11407174D01*
X14177087Y-11407174D02*
X14196134Y-11397650D01*
X14196134Y-11397650D02*
X14224706Y-11397650D01*
X14224706Y-11397650D02*
X14243753Y-11407174D01*
X14243753Y-11407174D02*
X14253277Y-11416698D01*
X14253277Y-11416698D02*
X14262801Y-11435746D01*
X14262801Y-11435746D02*
X14262801Y-11492888D01*
X14262801Y-11492888D02*
X14253277Y-11511936D01*
X14253277Y-11511936D02*
X14243753Y-11521460D01*
X14243753Y-11521460D02*
X14224706Y-11530984D01*
X14224706Y-11530984D02*
X14196134Y-11530984D01*
X14377087Y-11530984D02*
X14358039Y-11521460D01*
X14358039Y-11521460D02*
X14348515Y-11502412D01*
X14348515Y-11502412D02*
X14348515Y-11330984D01*
X14529468Y-11521460D02*
X14510420Y-11530984D01*
X14510420Y-11530984D02*
X14472325Y-11530984D01*
X14472325Y-11530984D02*
X14453277Y-11521460D01*
X14453277Y-11521460D02*
X14443753Y-11502412D01*
X14443753Y-11502412D02*
X14443753Y-11426222D01*
X14443753Y-11426222D02*
X14453277Y-11407174D01*
X14453277Y-11407174D02*
X14472325Y-11397650D01*
X14472325Y-11397650D02*
X14510420Y-11397650D01*
X14510420Y-11397650D02*
X14529468Y-11407174D01*
X14529468Y-11407174D02*
X14538991Y-11426222D01*
X14538991Y-11426222D02*
X14538991Y-11445269D01*
X14538991Y-11445269D02*
X14443753Y-11464317D01*
X14615182Y-11521460D02*
X14634230Y-11530984D01*
X14634230Y-11530984D02*
X14672325Y-11530984D01*
X14672325Y-11530984D02*
X14691372Y-11521460D01*
X14691372Y-11521460D02*
X14700896Y-11502412D01*
X14700896Y-11502412D02*
X14700896Y-11492888D01*
X14700896Y-11492888D02*
X14691372Y-11473841D01*
X14691372Y-11473841D02*
X14672325Y-11464317D01*
X14672325Y-11464317D02*
X14643753Y-11464317D01*
X14643753Y-11464317D02*
X14624706Y-11454793D01*
X14624706Y-11454793D02*
X14615182Y-11435746D01*
X14615182Y-11435746D02*
X14615182Y-11426222D01*
X14615182Y-11426222D02*
X14624706Y-11407174D01*
X14624706Y-11407174D02*
X14643753Y-11397650D01*
X14643753Y-11397650D02*
X14672325Y-11397650D01*
X14672325Y-11397650D02*
X14691372Y-11407174D01*
X14767563Y-11607174D02*
X14777087Y-11597650D01*
X14777087Y-11597650D02*
X14796134Y-11569079D01*
X14796134Y-11569079D02*
X14805658Y-11550031D01*
X14805658Y-11550031D02*
X14815182Y-11521460D01*
X14815182Y-11521460D02*
X14824706Y-11473841D01*
X14824706Y-11473841D02*
X14824706Y-11435746D01*
X14824706Y-11435746D02*
X14815182Y-11388127D01*
X14815182Y-11388127D02*
X14805658Y-11359555D01*
X14805658Y-11359555D02*
X14796134Y-11340508D01*
X14796134Y-11340508D02*
X14777087Y-11311936D01*
X14777087Y-11311936D02*
X14767563Y-11302412D01*
D12*
X9942500Y-11753500D02*
X9992500Y-11703500D01*
X9942500Y-11653500D01*
X9892500Y-11703500D01*
X9942500Y-11753500D01*
D11*
X10358039Y-11794984D02*
X10243753Y-11794984D01*
X10300896Y-11794984D02*
X10300896Y-11594984D01*
X10300896Y-11594984D02*
X10281848Y-11623555D01*
X10281848Y-11623555D02*
X10262801Y-11642603D01*
X10262801Y-11642603D02*
X10243753Y-11652127D01*
X10443753Y-11775936D02*
X10453277Y-11785460D01*
X10453277Y-11785460D02*
X10443753Y-11794984D01*
X10443753Y-11794984D02*
X10434229Y-11785460D01*
X10434229Y-11785460D02*
X10443753Y-11775936D01*
X10443753Y-11775936D02*
X10443753Y-11794984D01*
X10577086Y-11594984D02*
X10596134Y-11594984D01*
X10596134Y-11594984D02*
X10615182Y-11604508D01*
X10615182Y-11604508D02*
X10624705Y-11614031D01*
X10624705Y-11614031D02*
X10634229Y-11633079D01*
X10634229Y-11633079D02*
X10643753Y-11671174D01*
X10643753Y-11671174D02*
X10643753Y-11718793D01*
X10643753Y-11718793D02*
X10634229Y-11756888D01*
X10634229Y-11756888D02*
X10624705Y-11775936D01*
X10624705Y-11775936D02*
X10615182Y-11785460D01*
X10615182Y-11785460D02*
X10596134Y-11794984D01*
X10596134Y-11794984D02*
X10577086Y-11794984D01*
X10577086Y-11794984D02*
X10558039Y-11785460D01*
X10558039Y-11785460D02*
X10548515Y-11775936D01*
X10548515Y-11775936D02*
X10538991Y-11756888D01*
X10538991Y-11756888D02*
X10529467Y-11718793D01*
X10529467Y-11718793D02*
X10529467Y-11671174D01*
X10529467Y-11671174D02*
X10538991Y-11633079D01*
X10538991Y-11633079D02*
X10548515Y-11614031D01*
X10548515Y-11614031D02*
X10558039Y-11604508D01*
X10558039Y-11604508D02*
X10577086Y-11594984D01*
X10767563Y-11594984D02*
X10786610Y-11594984D01*
X10786610Y-11594984D02*
X10805658Y-11604508D01*
X10805658Y-11604508D02*
X10815182Y-11614031D01*
X10815182Y-11614031D02*
X10824705Y-11633079D01*
X10824705Y-11633079D02*
X10834229Y-11671174D01*
X10834229Y-11671174D02*
X10834229Y-11718793D01*
X10834229Y-11718793D02*
X10824705Y-11756888D01*
X10824705Y-11756888D02*
X10815182Y-11775936D01*
X10815182Y-11775936D02*
X10805658Y-11785460D01*
X10805658Y-11785460D02*
X10786610Y-11794984D01*
X10786610Y-11794984D02*
X10767563Y-11794984D01*
X10767563Y-11794984D02*
X10748515Y-11785460D01*
X10748515Y-11785460D02*
X10738991Y-11775936D01*
X10738991Y-11775936D02*
X10729467Y-11756888D01*
X10729467Y-11756888D02*
X10719944Y-11718793D01*
X10719944Y-11718793D02*
X10719944Y-11671174D01*
X10719944Y-11671174D02*
X10729467Y-11633079D01*
X10729467Y-11633079D02*
X10738991Y-11614031D01*
X10738991Y-11614031D02*
X10748515Y-11604508D01*
X10748515Y-11604508D02*
X10767563Y-11594984D01*
X10958039Y-11594984D02*
X10977086Y-11594984D01*
X10977086Y-11594984D02*
X10996134Y-11604508D01*
X10996134Y-11604508D02*
X11005658Y-11614031D01*
X11005658Y-11614031D02*
X11015182Y-11633079D01*
X11015182Y-11633079D02*
X11024705Y-11671174D01*
X11024705Y-11671174D02*
X11024705Y-11718793D01*
X11024705Y-11718793D02*
X11015182Y-11756888D01*
X11015182Y-11756888D02*
X11005658Y-11775936D01*
X11005658Y-11775936D02*
X10996134Y-11785460D01*
X10996134Y-11785460D02*
X10977086Y-11794984D01*
X10977086Y-11794984D02*
X10958039Y-11794984D01*
X10958039Y-11794984D02*
X10938991Y-11785460D01*
X10938991Y-11785460D02*
X10929467Y-11775936D01*
X10929467Y-11775936D02*
X10919944Y-11756888D01*
X10919944Y-11756888D02*
X10910420Y-11718793D01*
X10910420Y-11718793D02*
X10910420Y-11671174D01*
X10910420Y-11671174D02*
X10919944Y-11633079D01*
X10919944Y-11633079D02*
X10929467Y-11614031D01*
X10929467Y-11614031D02*
X10938991Y-11604508D01*
X10938991Y-11604508D02*
X10958039Y-11594984D01*
X11110420Y-11794984D02*
X11110420Y-11661650D01*
X11110420Y-11680698D02*
X11119944Y-11671174D01*
X11119944Y-11671174D02*
X11138991Y-11661650D01*
X11138991Y-11661650D02*
X11167563Y-11661650D01*
X11167563Y-11661650D02*
X11186610Y-11671174D01*
X11186610Y-11671174D02*
X11196134Y-11690222D01*
X11196134Y-11690222D02*
X11196134Y-11794984D01*
X11196134Y-11690222D02*
X11205658Y-11671174D01*
X11205658Y-11671174D02*
X11224705Y-11661650D01*
X11224705Y-11661650D02*
X11253277Y-11661650D01*
X11253277Y-11661650D02*
X11272324Y-11671174D01*
X11272324Y-11671174D02*
X11281848Y-11690222D01*
X11281848Y-11690222D02*
X11281848Y-11794984D01*
X11377086Y-11794984D02*
X11377086Y-11661650D01*
X11377086Y-11680698D02*
X11386610Y-11671174D01*
X11386610Y-11671174D02*
X11405658Y-11661650D01*
X11405658Y-11661650D02*
X11434229Y-11661650D01*
X11434229Y-11661650D02*
X11453277Y-11671174D01*
X11453277Y-11671174D02*
X11462801Y-11690222D01*
X11462801Y-11690222D02*
X11462801Y-11794984D01*
X11462801Y-11690222D02*
X11472324Y-11671174D01*
X11472324Y-11671174D02*
X11491372Y-11661650D01*
X11491372Y-11661650D02*
X11519943Y-11661650D01*
X11519943Y-11661650D02*
X11538991Y-11671174D01*
X11538991Y-11671174D02*
X11548515Y-11690222D01*
X11548515Y-11690222D02*
X11548515Y-11794984D01*
X11938991Y-11585460D02*
X11767563Y-11842603D01*
X12196134Y-11594984D02*
X12215182Y-11594984D01*
X12215182Y-11594984D02*
X12234229Y-11604508D01*
X12234229Y-11604508D02*
X12243753Y-11614031D01*
X12243753Y-11614031D02*
X12253277Y-11633079D01*
X12253277Y-11633079D02*
X12262801Y-11671174D01*
X12262801Y-11671174D02*
X12262801Y-11718793D01*
X12262801Y-11718793D02*
X12253277Y-11756888D01*
X12253277Y-11756888D02*
X12243753Y-11775936D01*
X12243753Y-11775936D02*
X12234229Y-11785460D01*
X12234229Y-11785460D02*
X12215182Y-11794984D01*
X12215182Y-11794984D02*
X12196134Y-11794984D01*
X12196134Y-11794984D02*
X12177086Y-11785460D01*
X12177086Y-11785460D02*
X12167563Y-11775936D01*
X12167563Y-11775936D02*
X12158039Y-11756888D01*
X12158039Y-11756888D02*
X12148515Y-11718793D01*
X12148515Y-11718793D02*
X12148515Y-11671174D01*
X12148515Y-11671174D02*
X12158039Y-11633079D01*
X12158039Y-11633079D02*
X12167563Y-11614031D01*
X12167563Y-11614031D02*
X12177086Y-11604508D01*
X12177086Y-11604508D02*
X12196134Y-11594984D01*
X12348515Y-11775936D02*
X12358039Y-11785460D01*
X12358039Y-11785460D02*
X12348515Y-11794984D01*
X12348515Y-11794984D02*
X12338991Y-11785460D01*
X12338991Y-11785460D02*
X12348515Y-11775936D01*
X12348515Y-11775936D02*
X12348515Y-11794984D01*
X12481848Y-11594984D02*
X12500896Y-11594984D01*
X12500896Y-11594984D02*
X12519944Y-11604508D01*
X12519944Y-11604508D02*
X12529467Y-11614031D01*
X12529467Y-11614031D02*
X12538991Y-11633079D01*
X12538991Y-11633079D02*
X12548515Y-11671174D01*
X12548515Y-11671174D02*
X12548515Y-11718793D01*
X12548515Y-11718793D02*
X12538991Y-11756888D01*
X12538991Y-11756888D02*
X12529467Y-11775936D01*
X12529467Y-11775936D02*
X12519944Y-11785460D01*
X12519944Y-11785460D02*
X12500896Y-11794984D01*
X12500896Y-11794984D02*
X12481848Y-11794984D01*
X12481848Y-11794984D02*
X12462801Y-11785460D01*
X12462801Y-11785460D02*
X12453277Y-11775936D01*
X12453277Y-11775936D02*
X12443753Y-11756888D01*
X12443753Y-11756888D02*
X12434229Y-11718793D01*
X12434229Y-11718793D02*
X12434229Y-11671174D01*
X12434229Y-11671174D02*
X12443753Y-11633079D01*
X12443753Y-11633079D02*
X12453277Y-11614031D01*
X12453277Y-11614031D02*
X12462801Y-11604508D01*
X12462801Y-11604508D02*
X12481848Y-11594984D01*
X12615182Y-11594984D02*
X12738991Y-11594984D01*
X12738991Y-11594984D02*
X12672325Y-11671174D01*
X12672325Y-11671174D02*
X12700896Y-11671174D01*
X12700896Y-11671174D02*
X12719944Y-11680698D01*
X12719944Y-11680698D02*
X12729467Y-11690222D01*
X12729467Y-11690222D02*
X12738991Y-11709269D01*
X12738991Y-11709269D02*
X12738991Y-11756888D01*
X12738991Y-11756888D02*
X12729467Y-11775936D01*
X12729467Y-11775936D02*
X12719944Y-11785460D01*
X12719944Y-11785460D02*
X12700896Y-11794984D01*
X12700896Y-11794984D02*
X12643753Y-11794984D01*
X12643753Y-11794984D02*
X12624706Y-11785460D01*
X12624706Y-11785460D02*
X12615182Y-11775936D01*
X12834229Y-11794984D02*
X12872325Y-11794984D01*
X12872325Y-11794984D02*
X12891372Y-11785460D01*
X12891372Y-11785460D02*
X12900896Y-11775936D01*
X12900896Y-11775936D02*
X12919944Y-11747365D01*
X12919944Y-11747365D02*
X12929467Y-11709269D01*
X12929467Y-11709269D02*
X12929467Y-11633079D01*
X12929467Y-11633079D02*
X12919944Y-11614031D01*
X12919944Y-11614031D02*
X12910420Y-11604508D01*
X12910420Y-11604508D02*
X12891372Y-11594984D01*
X12891372Y-11594984D02*
X12853277Y-11594984D01*
X12853277Y-11594984D02*
X12834229Y-11604508D01*
X12834229Y-11604508D02*
X12824706Y-11614031D01*
X12824706Y-11614031D02*
X12815182Y-11633079D01*
X12815182Y-11633079D02*
X12815182Y-11680698D01*
X12815182Y-11680698D02*
X12824706Y-11699746D01*
X12824706Y-11699746D02*
X12834229Y-11709269D01*
X12834229Y-11709269D02*
X12853277Y-11718793D01*
X12853277Y-11718793D02*
X12891372Y-11718793D01*
X12891372Y-11718793D02*
X12910420Y-11709269D01*
X12910420Y-11709269D02*
X12919944Y-11699746D01*
X12919944Y-11699746D02*
X12929467Y-11680698D01*
X13100896Y-11661650D02*
X13100896Y-11794984D01*
X13053277Y-11585460D02*
X13005658Y-11728317D01*
X13005658Y-11728317D02*
X13129467Y-11728317D01*
X13196134Y-11594984D02*
X13196134Y-11633079D01*
X13272325Y-11594984D02*
X13272325Y-11633079D01*
X13567563Y-11871174D02*
X13558039Y-11861650D01*
X13558039Y-11861650D02*
X13538991Y-11833079D01*
X13538991Y-11833079D02*
X13529468Y-11814031D01*
X13529468Y-11814031D02*
X13519944Y-11785460D01*
X13519944Y-11785460D02*
X13510420Y-11737841D01*
X13510420Y-11737841D02*
X13510420Y-11699746D01*
X13510420Y-11699746D02*
X13519944Y-11652127D01*
X13519944Y-11652127D02*
X13529468Y-11623555D01*
X13529468Y-11623555D02*
X13538991Y-11604508D01*
X13538991Y-11604508D02*
X13558039Y-11575936D01*
X13558039Y-11575936D02*
X13567563Y-11566412D01*
X13729468Y-11661650D02*
X13729468Y-11794984D01*
X13681848Y-11585460D02*
X13634229Y-11728317D01*
X13634229Y-11728317D02*
X13758039Y-11728317D01*
X13919944Y-11661650D02*
X13919944Y-11794984D01*
X13872325Y-11585460D02*
X13824706Y-11728317D01*
X13824706Y-11728317D02*
X13948515Y-11728317D01*
X14177087Y-11794984D02*
X14177087Y-11594984D01*
X14262801Y-11794984D02*
X14262801Y-11690222D01*
X14262801Y-11690222D02*
X14253277Y-11671174D01*
X14253277Y-11671174D02*
X14234230Y-11661650D01*
X14234230Y-11661650D02*
X14205658Y-11661650D01*
X14205658Y-11661650D02*
X14186610Y-11671174D01*
X14186610Y-11671174D02*
X14177087Y-11680698D01*
X14386610Y-11794984D02*
X14367563Y-11785460D01*
X14367563Y-11785460D02*
X14358039Y-11775936D01*
X14358039Y-11775936D02*
X14348515Y-11756888D01*
X14348515Y-11756888D02*
X14348515Y-11699746D01*
X14348515Y-11699746D02*
X14358039Y-11680698D01*
X14358039Y-11680698D02*
X14367563Y-11671174D01*
X14367563Y-11671174D02*
X14386610Y-11661650D01*
X14386610Y-11661650D02*
X14415182Y-11661650D01*
X14415182Y-11661650D02*
X14434230Y-11671174D01*
X14434230Y-11671174D02*
X14443753Y-11680698D01*
X14443753Y-11680698D02*
X14453277Y-11699746D01*
X14453277Y-11699746D02*
X14453277Y-11756888D01*
X14453277Y-11756888D02*
X14443753Y-11775936D01*
X14443753Y-11775936D02*
X14434230Y-11785460D01*
X14434230Y-11785460D02*
X14415182Y-11794984D01*
X14415182Y-11794984D02*
X14386610Y-11794984D01*
X14567563Y-11794984D02*
X14548515Y-11785460D01*
X14548515Y-11785460D02*
X14538991Y-11766412D01*
X14538991Y-11766412D02*
X14538991Y-11594984D01*
X14719944Y-11785460D02*
X14700896Y-11794984D01*
X14700896Y-11794984D02*
X14662801Y-11794984D01*
X14662801Y-11794984D02*
X14643753Y-11785460D01*
X14643753Y-11785460D02*
X14634230Y-11766412D01*
X14634230Y-11766412D02*
X14634230Y-11690222D01*
X14634230Y-11690222D02*
X14643753Y-11671174D01*
X14643753Y-11671174D02*
X14662801Y-11661650D01*
X14662801Y-11661650D02*
X14700896Y-11661650D01*
X14700896Y-11661650D02*
X14719944Y-11671174D01*
X14719944Y-11671174D02*
X14729468Y-11690222D01*
X14729468Y-11690222D02*
X14729468Y-11709269D01*
X14729468Y-11709269D02*
X14634230Y-11728317D01*
X14805658Y-11785460D02*
X14824706Y-11794984D01*
X14824706Y-11794984D02*
X14862801Y-11794984D01*
X14862801Y-11794984D02*
X14881849Y-11785460D01*
X14881849Y-11785460D02*
X14891372Y-11766412D01*
X14891372Y-11766412D02*
X14891372Y-11756888D01*
X14891372Y-11756888D02*
X14881849Y-11737841D01*
X14881849Y-11737841D02*
X14862801Y-11728317D01*
X14862801Y-11728317D02*
X14834230Y-11728317D01*
X14834230Y-11728317D02*
X14815182Y-11718793D01*
X14815182Y-11718793D02*
X14805658Y-11699746D01*
X14805658Y-11699746D02*
X14805658Y-11690222D01*
X14805658Y-11690222D02*
X14815182Y-11671174D01*
X14815182Y-11671174D02*
X14834230Y-11661650D01*
X14834230Y-11661650D02*
X14862801Y-11661650D01*
X14862801Y-11661650D02*
X14881849Y-11671174D01*
X14958039Y-11871174D02*
X14967563Y-11861650D01*
X14967563Y-11861650D02*
X14986611Y-11833079D01*
X14986611Y-11833079D02*
X14996134Y-11814031D01*
X14996134Y-11814031D02*
X15005658Y-11785460D01*
X15005658Y-11785460D02*
X15015182Y-11737841D01*
X15015182Y-11737841D02*
X15015182Y-11699746D01*
X15015182Y-11699746D02*
X15005658Y-11652127D01*
X15005658Y-11652127D02*
X14996134Y-11623555D01*
X14996134Y-11623555D02*
X14986611Y-11604508D01*
X14986611Y-11604508D02*
X14967563Y-11575936D01*
X14967563Y-11575936D02*
X14958039Y-11566412D01*
D13*
X9882500Y-11912500D02*
X9992500Y-12022500D01*
X9992500Y-11912500D02*
X9882500Y-12022500D01*
X9992500Y-11967500D02*
G75*
G02*
X9882500Y-11967500I-55000J0D01*
G01*
X9882500Y-11967500D02*
G75*
G02*
X9992500Y-11967500I55000J0D01*
G01*
D11*
X10358039Y-12058984D02*
X10243753Y-12058984D01*
X10300896Y-12058984D02*
X10300896Y-11858984D01*
X10300896Y-11858984D02*
X10281848Y-11887555D01*
X10281848Y-11887555D02*
X10262801Y-11906603D01*
X10262801Y-11906603D02*
X10243753Y-11916127D01*
X10443753Y-12039936D02*
X10453277Y-12049460D01*
X10453277Y-12049460D02*
X10443753Y-12058984D01*
X10443753Y-12058984D02*
X10434229Y-12049460D01*
X10434229Y-12049460D02*
X10443753Y-12039936D01*
X10443753Y-12039936D02*
X10443753Y-12058984D01*
X10643753Y-12058984D02*
X10529467Y-12058984D01*
X10586610Y-12058984D02*
X10586610Y-11858984D01*
X10586610Y-11858984D02*
X10567563Y-11887555D01*
X10567563Y-11887555D02*
X10548515Y-11906603D01*
X10548515Y-11906603D02*
X10529467Y-11916127D01*
X10767563Y-11858984D02*
X10786610Y-11858984D01*
X10786610Y-11858984D02*
X10805658Y-11868508D01*
X10805658Y-11868508D02*
X10815182Y-11878031D01*
X10815182Y-11878031D02*
X10824705Y-11897079D01*
X10824705Y-11897079D02*
X10834229Y-11935174D01*
X10834229Y-11935174D02*
X10834229Y-11982793D01*
X10834229Y-11982793D02*
X10824705Y-12020888D01*
X10824705Y-12020888D02*
X10815182Y-12039936D01*
X10815182Y-12039936D02*
X10805658Y-12049460D01*
X10805658Y-12049460D02*
X10786610Y-12058984D01*
X10786610Y-12058984D02*
X10767563Y-12058984D01*
X10767563Y-12058984D02*
X10748515Y-12049460D01*
X10748515Y-12049460D02*
X10738991Y-12039936D01*
X10738991Y-12039936D02*
X10729467Y-12020888D01*
X10729467Y-12020888D02*
X10719944Y-11982793D01*
X10719944Y-11982793D02*
X10719944Y-11935174D01*
X10719944Y-11935174D02*
X10729467Y-11897079D01*
X10729467Y-11897079D02*
X10738991Y-11878031D01*
X10738991Y-11878031D02*
X10748515Y-11868508D01*
X10748515Y-11868508D02*
X10767563Y-11858984D01*
X10958039Y-11858984D02*
X10977086Y-11858984D01*
X10977086Y-11858984D02*
X10996134Y-11868508D01*
X10996134Y-11868508D02*
X11005658Y-11878031D01*
X11005658Y-11878031D02*
X11015182Y-11897079D01*
X11015182Y-11897079D02*
X11024705Y-11935174D01*
X11024705Y-11935174D02*
X11024705Y-11982793D01*
X11024705Y-11982793D02*
X11015182Y-12020888D01*
X11015182Y-12020888D02*
X11005658Y-12039936D01*
X11005658Y-12039936D02*
X10996134Y-12049460D01*
X10996134Y-12049460D02*
X10977086Y-12058984D01*
X10977086Y-12058984D02*
X10958039Y-12058984D01*
X10958039Y-12058984D02*
X10938991Y-12049460D01*
X10938991Y-12049460D02*
X10929467Y-12039936D01*
X10929467Y-12039936D02*
X10919944Y-12020888D01*
X10919944Y-12020888D02*
X10910420Y-11982793D01*
X10910420Y-11982793D02*
X10910420Y-11935174D01*
X10910420Y-11935174D02*
X10919944Y-11897079D01*
X10919944Y-11897079D02*
X10929467Y-11878031D01*
X10929467Y-11878031D02*
X10938991Y-11868508D01*
X10938991Y-11868508D02*
X10958039Y-11858984D01*
X11110420Y-12058984D02*
X11110420Y-11925650D01*
X11110420Y-11944698D02*
X11119944Y-11935174D01*
X11119944Y-11935174D02*
X11138991Y-11925650D01*
X11138991Y-11925650D02*
X11167563Y-11925650D01*
X11167563Y-11925650D02*
X11186610Y-11935174D01*
X11186610Y-11935174D02*
X11196134Y-11954222D01*
X11196134Y-11954222D02*
X11196134Y-12058984D01*
X11196134Y-11954222D02*
X11205658Y-11935174D01*
X11205658Y-11935174D02*
X11224705Y-11925650D01*
X11224705Y-11925650D02*
X11253277Y-11925650D01*
X11253277Y-11925650D02*
X11272324Y-11935174D01*
X11272324Y-11935174D02*
X11281848Y-11954222D01*
X11281848Y-11954222D02*
X11281848Y-12058984D01*
X11377086Y-12058984D02*
X11377086Y-11925650D01*
X11377086Y-11944698D02*
X11386610Y-11935174D01*
X11386610Y-11935174D02*
X11405658Y-11925650D01*
X11405658Y-11925650D02*
X11434229Y-11925650D01*
X11434229Y-11925650D02*
X11453277Y-11935174D01*
X11453277Y-11935174D02*
X11462801Y-11954222D01*
X11462801Y-11954222D02*
X11462801Y-12058984D01*
X11462801Y-11954222D02*
X11472324Y-11935174D01*
X11472324Y-11935174D02*
X11491372Y-11925650D01*
X11491372Y-11925650D02*
X11519943Y-11925650D01*
X11519943Y-11925650D02*
X11538991Y-11935174D01*
X11538991Y-11935174D02*
X11548515Y-11954222D01*
X11548515Y-11954222D02*
X11548515Y-12058984D01*
X11938991Y-11849460D02*
X11767563Y-12106603D01*
X12196134Y-11858984D02*
X12215182Y-11858984D01*
X12215182Y-11858984D02*
X12234229Y-11868508D01*
X12234229Y-11868508D02*
X12243753Y-11878031D01*
X12243753Y-11878031D02*
X12253277Y-11897079D01*
X12253277Y-11897079D02*
X12262801Y-11935174D01*
X12262801Y-11935174D02*
X12262801Y-11982793D01*
X12262801Y-11982793D02*
X12253277Y-12020888D01*
X12253277Y-12020888D02*
X12243753Y-12039936D01*
X12243753Y-12039936D02*
X12234229Y-12049460D01*
X12234229Y-12049460D02*
X12215182Y-12058984D01*
X12215182Y-12058984D02*
X12196134Y-12058984D01*
X12196134Y-12058984D02*
X12177086Y-12049460D01*
X12177086Y-12049460D02*
X12167563Y-12039936D01*
X12167563Y-12039936D02*
X12158039Y-12020888D01*
X12158039Y-12020888D02*
X12148515Y-11982793D01*
X12148515Y-11982793D02*
X12148515Y-11935174D01*
X12148515Y-11935174D02*
X12158039Y-11897079D01*
X12158039Y-11897079D02*
X12167563Y-11878031D01*
X12167563Y-11878031D02*
X12177086Y-11868508D01*
X12177086Y-11868508D02*
X12196134Y-11858984D01*
X12348515Y-12039936D02*
X12358039Y-12049460D01*
X12358039Y-12049460D02*
X12348515Y-12058984D01*
X12348515Y-12058984D02*
X12338991Y-12049460D01*
X12338991Y-12049460D02*
X12348515Y-12039936D01*
X12348515Y-12039936D02*
X12348515Y-12058984D01*
X12481848Y-11858984D02*
X12500896Y-11858984D01*
X12500896Y-11858984D02*
X12519944Y-11868508D01*
X12519944Y-11868508D02*
X12529467Y-11878031D01*
X12529467Y-11878031D02*
X12538991Y-11897079D01*
X12538991Y-11897079D02*
X12548515Y-11935174D01*
X12548515Y-11935174D02*
X12548515Y-11982793D01*
X12548515Y-11982793D02*
X12538991Y-12020888D01*
X12538991Y-12020888D02*
X12529467Y-12039936D01*
X12529467Y-12039936D02*
X12519944Y-12049460D01*
X12519944Y-12049460D02*
X12500896Y-12058984D01*
X12500896Y-12058984D02*
X12481848Y-12058984D01*
X12481848Y-12058984D02*
X12462801Y-12049460D01*
X12462801Y-12049460D02*
X12453277Y-12039936D01*
X12453277Y-12039936D02*
X12443753Y-12020888D01*
X12443753Y-12020888D02*
X12434229Y-11982793D01*
X12434229Y-11982793D02*
X12434229Y-11935174D01*
X12434229Y-11935174D02*
X12443753Y-11897079D01*
X12443753Y-11897079D02*
X12453277Y-11878031D01*
X12453277Y-11878031D02*
X12462801Y-11868508D01*
X12462801Y-11868508D02*
X12481848Y-11858984D01*
X12719944Y-11925650D02*
X12719944Y-12058984D01*
X12672325Y-11849460D02*
X12624706Y-11992317D01*
X12624706Y-11992317D02*
X12748515Y-11992317D01*
X12805658Y-11858984D02*
X12929467Y-11858984D01*
X12929467Y-11858984D02*
X12862801Y-11935174D01*
X12862801Y-11935174D02*
X12891372Y-11935174D01*
X12891372Y-11935174D02*
X12910420Y-11944698D01*
X12910420Y-11944698D02*
X12919944Y-11954222D01*
X12919944Y-11954222D02*
X12929467Y-11973269D01*
X12929467Y-11973269D02*
X12929467Y-12020888D01*
X12929467Y-12020888D02*
X12919944Y-12039936D01*
X12919944Y-12039936D02*
X12910420Y-12049460D01*
X12910420Y-12049460D02*
X12891372Y-12058984D01*
X12891372Y-12058984D02*
X12834229Y-12058984D01*
X12834229Y-12058984D02*
X12815182Y-12049460D01*
X12815182Y-12049460D02*
X12805658Y-12039936D01*
X12996134Y-11858984D02*
X13119944Y-11858984D01*
X13119944Y-11858984D02*
X13053277Y-11935174D01*
X13053277Y-11935174D02*
X13081848Y-11935174D01*
X13081848Y-11935174D02*
X13100896Y-11944698D01*
X13100896Y-11944698D02*
X13110420Y-11954222D01*
X13110420Y-11954222D02*
X13119944Y-11973269D01*
X13119944Y-11973269D02*
X13119944Y-12020888D01*
X13119944Y-12020888D02*
X13110420Y-12039936D01*
X13110420Y-12039936D02*
X13100896Y-12049460D01*
X13100896Y-12049460D02*
X13081848Y-12058984D01*
X13081848Y-12058984D02*
X13024706Y-12058984D01*
X13024706Y-12058984D02*
X13005658Y-12049460D01*
X13005658Y-12049460D02*
X12996134Y-12039936D01*
X13196134Y-11858984D02*
X13196134Y-11897079D01*
X13272325Y-11858984D02*
X13272325Y-11897079D01*
X13567563Y-12135174D02*
X13558039Y-12125650D01*
X13558039Y-12125650D02*
X13538991Y-12097079D01*
X13538991Y-12097079D02*
X13529468Y-12078031D01*
X13529468Y-12078031D02*
X13519944Y-12049460D01*
X13519944Y-12049460D02*
X13510420Y-12001841D01*
X13510420Y-12001841D02*
X13510420Y-11963746D01*
X13510420Y-11963746D02*
X13519944Y-11916127D01*
X13519944Y-11916127D02*
X13529468Y-11887555D01*
X13529468Y-11887555D02*
X13538991Y-11868508D01*
X13538991Y-11868508D02*
X13558039Y-11839936D01*
X13558039Y-11839936D02*
X13567563Y-11830412D01*
X13634229Y-11878031D02*
X13643753Y-11868508D01*
X13643753Y-11868508D02*
X13662801Y-11858984D01*
X13662801Y-11858984D02*
X13710420Y-11858984D01*
X13710420Y-11858984D02*
X13729468Y-11868508D01*
X13729468Y-11868508D02*
X13738991Y-11878031D01*
X13738991Y-11878031D02*
X13748515Y-11897079D01*
X13748515Y-11897079D02*
X13748515Y-11916127D01*
X13748515Y-11916127D02*
X13738991Y-11944698D01*
X13738991Y-11944698D02*
X13624706Y-12058984D01*
X13624706Y-12058984D02*
X13748515Y-12058984D01*
X13872325Y-11858984D02*
X13891372Y-11858984D01*
X13891372Y-11858984D02*
X13910420Y-11868508D01*
X13910420Y-11868508D02*
X13919944Y-11878031D01*
X13919944Y-11878031D02*
X13929468Y-11897079D01*
X13929468Y-11897079D02*
X13938991Y-11935174D01*
X13938991Y-11935174D02*
X13938991Y-11982793D01*
X13938991Y-11982793D02*
X13929468Y-12020888D01*
X13929468Y-12020888D02*
X13919944Y-12039936D01*
X13919944Y-12039936D02*
X13910420Y-12049460D01*
X13910420Y-12049460D02*
X13891372Y-12058984D01*
X13891372Y-12058984D02*
X13872325Y-12058984D01*
X13872325Y-12058984D02*
X13853277Y-12049460D01*
X13853277Y-12049460D02*
X13843753Y-12039936D01*
X13843753Y-12039936D02*
X13834229Y-12020888D01*
X13834229Y-12020888D02*
X13824706Y-11982793D01*
X13824706Y-11982793D02*
X13824706Y-11935174D01*
X13824706Y-11935174D02*
X13834229Y-11897079D01*
X13834229Y-11897079D02*
X13843753Y-11878031D01*
X13843753Y-11878031D02*
X13853277Y-11868508D01*
X13853277Y-11868508D02*
X13872325Y-11858984D01*
X14177087Y-12058984D02*
X14177087Y-11858984D01*
X14262801Y-12058984D02*
X14262801Y-11954222D01*
X14262801Y-11954222D02*
X14253277Y-11935174D01*
X14253277Y-11935174D02*
X14234230Y-11925650D01*
X14234230Y-11925650D02*
X14205658Y-11925650D01*
X14205658Y-11925650D02*
X14186610Y-11935174D01*
X14186610Y-11935174D02*
X14177087Y-11944698D01*
X14386610Y-12058984D02*
X14367563Y-12049460D01*
X14367563Y-12049460D02*
X14358039Y-12039936D01*
X14358039Y-12039936D02*
X14348515Y-12020888D01*
X14348515Y-12020888D02*
X14348515Y-11963746D01*
X14348515Y-11963746D02*
X14358039Y-11944698D01*
X14358039Y-11944698D02*
X14367563Y-11935174D01*
X14367563Y-11935174D02*
X14386610Y-11925650D01*
X14386610Y-11925650D02*
X14415182Y-11925650D01*
X14415182Y-11925650D02*
X14434230Y-11935174D01*
X14434230Y-11935174D02*
X14443753Y-11944698D01*
X14443753Y-11944698D02*
X14453277Y-11963746D01*
X14453277Y-11963746D02*
X14453277Y-12020888D01*
X14453277Y-12020888D02*
X14443753Y-12039936D01*
X14443753Y-12039936D02*
X14434230Y-12049460D01*
X14434230Y-12049460D02*
X14415182Y-12058984D01*
X14415182Y-12058984D02*
X14386610Y-12058984D01*
X14567563Y-12058984D02*
X14548515Y-12049460D01*
X14548515Y-12049460D02*
X14538991Y-12030412D01*
X14538991Y-12030412D02*
X14538991Y-11858984D01*
X14719944Y-12049460D02*
X14700896Y-12058984D01*
X14700896Y-12058984D02*
X14662801Y-12058984D01*
X14662801Y-12058984D02*
X14643753Y-12049460D01*
X14643753Y-12049460D02*
X14634230Y-12030412D01*
X14634230Y-12030412D02*
X14634230Y-11954222D01*
X14634230Y-11954222D02*
X14643753Y-11935174D01*
X14643753Y-11935174D02*
X14662801Y-11925650D01*
X14662801Y-11925650D02*
X14700896Y-11925650D01*
X14700896Y-11925650D02*
X14719944Y-11935174D01*
X14719944Y-11935174D02*
X14729468Y-11954222D01*
X14729468Y-11954222D02*
X14729468Y-11973269D01*
X14729468Y-11973269D02*
X14634230Y-11992317D01*
X14805658Y-12049460D02*
X14824706Y-12058984D01*
X14824706Y-12058984D02*
X14862801Y-12058984D01*
X14862801Y-12058984D02*
X14881849Y-12049460D01*
X14881849Y-12049460D02*
X14891372Y-12030412D01*
X14891372Y-12030412D02*
X14891372Y-12020888D01*
X14891372Y-12020888D02*
X14881849Y-12001841D01*
X14881849Y-12001841D02*
X14862801Y-11992317D01*
X14862801Y-11992317D02*
X14834230Y-11992317D01*
X14834230Y-11992317D02*
X14815182Y-11982793D01*
X14815182Y-11982793D02*
X14805658Y-11963746D01*
X14805658Y-11963746D02*
X14805658Y-11954222D01*
X14805658Y-11954222D02*
X14815182Y-11935174D01*
X14815182Y-11935174D02*
X14834230Y-11925650D01*
X14834230Y-11925650D02*
X14862801Y-11925650D01*
X14862801Y-11925650D02*
X14881849Y-11935174D01*
X14958039Y-12135174D02*
X14967563Y-12125650D01*
X14967563Y-12125650D02*
X14986611Y-12097079D01*
X14986611Y-12097079D02*
X14996134Y-12078031D01*
X14996134Y-12078031D02*
X15005658Y-12049460D01*
X15005658Y-12049460D02*
X15015182Y-12001841D01*
X15015182Y-12001841D02*
X15015182Y-11963746D01*
X15015182Y-11963746D02*
X15005658Y-11916127D01*
X15005658Y-11916127D02*
X14996134Y-11887555D01*
X14996134Y-11887555D02*
X14986611Y-11868508D01*
X14986611Y-11868508D02*
X14967563Y-11839936D01*
X14967563Y-11839936D02*
X14958039Y-11830412D01*
M02*
