M48
; DRILL file {KiCad 8.0.8} date 2025-02-03T17:03:38-0700
; FORMAT={-:-/ absolute / inch / decimal}
; #@! TF.CreationDate,2025-02-03T17:03:38-07:00
; #@! TF.GenerationSoftware,Kicad,Pcbnew,8.0.8
; #@! TF.FileFunction,Plated,1,2,PTH
FMAT,2
INCH
; #@! TA.AperFunction,Plated,PTH,ViaDrill
T1C0.0157
; #@! TA.AperFunction,Plated,PTH,ComponentDrill
T2C0.0315
; #@! TA.AperFunction,Plated,PTH,ComponentDrill
T3C0.0354
; #@! TA.AperFunction,Plated,PTH,ComponentDrill
T4C0.0374
; #@! TA.AperFunction,Plated,PTH,ComponentDrill
T5C0.0394
; #@! TA.AperFunction,Plated,PTH,ComponentDrill
T6C0.0433
%
G90
G05
T1
X4.3195Y-2.59
X4.626Y-2.0669
X5.3543Y-3.5433
X5.3937Y-3.7402
X5.5118Y-3.7126
X5.6496Y-2.3819
X5.7677Y-3.5827
X5.8661Y-2.3425
X5.9252Y-2.1654
X5.9843Y-2.2244
X6.063Y-3.1102
X6.122Y-3.7402
X6.4173Y-2.4803
X6.437Y-2.5787
X6.4961Y-2.4213
T2
X5.3087Y-3.6417
X5.3874Y-2.4606
X5.4299Y-3.0315
X5.7087Y-3.6417
X5.7874Y-2.4606
X5.8299Y-3.0315
X5.8795Y-3.6614
X5.9386Y-3.0315
X6.2795Y-3.6614
X6.2998Y-3.2465
X6.2998Y-3.4465
X6.3386Y-3.0315
X6.3998Y-3.3465
X6.5354Y-2.5331
X6.5354Y-2.9331
T3
X5.5906Y-2.1654
X5.5906Y-2.2654
T4
X6.1811Y-2.185
X6.1811Y-2.2835
X6.1811Y-2.3819
T5
X4.1685Y-2.5
X4.2685Y-2.5
X4.3685Y-2.5
X4.3976Y-2.6762
X4.4685Y-2.5
X4.4976Y-2.6762
X4.5685Y-2.5
X4.5976Y-2.6762
X4.6685Y-2.5
X4.677Y-1.937
X4.6976Y-2.6762
X4.7685Y-2.5
X4.777Y-1.937
X4.8685Y-2.5
X4.877Y-1.937
X4.977Y-1.937
X5.037Y-3.837
X5.077Y-1.937
X5.137Y-3.837
X5.177Y-1.937
X5.237Y-3.837
X5.277Y-1.937
X5.337Y-3.837
X5.377Y-1.937
X5.437Y-3.837
X5.477Y-1.937
X5.537Y-3.837
X5.577Y-1.937
X5.637Y-3.837
X5.737Y-1.937
X5.737Y-3.837
X5.837Y-1.937
X5.937Y-1.937
X5.937Y-3.837
X6.037Y-1.937
X6.037Y-3.837
X6.137Y-1.937
X6.137Y-3.837
X6.237Y-1.937
X6.237Y-3.837
X6.337Y-1.937
X6.337Y-3.837
X6.437Y-1.937
X6.437Y-3.837
T6
X5.315Y-2.5984
X5.315Y-2.8543
X5.3937Y-3.189
X5.3937Y-3.4449
X5.4921Y-2.5984
X5.4921Y-2.8543
X5.5709Y-3.189
X5.5709Y-3.4449
X5.7283Y-2.6181
X5.7283Y-2.874
X5.7677Y-3.2087
X5.7677Y-3.4646
X5.9055Y-2.6181
X5.9055Y-2.874
X5.9449Y-3.2087
X5.9449Y-3.4646
X6.1417Y-2.5984
X6.1417Y-2.8543
X6.3189Y-2.5984
X6.3189Y-2.8543
M30
