%TF.GenerationSoftware,KiCad,Pcbnew,8.0.8*%
%TF.CreationDate,2025-02-03T17:42:49-07:00*%
%TF.ProjectId,Arduino_uno_Shield,41726475-696e-46f5-9f75-6e6f5f536869,rev?*%
%TF.SameCoordinates,Original*%
%TF.FileFunction,Legend,Top*%
%TF.FilePolarity,Positive*%
%FSLAX46Y46*%
G04 Gerber Fmt 4.6, Leading zero omitted, Abs format (unit mm)*
G04 Created by KiCad (PCBNEW 8.0.8) date 2025-02-03 17:42:49*
%MOMM*%
%LPD*%
G01*
G04 APERTURE LIST*
G04 Aperture macros list*
%AMRoundRect*
0 Rectangle with rounded corners*
0 $1 Rounding radius*
0 $2 $3 $4 $5 $6 $7 $8 $9 X,Y pos of 4 corners*
0 Add a 4 corners polygon primitive as box body*
4,1,4,$2,$3,$4,$5,$6,$7,$8,$9,$2,$3,0*
0 Add four circle primitives for the rounded corners*
1,1,$1+$1,$2,$3*
1,1,$1+$1,$4,$5*
1,1,$1+$1,$6,$7*
1,1,$1+$1,$8,$9*
0 Add four rect primitives between the rounded corners*
20,1,$1+$1,$2,$3,$4,$5,0*
20,1,$1+$1,$4,$5,$6,$7,0*
20,1,$1+$1,$6,$7,$8,$9,0*
20,1,$1+$1,$8,$9,$2,$3,0*%
G04 Aperture macros list end*
%ADD10C,0.150000*%
%ADD11C,0.120000*%
%ADD12R,1.700000X1.700000*%
%ADD13O,1.700000X1.700000*%
%ADD14C,2.000000*%
%ADD15C,1.600000*%
%ADD16O,1.600000X1.600000*%
%ADD17C,1.440000*%
%ADD18R,1.800000X1.800000*%
%ADD19C,1.800000*%
%ADD20RoundRect,0.250000X0.725000X-0.600000X0.725000X0.600000X-0.725000X0.600000X-0.725000X-0.600000X0*%
%ADD21O,1.950000X1.700000*%
G04 APERTURE END LIST*
D10*
X101100000Y-94000000D02*
X101100000Y-67999808D01*
X101100000Y-67999808D02*
X109200000Y-68000094D01*
X103000000Y-48000000D02*
X106000000Y-48000000D01*
X125500000Y-61000000D02*
X125500000Y-52000000D01*
X129000000Y-94000000D02*
X101100000Y-94000000D01*
X129000000Y-68000000D02*
X129000000Y-94000000D01*
X121500000Y-68000000D02*
X129000000Y-68000000D01*
X103000000Y-50700000D02*
X103000000Y-48000000D01*
X132869819Y-71520363D02*
X132822200Y-71615601D01*
X132822200Y-71615601D02*
X132774580Y-71663220D01*
X132774580Y-71663220D02*
X132679342Y-71710839D01*
X132679342Y-71710839D02*
X132393628Y-71710839D01*
X132393628Y-71710839D02*
X132298390Y-71663220D01*
X132298390Y-71663220D02*
X132250771Y-71615601D01*
X132250771Y-71615601D02*
X132203152Y-71520363D01*
X132203152Y-71520363D02*
X132203152Y-71377506D01*
X132203152Y-71377506D02*
X132250771Y-71282268D01*
X132250771Y-71282268D02*
X132298390Y-71234649D01*
X132298390Y-71234649D02*
X132393628Y-71187030D01*
X132393628Y-71187030D02*
X132679342Y-71187030D01*
X132679342Y-71187030D02*
X132774580Y-71234649D01*
X132774580Y-71234649D02*
X132822200Y-71282268D01*
X132822200Y-71282268D02*
X132869819Y-71377506D01*
X132869819Y-71377506D02*
X132869819Y-71520363D01*
X132203152Y-70758458D02*
X132869819Y-70758458D01*
X132298390Y-70758458D02*
X132250771Y-70710839D01*
X132250771Y-70710839D02*
X132203152Y-70615601D01*
X132203152Y-70615601D02*
X132203152Y-70472744D01*
X132203152Y-70472744D02*
X132250771Y-70377506D01*
X132250771Y-70377506D02*
X132346009Y-70329887D01*
X132346009Y-70329887D02*
X132869819Y-70329887D01*
X131822200Y-69139411D02*
X133107914Y-69996553D01*
X132869819Y-68663220D02*
X132822200Y-68758458D01*
X132822200Y-68758458D02*
X132774580Y-68806077D01*
X132774580Y-68806077D02*
X132679342Y-68853696D01*
X132679342Y-68853696D02*
X132393628Y-68853696D01*
X132393628Y-68853696D02*
X132298390Y-68806077D01*
X132298390Y-68806077D02*
X132250771Y-68758458D01*
X132250771Y-68758458D02*
X132203152Y-68663220D01*
X132203152Y-68663220D02*
X132203152Y-68520363D01*
X132203152Y-68520363D02*
X132250771Y-68425125D01*
X132250771Y-68425125D02*
X132298390Y-68377506D01*
X132298390Y-68377506D02*
X132393628Y-68329887D01*
X132393628Y-68329887D02*
X132679342Y-68329887D01*
X132679342Y-68329887D02*
X132774580Y-68377506D01*
X132774580Y-68377506D02*
X132822200Y-68425125D01*
X132822200Y-68425125D02*
X132869819Y-68520363D01*
X132869819Y-68520363D02*
X132869819Y-68663220D01*
X132203152Y-68044172D02*
X132203152Y-67663220D01*
X132869819Y-67901315D02*
X132012676Y-67901315D01*
X132012676Y-67901315D02*
X131917438Y-67853696D01*
X131917438Y-67853696D02*
X131869819Y-67758458D01*
X131869819Y-67758458D02*
X131869819Y-67663220D01*
X132203152Y-67472743D02*
X132203152Y-67091791D01*
X132869819Y-67329886D02*
X132012676Y-67329886D01*
X132012676Y-67329886D02*
X131917438Y-67282267D01*
X131917438Y-67282267D02*
X131869819Y-67187029D01*
X131869819Y-67187029D02*
X131869819Y-67091791D01*
X101289160Y-95864216D02*
X101765350Y-95864216D01*
X101193922Y-96149931D02*
X101527255Y-95149931D01*
X101527255Y-95149931D02*
X101860588Y-96149931D01*
X102193922Y-96149931D02*
X102193922Y-95483264D01*
X102193922Y-95673740D02*
X102241541Y-95578502D01*
X102241541Y-95578502D02*
X102289160Y-95530883D01*
X102289160Y-95530883D02*
X102384398Y-95483264D01*
X102384398Y-95483264D02*
X102479636Y-95483264D01*
X103241541Y-96149931D02*
X103241541Y-95149931D01*
X103241541Y-96102312D02*
X103146303Y-96149931D01*
X103146303Y-96149931D02*
X102955827Y-96149931D01*
X102955827Y-96149931D02*
X102860589Y-96102312D01*
X102860589Y-96102312D02*
X102812970Y-96054692D01*
X102812970Y-96054692D02*
X102765351Y-95959454D01*
X102765351Y-95959454D02*
X102765351Y-95673740D01*
X102765351Y-95673740D02*
X102812970Y-95578502D01*
X102812970Y-95578502D02*
X102860589Y-95530883D01*
X102860589Y-95530883D02*
X102955827Y-95483264D01*
X102955827Y-95483264D02*
X103146303Y-95483264D01*
X103146303Y-95483264D02*
X103241541Y-95530883D01*
X104146303Y-95483264D02*
X104146303Y-96149931D01*
X103717732Y-95483264D02*
X103717732Y-96007073D01*
X103717732Y-96007073D02*
X103765351Y-96102312D01*
X103765351Y-96102312D02*
X103860589Y-96149931D01*
X103860589Y-96149931D02*
X104003446Y-96149931D01*
X104003446Y-96149931D02*
X104098684Y-96102312D01*
X104098684Y-96102312D02*
X104146303Y-96054692D01*
X104622494Y-96149931D02*
X104622494Y-95483264D01*
X104622494Y-95149931D02*
X104574875Y-95197550D01*
X104574875Y-95197550D02*
X104622494Y-95245169D01*
X104622494Y-95245169D02*
X104670113Y-95197550D01*
X104670113Y-95197550D02*
X104622494Y-95149931D01*
X104622494Y-95149931D02*
X104622494Y-95245169D01*
X105098684Y-95483264D02*
X105098684Y-96149931D01*
X105098684Y-95578502D02*
X105146303Y-95530883D01*
X105146303Y-95530883D02*
X105241541Y-95483264D01*
X105241541Y-95483264D02*
X105384398Y-95483264D01*
X105384398Y-95483264D02*
X105479636Y-95530883D01*
X105479636Y-95530883D02*
X105527255Y-95626121D01*
X105527255Y-95626121D02*
X105527255Y-96149931D01*
X106146303Y-96149931D02*
X106051065Y-96102312D01*
X106051065Y-96102312D02*
X106003446Y-96054692D01*
X106003446Y-96054692D02*
X105955827Y-95959454D01*
X105955827Y-95959454D02*
X105955827Y-95673740D01*
X105955827Y-95673740D02*
X106003446Y-95578502D01*
X106003446Y-95578502D02*
X106051065Y-95530883D01*
X106051065Y-95530883D02*
X106146303Y-95483264D01*
X106146303Y-95483264D02*
X106289160Y-95483264D01*
X106289160Y-95483264D02*
X106384398Y-95530883D01*
X106384398Y-95530883D02*
X106432017Y-95578502D01*
X106432017Y-95578502D02*
X106479636Y-95673740D01*
X106479636Y-95673740D02*
X106479636Y-95959454D01*
X106479636Y-95959454D02*
X106432017Y-96054692D01*
X106432017Y-96054692D02*
X106384398Y-96102312D01*
X106384398Y-96102312D02*
X106289160Y-96149931D01*
X106289160Y-96149931D02*
X106146303Y-96149931D01*
X107670113Y-95149931D02*
X107670113Y-95959454D01*
X107670113Y-95959454D02*
X107717732Y-96054692D01*
X107717732Y-96054692D02*
X107765351Y-96102312D01*
X107765351Y-96102312D02*
X107860589Y-96149931D01*
X107860589Y-96149931D02*
X108051065Y-96149931D01*
X108051065Y-96149931D02*
X108146303Y-96102312D01*
X108146303Y-96102312D02*
X108193922Y-96054692D01*
X108193922Y-96054692D02*
X108241541Y-95959454D01*
X108241541Y-95959454D02*
X108241541Y-95149931D01*
X108717732Y-96149931D02*
X108717732Y-95149931D01*
X108717732Y-95149931D02*
X109289160Y-96149931D01*
X109289160Y-96149931D02*
X109289160Y-95149931D01*
X109955827Y-95149931D02*
X110146303Y-95149931D01*
X110146303Y-95149931D02*
X110241541Y-95197550D01*
X110241541Y-95197550D02*
X110336779Y-95292788D01*
X110336779Y-95292788D02*
X110384398Y-95483264D01*
X110384398Y-95483264D02*
X110384398Y-95816597D01*
X110384398Y-95816597D02*
X110336779Y-96007073D01*
X110336779Y-96007073D02*
X110241541Y-96102312D01*
X110241541Y-96102312D02*
X110146303Y-96149931D01*
X110146303Y-96149931D02*
X109955827Y-96149931D01*
X109955827Y-96149931D02*
X109860589Y-96102312D01*
X109860589Y-96102312D02*
X109765351Y-96007073D01*
X109765351Y-96007073D02*
X109717732Y-95816597D01*
X109717732Y-95816597D02*
X109717732Y-95483264D01*
X109717732Y-95483264D02*
X109765351Y-95292788D01*
X109765351Y-95292788D02*
X109860589Y-95197550D01*
X109860589Y-95197550D02*
X109955827Y-95149931D01*
X111432018Y-95149931D02*
X112003446Y-95149931D01*
X111717732Y-96149931D02*
X111717732Y-95149931D01*
X112717732Y-96102312D02*
X112622494Y-96149931D01*
X112622494Y-96149931D02*
X112432018Y-96149931D01*
X112432018Y-96149931D02*
X112336780Y-96102312D01*
X112336780Y-96102312D02*
X112289161Y-96007073D01*
X112289161Y-96007073D02*
X112289161Y-95626121D01*
X112289161Y-95626121D02*
X112336780Y-95530883D01*
X112336780Y-95530883D02*
X112432018Y-95483264D01*
X112432018Y-95483264D02*
X112622494Y-95483264D01*
X112622494Y-95483264D02*
X112717732Y-95530883D01*
X112717732Y-95530883D02*
X112765351Y-95626121D01*
X112765351Y-95626121D02*
X112765351Y-95721359D01*
X112765351Y-95721359D02*
X112289161Y-95816597D01*
X113193923Y-96149931D02*
X113193923Y-95483264D01*
X113193923Y-95578502D02*
X113241542Y-95530883D01*
X113241542Y-95530883D02*
X113336780Y-95483264D01*
X113336780Y-95483264D02*
X113479637Y-95483264D01*
X113479637Y-95483264D02*
X113574875Y-95530883D01*
X113574875Y-95530883D02*
X113622494Y-95626121D01*
X113622494Y-95626121D02*
X113622494Y-96149931D01*
X113622494Y-95626121D02*
X113670113Y-95530883D01*
X113670113Y-95530883D02*
X113765351Y-95483264D01*
X113765351Y-95483264D02*
X113908208Y-95483264D01*
X113908208Y-95483264D02*
X114003447Y-95530883D01*
X114003447Y-95530883D02*
X114051066Y-95626121D01*
X114051066Y-95626121D02*
X114051066Y-96149931D01*
X114527256Y-95483264D02*
X114527256Y-96483264D01*
X114527256Y-95530883D02*
X114622494Y-95483264D01*
X114622494Y-95483264D02*
X114812970Y-95483264D01*
X114812970Y-95483264D02*
X114908208Y-95530883D01*
X114908208Y-95530883D02*
X114955827Y-95578502D01*
X114955827Y-95578502D02*
X115003446Y-95673740D01*
X115003446Y-95673740D02*
X115003446Y-95959454D01*
X115003446Y-95959454D02*
X114955827Y-96054692D01*
X114955827Y-96054692D02*
X114908208Y-96102312D01*
X114908208Y-96102312D02*
X114812970Y-96149931D01*
X114812970Y-96149931D02*
X114622494Y-96149931D01*
X114622494Y-96149931D02*
X114527256Y-96102312D01*
X116146304Y-96102312D02*
X116289161Y-96149931D01*
X116289161Y-96149931D02*
X116527256Y-96149931D01*
X116527256Y-96149931D02*
X116622494Y-96102312D01*
X116622494Y-96102312D02*
X116670113Y-96054692D01*
X116670113Y-96054692D02*
X116717732Y-95959454D01*
X116717732Y-95959454D02*
X116717732Y-95864216D01*
X116717732Y-95864216D02*
X116670113Y-95768978D01*
X116670113Y-95768978D02*
X116622494Y-95721359D01*
X116622494Y-95721359D02*
X116527256Y-95673740D01*
X116527256Y-95673740D02*
X116336780Y-95626121D01*
X116336780Y-95626121D02*
X116241542Y-95578502D01*
X116241542Y-95578502D02*
X116193923Y-95530883D01*
X116193923Y-95530883D02*
X116146304Y-95435645D01*
X116146304Y-95435645D02*
X116146304Y-95340407D01*
X116146304Y-95340407D02*
X116193923Y-95245169D01*
X116193923Y-95245169D02*
X116241542Y-95197550D01*
X116241542Y-95197550D02*
X116336780Y-95149931D01*
X116336780Y-95149931D02*
X116574875Y-95149931D01*
X116574875Y-95149931D02*
X116717732Y-95197550D01*
X117527256Y-96102312D02*
X117432018Y-96149931D01*
X117432018Y-96149931D02*
X117241542Y-96149931D01*
X117241542Y-96149931D02*
X117146304Y-96102312D01*
X117146304Y-96102312D02*
X117098685Y-96007073D01*
X117098685Y-96007073D02*
X117098685Y-95626121D01*
X117098685Y-95626121D02*
X117146304Y-95530883D01*
X117146304Y-95530883D02*
X117241542Y-95483264D01*
X117241542Y-95483264D02*
X117432018Y-95483264D01*
X117432018Y-95483264D02*
X117527256Y-95530883D01*
X117527256Y-95530883D02*
X117574875Y-95626121D01*
X117574875Y-95626121D02*
X117574875Y-95721359D01*
X117574875Y-95721359D02*
X117098685Y-95816597D01*
X118003447Y-95483264D02*
X118003447Y-96149931D01*
X118003447Y-95578502D02*
X118051066Y-95530883D01*
X118051066Y-95530883D02*
X118146304Y-95483264D01*
X118146304Y-95483264D02*
X118289161Y-95483264D01*
X118289161Y-95483264D02*
X118384399Y-95530883D01*
X118384399Y-95530883D02*
X118432018Y-95626121D01*
X118432018Y-95626121D02*
X118432018Y-96149931D01*
X118860590Y-96102312D02*
X118955828Y-96149931D01*
X118955828Y-96149931D02*
X119146304Y-96149931D01*
X119146304Y-96149931D02*
X119241542Y-96102312D01*
X119241542Y-96102312D02*
X119289161Y-96007073D01*
X119289161Y-96007073D02*
X119289161Y-95959454D01*
X119289161Y-95959454D02*
X119241542Y-95864216D01*
X119241542Y-95864216D02*
X119146304Y-95816597D01*
X119146304Y-95816597D02*
X119003447Y-95816597D01*
X119003447Y-95816597D02*
X118908209Y-95768978D01*
X118908209Y-95768978D02*
X118860590Y-95673740D01*
X118860590Y-95673740D02*
X118860590Y-95626121D01*
X118860590Y-95626121D02*
X118908209Y-95530883D01*
X118908209Y-95530883D02*
X119003447Y-95483264D01*
X119003447Y-95483264D02*
X119146304Y-95483264D01*
X119146304Y-95483264D02*
X119241542Y-95530883D01*
X119860590Y-96149931D02*
X119765352Y-96102312D01*
X119765352Y-96102312D02*
X119717733Y-96054692D01*
X119717733Y-96054692D02*
X119670114Y-95959454D01*
X119670114Y-95959454D02*
X119670114Y-95673740D01*
X119670114Y-95673740D02*
X119717733Y-95578502D01*
X119717733Y-95578502D02*
X119765352Y-95530883D01*
X119765352Y-95530883D02*
X119860590Y-95483264D01*
X119860590Y-95483264D02*
X120003447Y-95483264D01*
X120003447Y-95483264D02*
X120098685Y-95530883D01*
X120098685Y-95530883D02*
X120146304Y-95578502D01*
X120146304Y-95578502D02*
X120193923Y-95673740D01*
X120193923Y-95673740D02*
X120193923Y-95959454D01*
X120193923Y-95959454D02*
X120146304Y-96054692D01*
X120146304Y-96054692D02*
X120098685Y-96102312D01*
X120098685Y-96102312D02*
X120003447Y-96149931D01*
X120003447Y-96149931D02*
X119860590Y-96149931D01*
X120622495Y-96149931D02*
X120622495Y-95483264D01*
X120622495Y-95673740D02*
X120670114Y-95578502D01*
X120670114Y-95578502D02*
X120717733Y-95530883D01*
X120717733Y-95530883D02*
X120812971Y-95483264D01*
X120812971Y-95483264D02*
X120908209Y-95483264D01*
X121860591Y-95149931D02*
X122193924Y-96149931D01*
X122193924Y-96149931D02*
X122527257Y-95149931D01*
X123384400Y-96149931D02*
X122812972Y-96149931D01*
X123098686Y-96149931D02*
X123098686Y-95149931D01*
X123098686Y-95149931D02*
X123003448Y-95292788D01*
X123003448Y-95292788D02*
X122908210Y-95388026D01*
X122908210Y-95388026D02*
X122812972Y-95435645D01*
X123812972Y-96054692D02*
X123860591Y-96102312D01*
X123860591Y-96102312D02*
X123812972Y-96149931D01*
X123812972Y-96149931D02*
X123765353Y-96102312D01*
X123765353Y-96102312D02*
X123812972Y-96054692D01*
X123812972Y-96054692D02*
X123812972Y-96149931D01*
X124479638Y-95149931D02*
X124574876Y-95149931D01*
X124574876Y-95149931D02*
X124670114Y-95197550D01*
X124670114Y-95197550D02*
X124717733Y-95245169D01*
X124717733Y-95245169D02*
X124765352Y-95340407D01*
X124765352Y-95340407D02*
X124812971Y-95530883D01*
X124812971Y-95530883D02*
X124812971Y-95768978D01*
X124812971Y-95768978D02*
X124765352Y-95959454D01*
X124765352Y-95959454D02*
X124717733Y-96054692D01*
X124717733Y-96054692D02*
X124670114Y-96102312D01*
X124670114Y-96102312D02*
X124574876Y-96149931D01*
X124574876Y-96149931D02*
X124479638Y-96149931D01*
X124479638Y-96149931D02*
X124384400Y-96102312D01*
X124384400Y-96102312D02*
X124336781Y-96054692D01*
X124336781Y-96054692D02*
X124289162Y-95959454D01*
X124289162Y-95959454D02*
X124241543Y-95768978D01*
X124241543Y-95768978D02*
X124241543Y-95530883D01*
X124241543Y-95530883D02*
X124289162Y-95340407D01*
X124289162Y-95340407D02*
X124336781Y-95245169D01*
X124336781Y-95245169D02*
X124384400Y-95197550D01*
X124384400Y-95197550D02*
X124479638Y-95149931D01*
X101289160Y-97474160D02*
X101765350Y-97474160D01*
X101193922Y-97759875D02*
X101527255Y-96759875D01*
X101527255Y-96759875D02*
X101860588Y-97759875D01*
X102336779Y-97759875D02*
X102241541Y-97712256D01*
X102241541Y-97712256D02*
X102193922Y-97617017D01*
X102193922Y-97617017D02*
X102193922Y-96759875D01*
X102717732Y-97759875D02*
X102717732Y-97093208D01*
X102717732Y-96759875D02*
X102670113Y-96807494D01*
X102670113Y-96807494D02*
X102717732Y-96855113D01*
X102717732Y-96855113D02*
X102765351Y-96807494D01*
X102765351Y-96807494D02*
X102717732Y-96759875D01*
X102717732Y-96759875D02*
X102717732Y-96855113D01*
X103908208Y-97474160D02*
X104384398Y-97474160D01*
X103812970Y-97759875D02*
X104146303Y-96759875D01*
X104146303Y-96759875D02*
X104479636Y-97759875D01*
X104955827Y-97759875D02*
X104860589Y-97712256D01*
X104860589Y-97712256D02*
X104812970Y-97617017D01*
X104812970Y-97617017D02*
X104812970Y-96759875D01*
X105765351Y-97759875D02*
X105765351Y-97236065D01*
X105765351Y-97236065D02*
X105717732Y-97140827D01*
X105717732Y-97140827D02*
X105622494Y-97093208D01*
X105622494Y-97093208D02*
X105432018Y-97093208D01*
X105432018Y-97093208D02*
X105336780Y-97140827D01*
X105765351Y-97712256D02*
X105670113Y-97759875D01*
X105670113Y-97759875D02*
X105432018Y-97759875D01*
X105432018Y-97759875D02*
X105336780Y-97712256D01*
X105336780Y-97712256D02*
X105289161Y-97617017D01*
X105289161Y-97617017D02*
X105289161Y-97521779D01*
X105289161Y-97521779D02*
X105336780Y-97426541D01*
X105336780Y-97426541D02*
X105432018Y-97378922D01*
X105432018Y-97378922D02*
X105670113Y-97378922D01*
X105670113Y-97378922D02*
X105765351Y-97331303D01*
X106384399Y-97759875D02*
X106289161Y-97712256D01*
X106289161Y-97712256D02*
X106241542Y-97617017D01*
X106241542Y-97617017D02*
X106241542Y-96759875D01*
X106670114Y-97093208D02*
X106860590Y-97759875D01*
X106860590Y-97759875D02*
X107051066Y-97283684D01*
X107051066Y-97283684D02*
X107241542Y-97759875D01*
X107241542Y-97759875D02*
X107432018Y-97093208D01*
X107812971Y-97759875D02*
X107812971Y-97093208D01*
X107812971Y-96759875D02*
X107765352Y-96807494D01*
X107765352Y-96807494D02*
X107812971Y-96855113D01*
X107812971Y-96855113D02*
X107860590Y-96807494D01*
X107860590Y-96807494D02*
X107812971Y-96759875D01*
X107812971Y-96759875D02*
X107812971Y-96855113D01*
X108717732Y-97759875D02*
X108717732Y-97236065D01*
X108717732Y-97236065D02*
X108670113Y-97140827D01*
X108670113Y-97140827D02*
X108574875Y-97093208D01*
X108574875Y-97093208D02*
X108384399Y-97093208D01*
X108384399Y-97093208D02*
X108289161Y-97140827D01*
X108717732Y-97712256D02*
X108622494Y-97759875D01*
X108622494Y-97759875D02*
X108384399Y-97759875D01*
X108384399Y-97759875D02*
X108289161Y-97712256D01*
X108289161Y-97712256D02*
X108241542Y-97617017D01*
X108241542Y-97617017D02*
X108241542Y-97521779D01*
X108241542Y-97521779D02*
X108289161Y-97426541D01*
X108289161Y-97426541D02*
X108384399Y-97378922D01*
X108384399Y-97378922D02*
X108622494Y-97378922D01*
X108622494Y-97378922D02*
X108717732Y-97331303D01*
X110146304Y-96759875D02*
X110241542Y-96759875D01*
X110241542Y-96759875D02*
X110336780Y-96807494D01*
X110336780Y-96807494D02*
X110384399Y-96855113D01*
X110384399Y-96855113D02*
X110432018Y-96950351D01*
X110432018Y-96950351D02*
X110479637Y-97140827D01*
X110479637Y-97140827D02*
X110479637Y-97378922D01*
X110479637Y-97378922D02*
X110432018Y-97569398D01*
X110432018Y-97569398D02*
X110384399Y-97664636D01*
X110384399Y-97664636D02*
X110336780Y-97712256D01*
X110336780Y-97712256D02*
X110241542Y-97759875D01*
X110241542Y-97759875D02*
X110146304Y-97759875D01*
X110146304Y-97759875D02*
X110051066Y-97712256D01*
X110051066Y-97712256D02*
X110003447Y-97664636D01*
X110003447Y-97664636D02*
X109955828Y-97569398D01*
X109955828Y-97569398D02*
X109908209Y-97378922D01*
X109908209Y-97378922D02*
X109908209Y-97140827D01*
X109908209Y-97140827D02*
X109955828Y-96950351D01*
X109955828Y-96950351D02*
X110003447Y-96855113D01*
X110003447Y-96855113D02*
X110051066Y-96807494D01*
X110051066Y-96807494D02*
X110146304Y-96759875D01*
X110860590Y-96855113D02*
X110908209Y-96807494D01*
X110908209Y-96807494D02*
X111003447Y-96759875D01*
X111003447Y-96759875D02*
X111241542Y-96759875D01*
X111241542Y-96759875D02*
X111336780Y-96807494D01*
X111336780Y-96807494D02*
X111384399Y-96855113D01*
X111384399Y-96855113D02*
X111432018Y-96950351D01*
X111432018Y-96950351D02*
X111432018Y-97045589D01*
X111432018Y-97045589D02*
X111384399Y-97188446D01*
X111384399Y-97188446D02*
X110812971Y-97759875D01*
X110812971Y-97759875D02*
X111432018Y-97759875D01*
X112051066Y-96759875D02*
X112146304Y-96759875D01*
X112146304Y-96759875D02*
X112241542Y-96807494D01*
X112241542Y-96807494D02*
X112289161Y-96855113D01*
X112289161Y-96855113D02*
X112336780Y-96950351D01*
X112336780Y-96950351D02*
X112384399Y-97140827D01*
X112384399Y-97140827D02*
X112384399Y-97378922D01*
X112384399Y-97378922D02*
X112336780Y-97569398D01*
X112336780Y-97569398D02*
X112289161Y-97664636D01*
X112289161Y-97664636D02*
X112241542Y-97712256D01*
X112241542Y-97712256D02*
X112146304Y-97759875D01*
X112146304Y-97759875D02*
X112051066Y-97759875D01*
X112051066Y-97759875D02*
X111955828Y-97712256D01*
X111955828Y-97712256D02*
X111908209Y-97664636D01*
X111908209Y-97664636D02*
X111860590Y-97569398D01*
X111860590Y-97569398D02*
X111812971Y-97378922D01*
X111812971Y-97378922D02*
X111812971Y-97140827D01*
X111812971Y-97140827D02*
X111860590Y-96950351D01*
X111860590Y-96950351D02*
X111908209Y-96855113D01*
X111908209Y-96855113D02*
X111955828Y-96807494D01*
X111955828Y-96807494D02*
X112051066Y-96759875D01*
X113241542Y-97093208D02*
X113241542Y-97759875D01*
X113003447Y-96712256D02*
X112765352Y-97426541D01*
X112765352Y-97426541D02*
X113384399Y-97426541D01*
X113717733Y-96855113D02*
X113765352Y-96807494D01*
X113765352Y-96807494D02*
X113860590Y-96759875D01*
X113860590Y-96759875D02*
X114098685Y-96759875D01*
X114098685Y-96759875D02*
X114193923Y-96807494D01*
X114193923Y-96807494D02*
X114241542Y-96855113D01*
X114241542Y-96855113D02*
X114289161Y-96950351D01*
X114289161Y-96950351D02*
X114289161Y-97045589D01*
X114289161Y-97045589D02*
X114241542Y-97188446D01*
X114241542Y-97188446D02*
X113670114Y-97759875D01*
X113670114Y-97759875D02*
X114289161Y-97759875D01*
X114908209Y-96759875D02*
X115003447Y-96759875D01*
X115003447Y-96759875D02*
X115098685Y-96807494D01*
X115098685Y-96807494D02*
X115146304Y-96855113D01*
X115146304Y-96855113D02*
X115193923Y-96950351D01*
X115193923Y-96950351D02*
X115241542Y-97140827D01*
X115241542Y-97140827D02*
X115241542Y-97378922D01*
X115241542Y-97378922D02*
X115193923Y-97569398D01*
X115193923Y-97569398D02*
X115146304Y-97664636D01*
X115146304Y-97664636D02*
X115098685Y-97712256D01*
X115098685Y-97712256D02*
X115003447Y-97759875D01*
X115003447Y-97759875D02*
X114908209Y-97759875D01*
X114908209Y-97759875D02*
X114812971Y-97712256D01*
X114812971Y-97712256D02*
X114765352Y-97664636D01*
X114765352Y-97664636D02*
X114717733Y-97569398D01*
X114717733Y-97569398D02*
X114670114Y-97378922D01*
X114670114Y-97378922D02*
X114670114Y-97140827D01*
X114670114Y-97140827D02*
X114717733Y-96950351D01*
X114717733Y-96950351D02*
X114765352Y-96855113D01*
X114765352Y-96855113D02*
X114812971Y-96807494D01*
X114812971Y-96807494D02*
X114908209Y-96759875D01*
X115622495Y-96855113D02*
X115670114Y-96807494D01*
X115670114Y-96807494D02*
X115765352Y-96759875D01*
X115765352Y-96759875D02*
X116003447Y-96759875D01*
X116003447Y-96759875D02*
X116098685Y-96807494D01*
X116098685Y-96807494D02*
X116146304Y-96855113D01*
X116146304Y-96855113D02*
X116193923Y-96950351D01*
X116193923Y-96950351D02*
X116193923Y-97045589D01*
X116193923Y-97045589D02*
X116146304Y-97188446D01*
X116146304Y-97188446D02*
X115574876Y-97759875D01*
X115574876Y-97759875D02*
X116193923Y-97759875D01*
X117098685Y-96759875D02*
X116622495Y-96759875D01*
X116622495Y-96759875D02*
X116574876Y-97236065D01*
X116574876Y-97236065D02*
X116622495Y-97188446D01*
X116622495Y-97188446D02*
X116717733Y-97140827D01*
X116717733Y-97140827D02*
X116955828Y-97140827D01*
X116955828Y-97140827D02*
X117051066Y-97188446D01*
X117051066Y-97188446D02*
X117098685Y-97236065D01*
X117098685Y-97236065D02*
X117146304Y-97331303D01*
X117146304Y-97331303D02*
X117146304Y-97569398D01*
X117146304Y-97569398D02*
X117098685Y-97664636D01*
X117098685Y-97664636D02*
X117051066Y-97712256D01*
X117051066Y-97712256D02*
X116955828Y-97759875D01*
X116955828Y-97759875D02*
X116717733Y-97759875D01*
X116717733Y-97759875D02*
X116622495Y-97712256D01*
X116622495Y-97712256D02*
X116574876Y-97664636D01*
X166322200Y-87710839D02*
X166369819Y-87567982D01*
X166369819Y-87567982D02*
X166369819Y-87329887D01*
X166369819Y-87329887D02*
X166322200Y-87234649D01*
X166322200Y-87234649D02*
X166274580Y-87187030D01*
X166274580Y-87187030D02*
X166179342Y-87139411D01*
X166179342Y-87139411D02*
X166084104Y-87139411D01*
X166084104Y-87139411D02*
X165988866Y-87187030D01*
X165988866Y-87187030D02*
X165941247Y-87234649D01*
X165941247Y-87234649D02*
X165893628Y-87329887D01*
X165893628Y-87329887D02*
X165846009Y-87520363D01*
X165846009Y-87520363D02*
X165798390Y-87615601D01*
X165798390Y-87615601D02*
X165750771Y-87663220D01*
X165750771Y-87663220D02*
X165655533Y-87710839D01*
X165655533Y-87710839D02*
X165560295Y-87710839D01*
X165560295Y-87710839D02*
X165465057Y-87663220D01*
X165465057Y-87663220D02*
X165417438Y-87615601D01*
X165417438Y-87615601D02*
X165369819Y-87520363D01*
X165369819Y-87520363D02*
X165369819Y-87282268D01*
X165369819Y-87282268D02*
X165417438Y-87139411D01*
X166322200Y-86329887D02*
X166369819Y-86425125D01*
X166369819Y-86425125D02*
X166369819Y-86615601D01*
X166369819Y-86615601D02*
X166322200Y-86710839D01*
X166322200Y-86710839D02*
X166226961Y-86758458D01*
X166226961Y-86758458D02*
X165846009Y-86758458D01*
X165846009Y-86758458D02*
X165750771Y-86710839D01*
X165750771Y-86710839D02*
X165703152Y-86615601D01*
X165703152Y-86615601D02*
X165703152Y-86425125D01*
X165703152Y-86425125D02*
X165750771Y-86329887D01*
X165750771Y-86329887D02*
X165846009Y-86282268D01*
X165846009Y-86282268D02*
X165941247Y-86282268D01*
X165941247Y-86282268D02*
X166036485Y-86758458D01*
X165703152Y-85853696D02*
X166369819Y-85853696D01*
X165798390Y-85853696D02*
X165750771Y-85806077D01*
X165750771Y-85806077D02*
X165703152Y-85710839D01*
X165703152Y-85710839D02*
X165703152Y-85567982D01*
X165703152Y-85567982D02*
X165750771Y-85472744D01*
X165750771Y-85472744D02*
X165846009Y-85425125D01*
X165846009Y-85425125D02*
X166369819Y-85425125D01*
X166322200Y-84996553D02*
X166369819Y-84901315D01*
X166369819Y-84901315D02*
X166369819Y-84710839D01*
X166369819Y-84710839D02*
X166322200Y-84615601D01*
X166322200Y-84615601D02*
X166226961Y-84567982D01*
X166226961Y-84567982D02*
X166179342Y-84567982D01*
X166179342Y-84567982D02*
X166084104Y-84615601D01*
X166084104Y-84615601D02*
X166036485Y-84710839D01*
X166036485Y-84710839D02*
X166036485Y-84853696D01*
X166036485Y-84853696D02*
X165988866Y-84948934D01*
X165988866Y-84948934D02*
X165893628Y-84996553D01*
X165893628Y-84996553D02*
X165846009Y-84996553D01*
X165846009Y-84996553D02*
X165750771Y-84948934D01*
X165750771Y-84948934D02*
X165703152Y-84853696D01*
X165703152Y-84853696D02*
X165703152Y-84710839D01*
X165703152Y-84710839D02*
X165750771Y-84615601D01*
X166369819Y-83996553D02*
X166322200Y-84091791D01*
X166322200Y-84091791D02*
X166274580Y-84139410D01*
X166274580Y-84139410D02*
X166179342Y-84187029D01*
X166179342Y-84187029D02*
X165893628Y-84187029D01*
X165893628Y-84187029D02*
X165798390Y-84139410D01*
X165798390Y-84139410D02*
X165750771Y-84091791D01*
X165750771Y-84091791D02*
X165703152Y-83996553D01*
X165703152Y-83996553D02*
X165703152Y-83853696D01*
X165703152Y-83853696D02*
X165750771Y-83758458D01*
X165750771Y-83758458D02*
X165798390Y-83710839D01*
X165798390Y-83710839D02*
X165893628Y-83663220D01*
X165893628Y-83663220D02*
X166179342Y-83663220D01*
X166179342Y-83663220D02*
X166274580Y-83710839D01*
X166274580Y-83710839D02*
X166322200Y-83758458D01*
X166322200Y-83758458D02*
X166369819Y-83853696D01*
X166369819Y-83853696D02*
X166369819Y-83996553D01*
X166369819Y-83234648D02*
X165703152Y-83234648D01*
X165893628Y-83234648D02*
X165798390Y-83187029D01*
X165798390Y-83187029D02*
X165750771Y-83139410D01*
X165750771Y-83139410D02*
X165703152Y-83044172D01*
X165703152Y-83044172D02*
X165703152Y-82948934D01*
X166369819Y-82091791D02*
X166369819Y-82663219D01*
X166369819Y-82377505D02*
X165369819Y-82377505D01*
X165369819Y-82377505D02*
X165512676Y-82472743D01*
X165512676Y-82472743D02*
X165607914Y-82567981D01*
X165607914Y-82567981D02*
X165655533Y-82663219D01*
X117836779Y-60869819D02*
X117836779Y-59869819D01*
X117836779Y-59869819D02*
X118170112Y-60584104D01*
X118170112Y-60584104D02*
X118503445Y-59869819D01*
X118503445Y-59869819D02*
X118503445Y-60869819D01*
X118979636Y-60869819D02*
X118979636Y-59869819D01*
X118979636Y-59869819D02*
X119360588Y-59869819D01*
X119360588Y-59869819D02*
X119455826Y-59917438D01*
X119455826Y-59917438D02*
X119503445Y-59965057D01*
X119503445Y-59965057D02*
X119551064Y-60060295D01*
X119551064Y-60060295D02*
X119551064Y-60203152D01*
X119551064Y-60203152D02*
X119503445Y-60298390D01*
X119503445Y-60298390D02*
X119455826Y-60346009D01*
X119455826Y-60346009D02*
X119360588Y-60393628D01*
X119360588Y-60393628D02*
X118979636Y-60393628D01*
X119979636Y-59869819D02*
X119979636Y-60679342D01*
X119979636Y-60679342D02*
X120027255Y-60774580D01*
X120027255Y-60774580D02*
X120074874Y-60822200D01*
X120074874Y-60822200D02*
X120170112Y-60869819D01*
X120170112Y-60869819D02*
X120360588Y-60869819D01*
X120360588Y-60869819D02*
X120455826Y-60822200D01*
X120455826Y-60822200D02*
X120503445Y-60774580D01*
X120503445Y-60774580D02*
X120551064Y-60679342D01*
X120551064Y-60679342D02*
X120551064Y-59869819D01*
X121455826Y-59869819D02*
X121265350Y-59869819D01*
X121265350Y-59869819D02*
X121170112Y-59917438D01*
X121170112Y-59917438D02*
X121122493Y-59965057D01*
X121122493Y-59965057D02*
X121027255Y-60107914D01*
X121027255Y-60107914D02*
X120979636Y-60298390D01*
X120979636Y-60298390D02*
X120979636Y-60679342D01*
X120979636Y-60679342D02*
X121027255Y-60774580D01*
X121027255Y-60774580D02*
X121074874Y-60822200D01*
X121074874Y-60822200D02*
X121170112Y-60869819D01*
X121170112Y-60869819D02*
X121360588Y-60869819D01*
X121360588Y-60869819D02*
X121455826Y-60822200D01*
X121455826Y-60822200D02*
X121503445Y-60774580D01*
X121503445Y-60774580D02*
X121551064Y-60679342D01*
X121551064Y-60679342D02*
X121551064Y-60441247D01*
X121551064Y-60441247D02*
X121503445Y-60346009D01*
X121503445Y-60346009D02*
X121455826Y-60298390D01*
X121455826Y-60298390D02*
X121360588Y-60250771D01*
X121360588Y-60250771D02*
X121170112Y-60250771D01*
X121170112Y-60250771D02*
X121074874Y-60298390D01*
X121074874Y-60298390D02*
X121027255Y-60346009D01*
X121027255Y-60346009D02*
X120979636Y-60441247D01*
X122170112Y-59869819D02*
X122265350Y-59869819D01*
X122265350Y-59869819D02*
X122360588Y-59917438D01*
X122360588Y-59917438D02*
X122408207Y-59965057D01*
X122408207Y-59965057D02*
X122455826Y-60060295D01*
X122455826Y-60060295D02*
X122503445Y-60250771D01*
X122503445Y-60250771D02*
X122503445Y-60488866D01*
X122503445Y-60488866D02*
X122455826Y-60679342D01*
X122455826Y-60679342D02*
X122408207Y-60774580D01*
X122408207Y-60774580D02*
X122360588Y-60822200D01*
X122360588Y-60822200D02*
X122265350Y-60869819D01*
X122265350Y-60869819D02*
X122170112Y-60869819D01*
X122170112Y-60869819D02*
X122074874Y-60822200D01*
X122074874Y-60822200D02*
X122027255Y-60774580D01*
X122027255Y-60774580D02*
X121979636Y-60679342D01*
X121979636Y-60679342D02*
X121932017Y-60488866D01*
X121932017Y-60488866D02*
X121932017Y-60250771D01*
X121932017Y-60250771D02*
X121979636Y-60060295D01*
X121979636Y-60060295D02*
X122027255Y-59965057D01*
X122027255Y-59965057D02*
X122074874Y-59917438D01*
X122074874Y-59917438D02*
X122170112Y-59869819D01*
X123408207Y-59869819D02*
X122932017Y-59869819D01*
X122932017Y-59869819D02*
X122884398Y-60346009D01*
X122884398Y-60346009D02*
X122932017Y-60298390D01*
X122932017Y-60298390D02*
X123027255Y-60250771D01*
X123027255Y-60250771D02*
X123265350Y-60250771D01*
X123265350Y-60250771D02*
X123360588Y-60298390D01*
X123360588Y-60298390D02*
X123408207Y-60346009D01*
X123408207Y-60346009D02*
X123455826Y-60441247D01*
X123455826Y-60441247D02*
X123455826Y-60679342D01*
X123455826Y-60679342D02*
X123408207Y-60774580D01*
X123408207Y-60774580D02*
X123360588Y-60822200D01*
X123360588Y-60822200D02*
X123265350Y-60869819D01*
X123265350Y-60869819D02*
X123027255Y-60869819D01*
X123027255Y-60869819D02*
X122932017Y-60822200D01*
X122932017Y-60822200D02*
X122884398Y-60774580D01*
X124074874Y-59869819D02*
X124170112Y-59869819D01*
X124170112Y-59869819D02*
X124265350Y-59917438D01*
X124265350Y-59917438D02*
X124312969Y-59965057D01*
X124312969Y-59965057D02*
X124360588Y-60060295D01*
X124360588Y-60060295D02*
X124408207Y-60250771D01*
X124408207Y-60250771D02*
X124408207Y-60488866D01*
X124408207Y-60488866D02*
X124360588Y-60679342D01*
X124360588Y-60679342D02*
X124312969Y-60774580D01*
X124312969Y-60774580D02*
X124265350Y-60822200D01*
X124265350Y-60822200D02*
X124170112Y-60869819D01*
X124170112Y-60869819D02*
X124074874Y-60869819D01*
X124074874Y-60869819D02*
X123979636Y-60822200D01*
X123979636Y-60822200D02*
X123932017Y-60774580D01*
X123932017Y-60774580D02*
X123884398Y-60679342D01*
X123884398Y-60679342D02*
X123836779Y-60488866D01*
X123836779Y-60488866D02*
X123836779Y-60250771D01*
X123836779Y-60250771D02*
X123884398Y-60060295D01*
X123884398Y-60060295D02*
X123932017Y-59965057D01*
X123932017Y-59965057D02*
X123979636Y-59917438D01*
X123979636Y-59917438D02*
X124074874Y-59869819D01*
X161822200Y-59210839D02*
X161869819Y-59067982D01*
X161869819Y-59067982D02*
X161869819Y-58829887D01*
X161869819Y-58829887D02*
X161822200Y-58734649D01*
X161822200Y-58734649D02*
X161774580Y-58687030D01*
X161774580Y-58687030D02*
X161679342Y-58639411D01*
X161679342Y-58639411D02*
X161584104Y-58639411D01*
X161584104Y-58639411D02*
X161488866Y-58687030D01*
X161488866Y-58687030D02*
X161441247Y-58734649D01*
X161441247Y-58734649D02*
X161393628Y-58829887D01*
X161393628Y-58829887D02*
X161346009Y-59020363D01*
X161346009Y-59020363D02*
X161298390Y-59115601D01*
X161298390Y-59115601D02*
X161250771Y-59163220D01*
X161250771Y-59163220D02*
X161155533Y-59210839D01*
X161155533Y-59210839D02*
X161060295Y-59210839D01*
X161060295Y-59210839D02*
X160965057Y-59163220D01*
X160965057Y-59163220D02*
X160917438Y-59115601D01*
X160917438Y-59115601D02*
X160869819Y-59020363D01*
X160869819Y-59020363D02*
X160869819Y-58782268D01*
X160869819Y-58782268D02*
X160917438Y-58639411D01*
X161822200Y-57829887D02*
X161869819Y-57925125D01*
X161869819Y-57925125D02*
X161869819Y-58115601D01*
X161869819Y-58115601D02*
X161822200Y-58210839D01*
X161822200Y-58210839D02*
X161726961Y-58258458D01*
X161726961Y-58258458D02*
X161346009Y-58258458D01*
X161346009Y-58258458D02*
X161250771Y-58210839D01*
X161250771Y-58210839D02*
X161203152Y-58115601D01*
X161203152Y-58115601D02*
X161203152Y-57925125D01*
X161203152Y-57925125D02*
X161250771Y-57829887D01*
X161250771Y-57829887D02*
X161346009Y-57782268D01*
X161346009Y-57782268D02*
X161441247Y-57782268D01*
X161441247Y-57782268D02*
X161536485Y-58258458D01*
X161203152Y-57353696D02*
X161869819Y-57353696D01*
X161298390Y-57353696D02*
X161250771Y-57306077D01*
X161250771Y-57306077D02*
X161203152Y-57210839D01*
X161203152Y-57210839D02*
X161203152Y-57067982D01*
X161203152Y-57067982D02*
X161250771Y-56972744D01*
X161250771Y-56972744D02*
X161346009Y-56925125D01*
X161346009Y-56925125D02*
X161869819Y-56925125D01*
X161822200Y-56496553D02*
X161869819Y-56401315D01*
X161869819Y-56401315D02*
X161869819Y-56210839D01*
X161869819Y-56210839D02*
X161822200Y-56115601D01*
X161822200Y-56115601D02*
X161726961Y-56067982D01*
X161726961Y-56067982D02*
X161679342Y-56067982D01*
X161679342Y-56067982D02*
X161584104Y-56115601D01*
X161584104Y-56115601D02*
X161536485Y-56210839D01*
X161536485Y-56210839D02*
X161536485Y-56353696D01*
X161536485Y-56353696D02*
X161488866Y-56448934D01*
X161488866Y-56448934D02*
X161393628Y-56496553D01*
X161393628Y-56496553D02*
X161346009Y-56496553D01*
X161346009Y-56496553D02*
X161250771Y-56448934D01*
X161250771Y-56448934D02*
X161203152Y-56353696D01*
X161203152Y-56353696D02*
X161203152Y-56210839D01*
X161203152Y-56210839D02*
X161250771Y-56115601D01*
X161869819Y-55496553D02*
X161822200Y-55591791D01*
X161822200Y-55591791D02*
X161774580Y-55639410D01*
X161774580Y-55639410D02*
X161679342Y-55687029D01*
X161679342Y-55687029D02*
X161393628Y-55687029D01*
X161393628Y-55687029D02*
X161298390Y-55639410D01*
X161298390Y-55639410D02*
X161250771Y-55591791D01*
X161250771Y-55591791D02*
X161203152Y-55496553D01*
X161203152Y-55496553D02*
X161203152Y-55353696D01*
X161203152Y-55353696D02*
X161250771Y-55258458D01*
X161250771Y-55258458D02*
X161298390Y-55210839D01*
X161298390Y-55210839D02*
X161393628Y-55163220D01*
X161393628Y-55163220D02*
X161679342Y-55163220D01*
X161679342Y-55163220D02*
X161774580Y-55210839D01*
X161774580Y-55210839D02*
X161822200Y-55258458D01*
X161822200Y-55258458D02*
X161869819Y-55353696D01*
X161869819Y-55353696D02*
X161869819Y-55496553D01*
X161869819Y-54734648D02*
X161203152Y-54734648D01*
X161393628Y-54734648D02*
X161298390Y-54687029D01*
X161298390Y-54687029D02*
X161250771Y-54639410D01*
X161250771Y-54639410D02*
X161203152Y-54544172D01*
X161203152Y-54544172D02*
X161203152Y-54448934D01*
X160965057Y-54163219D02*
X160917438Y-54115600D01*
X160917438Y-54115600D02*
X160869819Y-54020362D01*
X160869819Y-54020362D02*
X160869819Y-53782267D01*
X160869819Y-53782267D02*
X160917438Y-53687029D01*
X160917438Y-53687029D02*
X160965057Y-53639410D01*
X160965057Y-53639410D02*
X161060295Y-53591791D01*
X161060295Y-53591791D02*
X161155533Y-53591791D01*
X161155533Y-53591791D02*
X161298390Y-53639410D01*
X161298390Y-53639410D02*
X161869819Y-54210838D01*
X161869819Y-54210838D02*
X161869819Y-53591791D01*
X142369819Y-70163220D02*
X143179342Y-70163220D01*
X143179342Y-70163220D02*
X143274580Y-70115601D01*
X143274580Y-70115601D02*
X143322200Y-70067982D01*
X143322200Y-70067982D02*
X143369819Y-69972744D01*
X143369819Y-69972744D02*
X143369819Y-69782268D01*
X143369819Y-69782268D02*
X143322200Y-69687030D01*
X143322200Y-69687030D02*
X143274580Y-69639411D01*
X143274580Y-69639411D02*
X143179342Y-69591792D01*
X143179342Y-69591792D02*
X142369819Y-69591792D01*
X142703152Y-69115601D02*
X143369819Y-69115601D01*
X142798390Y-69115601D02*
X142750771Y-69067982D01*
X142750771Y-69067982D02*
X142703152Y-68972744D01*
X142703152Y-68972744D02*
X142703152Y-68829887D01*
X142703152Y-68829887D02*
X142750771Y-68734649D01*
X142750771Y-68734649D02*
X142846009Y-68687030D01*
X142846009Y-68687030D02*
X143369819Y-68687030D01*
X143369819Y-68210839D02*
X142703152Y-68210839D01*
X142369819Y-68210839D02*
X142417438Y-68258458D01*
X142417438Y-68258458D02*
X142465057Y-68210839D01*
X142465057Y-68210839D02*
X142417438Y-68163220D01*
X142417438Y-68163220D02*
X142369819Y-68210839D01*
X142369819Y-68210839D02*
X142465057Y-68210839D01*
X142703152Y-67877506D02*
X142703152Y-67496554D01*
X142369819Y-67734649D02*
X143226961Y-67734649D01*
X143226961Y-67734649D02*
X143322200Y-67687030D01*
X143322200Y-67687030D02*
X143369819Y-67591792D01*
X143369819Y-67591792D02*
X143369819Y-67496554D01*
X143322200Y-67210839D02*
X143369819Y-67115601D01*
X143369819Y-67115601D02*
X143369819Y-66925125D01*
X143369819Y-66925125D02*
X143322200Y-66829887D01*
X143322200Y-66829887D02*
X143226961Y-66782268D01*
X143226961Y-66782268D02*
X143179342Y-66782268D01*
X143179342Y-66782268D02*
X143084104Y-66829887D01*
X143084104Y-66829887D02*
X143036485Y-66925125D01*
X143036485Y-66925125D02*
X143036485Y-67067982D01*
X143036485Y-67067982D02*
X142988866Y-67163220D01*
X142988866Y-67163220D02*
X142893628Y-67210839D01*
X142893628Y-67210839D02*
X142846009Y-67210839D01*
X142846009Y-67210839D02*
X142750771Y-67163220D01*
X142750771Y-67163220D02*
X142703152Y-67067982D01*
X142703152Y-67067982D02*
X142703152Y-66925125D01*
X142703152Y-66925125D02*
X142750771Y-66829887D01*
X153869819Y-70187030D02*
X153869819Y-70663220D01*
X153869819Y-70663220D02*
X152869819Y-70663220D01*
X153869819Y-69710839D02*
X153822200Y-69806077D01*
X153822200Y-69806077D02*
X153774580Y-69853696D01*
X153774580Y-69853696D02*
X153679342Y-69901315D01*
X153679342Y-69901315D02*
X153393628Y-69901315D01*
X153393628Y-69901315D02*
X153298390Y-69853696D01*
X153298390Y-69853696D02*
X153250771Y-69806077D01*
X153250771Y-69806077D02*
X153203152Y-69710839D01*
X153203152Y-69710839D02*
X153203152Y-69567982D01*
X153203152Y-69567982D02*
X153250771Y-69472744D01*
X153250771Y-69472744D02*
X153298390Y-69425125D01*
X153298390Y-69425125D02*
X153393628Y-69377506D01*
X153393628Y-69377506D02*
X153679342Y-69377506D01*
X153679342Y-69377506D02*
X153774580Y-69425125D01*
X153774580Y-69425125D02*
X153822200Y-69472744D01*
X153822200Y-69472744D02*
X153869819Y-69567982D01*
X153869819Y-69567982D02*
X153869819Y-69710839D01*
X153822200Y-68520363D02*
X153869819Y-68615601D01*
X153869819Y-68615601D02*
X153869819Y-68806077D01*
X153869819Y-68806077D02*
X153822200Y-68901315D01*
X153822200Y-68901315D02*
X153774580Y-68948934D01*
X153774580Y-68948934D02*
X153679342Y-68996553D01*
X153679342Y-68996553D02*
X153393628Y-68996553D01*
X153393628Y-68996553D02*
X153298390Y-68948934D01*
X153298390Y-68948934D02*
X153250771Y-68901315D01*
X153250771Y-68901315D02*
X153203152Y-68806077D01*
X153203152Y-68806077D02*
X153203152Y-68615601D01*
X153203152Y-68615601D02*
X153250771Y-68520363D01*
X153869819Y-68091791D02*
X152869819Y-68091791D01*
X153488866Y-67996553D02*
X153869819Y-67710839D01*
X153203152Y-67710839D02*
X153584104Y-68091791D01*
X134774580Y-85091792D02*
X134822200Y-85139411D01*
X134822200Y-85139411D02*
X134869819Y-85282268D01*
X134869819Y-85282268D02*
X134869819Y-85377506D01*
X134869819Y-85377506D02*
X134822200Y-85520363D01*
X134822200Y-85520363D02*
X134726961Y-85615601D01*
X134726961Y-85615601D02*
X134631723Y-85663220D01*
X134631723Y-85663220D02*
X134441247Y-85710839D01*
X134441247Y-85710839D02*
X134298390Y-85710839D01*
X134298390Y-85710839D02*
X134107914Y-85663220D01*
X134107914Y-85663220D02*
X134012676Y-85615601D01*
X134012676Y-85615601D02*
X133917438Y-85520363D01*
X133917438Y-85520363D02*
X133869819Y-85377506D01*
X133869819Y-85377506D02*
X133869819Y-85282268D01*
X133869819Y-85282268D02*
X133917438Y-85139411D01*
X133917438Y-85139411D02*
X133965057Y-85091792D01*
X134869819Y-84234649D02*
X134346009Y-84234649D01*
X134346009Y-84234649D02*
X134250771Y-84282268D01*
X134250771Y-84282268D02*
X134203152Y-84377506D01*
X134203152Y-84377506D02*
X134203152Y-84567982D01*
X134203152Y-84567982D02*
X134250771Y-84663220D01*
X134822200Y-84234649D02*
X134869819Y-84329887D01*
X134869819Y-84329887D02*
X134869819Y-84567982D01*
X134869819Y-84567982D02*
X134822200Y-84663220D01*
X134822200Y-84663220D02*
X134726961Y-84710839D01*
X134726961Y-84710839D02*
X134631723Y-84710839D01*
X134631723Y-84710839D02*
X134536485Y-84663220D01*
X134536485Y-84663220D02*
X134488866Y-84567982D01*
X134488866Y-84567982D02*
X134488866Y-84329887D01*
X134488866Y-84329887D02*
X134441247Y-84234649D01*
X134869819Y-83615601D02*
X134822200Y-83710839D01*
X134822200Y-83710839D02*
X134726961Y-83758458D01*
X134726961Y-83758458D02*
X133869819Y-83758458D01*
X144369819Y-86687030D02*
X144369819Y-87163220D01*
X144369819Y-87163220D02*
X143369819Y-87163220D01*
X144369819Y-86353696D02*
X143703152Y-86353696D01*
X143369819Y-86353696D02*
X143417438Y-86401315D01*
X143417438Y-86401315D02*
X143465057Y-86353696D01*
X143465057Y-86353696D02*
X143417438Y-86306077D01*
X143417438Y-86306077D02*
X143369819Y-86353696D01*
X143369819Y-86353696D02*
X143465057Y-86353696D01*
X143703152Y-85448935D02*
X144512676Y-85448935D01*
X144512676Y-85448935D02*
X144607914Y-85496554D01*
X144607914Y-85496554D02*
X144655533Y-85544173D01*
X144655533Y-85544173D02*
X144703152Y-85639411D01*
X144703152Y-85639411D02*
X144703152Y-85782268D01*
X144703152Y-85782268D02*
X144655533Y-85877506D01*
X144322200Y-85448935D02*
X144369819Y-85544173D01*
X144369819Y-85544173D02*
X144369819Y-85734649D01*
X144369819Y-85734649D02*
X144322200Y-85829887D01*
X144322200Y-85829887D02*
X144274580Y-85877506D01*
X144274580Y-85877506D02*
X144179342Y-85925125D01*
X144179342Y-85925125D02*
X143893628Y-85925125D01*
X143893628Y-85925125D02*
X143798390Y-85877506D01*
X143798390Y-85877506D02*
X143750771Y-85829887D01*
X143750771Y-85829887D02*
X143703152Y-85734649D01*
X143703152Y-85734649D02*
X143703152Y-85544173D01*
X143703152Y-85544173D02*
X143750771Y-85448935D01*
X144369819Y-84972744D02*
X143369819Y-84972744D01*
X144369819Y-84544173D02*
X143846009Y-84544173D01*
X143846009Y-84544173D02*
X143750771Y-84591792D01*
X143750771Y-84591792D02*
X143703152Y-84687030D01*
X143703152Y-84687030D02*
X143703152Y-84829887D01*
X143703152Y-84829887D02*
X143750771Y-84925125D01*
X143750771Y-84925125D02*
X143798390Y-84972744D01*
X143703152Y-84210839D02*
X143703152Y-83829887D01*
X143369819Y-84067982D02*
X144226961Y-84067982D01*
X144226961Y-84067982D02*
X144322200Y-84020363D01*
X144322200Y-84020363D02*
X144369819Y-83925125D01*
X144369819Y-83925125D02*
X144369819Y-83829887D01*
X104789160Y-69822200D02*
X104932017Y-69869819D01*
X104932017Y-69869819D02*
X105170112Y-69869819D01*
X105170112Y-69869819D02*
X105265350Y-69822200D01*
X105265350Y-69822200D02*
X105312969Y-69774580D01*
X105312969Y-69774580D02*
X105360588Y-69679342D01*
X105360588Y-69679342D02*
X105360588Y-69584104D01*
X105360588Y-69584104D02*
X105312969Y-69488866D01*
X105312969Y-69488866D02*
X105265350Y-69441247D01*
X105265350Y-69441247D02*
X105170112Y-69393628D01*
X105170112Y-69393628D02*
X104979636Y-69346009D01*
X104979636Y-69346009D02*
X104884398Y-69298390D01*
X104884398Y-69298390D02*
X104836779Y-69250771D01*
X104836779Y-69250771D02*
X104789160Y-69155533D01*
X104789160Y-69155533D02*
X104789160Y-69060295D01*
X104789160Y-69060295D02*
X104836779Y-68965057D01*
X104836779Y-68965057D02*
X104884398Y-68917438D01*
X104884398Y-68917438D02*
X104979636Y-68869819D01*
X104979636Y-68869819D02*
X105217731Y-68869819D01*
X105217731Y-68869819D02*
X105360588Y-68917438D01*
X106217731Y-69822200D02*
X106122493Y-69869819D01*
X106122493Y-69869819D02*
X105932017Y-69869819D01*
X105932017Y-69869819D02*
X105836779Y-69822200D01*
X105836779Y-69822200D02*
X105789160Y-69774580D01*
X105789160Y-69774580D02*
X105741541Y-69679342D01*
X105741541Y-69679342D02*
X105741541Y-69393628D01*
X105741541Y-69393628D02*
X105789160Y-69298390D01*
X105789160Y-69298390D02*
X105836779Y-69250771D01*
X105836779Y-69250771D02*
X105932017Y-69203152D01*
X105932017Y-69203152D02*
X106122493Y-69203152D01*
X106122493Y-69203152D02*
X106217731Y-69250771D01*
X106646303Y-69869819D02*
X106646303Y-69203152D01*
X106646303Y-69393628D02*
X106693922Y-69298390D01*
X106693922Y-69298390D02*
X106741541Y-69250771D01*
X106741541Y-69250771D02*
X106836779Y-69203152D01*
X106836779Y-69203152D02*
X106932017Y-69203152D01*
X107646303Y-69822200D02*
X107551065Y-69869819D01*
X107551065Y-69869819D02*
X107360589Y-69869819D01*
X107360589Y-69869819D02*
X107265351Y-69822200D01*
X107265351Y-69822200D02*
X107217732Y-69726961D01*
X107217732Y-69726961D02*
X107217732Y-69346009D01*
X107217732Y-69346009D02*
X107265351Y-69250771D01*
X107265351Y-69250771D02*
X107360589Y-69203152D01*
X107360589Y-69203152D02*
X107551065Y-69203152D01*
X107551065Y-69203152D02*
X107646303Y-69250771D01*
X107646303Y-69250771D02*
X107693922Y-69346009D01*
X107693922Y-69346009D02*
X107693922Y-69441247D01*
X107693922Y-69441247D02*
X107217732Y-69536485D01*
X108503446Y-69822200D02*
X108408208Y-69869819D01*
X108408208Y-69869819D02*
X108217732Y-69869819D01*
X108217732Y-69869819D02*
X108122494Y-69822200D01*
X108122494Y-69822200D02*
X108074875Y-69726961D01*
X108074875Y-69726961D02*
X108074875Y-69346009D01*
X108074875Y-69346009D02*
X108122494Y-69250771D01*
X108122494Y-69250771D02*
X108217732Y-69203152D01*
X108217732Y-69203152D02*
X108408208Y-69203152D01*
X108408208Y-69203152D02*
X108503446Y-69250771D01*
X108503446Y-69250771D02*
X108551065Y-69346009D01*
X108551065Y-69346009D02*
X108551065Y-69441247D01*
X108551065Y-69441247D02*
X108074875Y-69536485D01*
X108979637Y-69203152D02*
X108979637Y-69869819D01*
X108979637Y-69298390D02*
X109027256Y-69250771D01*
X109027256Y-69250771D02*
X109122494Y-69203152D01*
X109122494Y-69203152D02*
X109265351Y-69203152D01*
X109265351Y-69203152D02*
X109360589Y-69250771D01*
X109360589Y-69250771D02*
X109408208Y-69346009D01*
X109408208Y-69346009D02*
X109408208Y-69869819D01*
X137907200Y-70583332D02*
X137954819Y-70440475D01*
X137954819Y-70440475D02*
X137954819Y-70202380D01*
X137954819Y-70202380D02*
X137907200Y-70107142D01*
X137907200Y-70107142D02*
X137859580Y-70059523D01*
X137859580Y-70059523D02*
X137764342Y-70011904D01*
X137764342Y-70011904D02*
X137669104Y-70011904D01*
X137669104Y-70011904D02*
X137573866Y-70059523D01*
X137573866Y-70059523D02*
X137526247Y-70107142D01*
X137526247Y-70107142D02*
X137478628Y-70202380D01*
X137478628Y-70202380D02*
X137431009Y-70392856D01*
X137431009Y-70392856D02*
X137383390Y-70488094D01*
X137383390Y-70488094D02*
X137335771Y-70535713D01*
X137335771Y-70535713D02*
X137240533Y-70583332D01*
X137240533Y-70583332D02*
X137145295Y-70583332D01*
X137145295Y-70583332D02*
X137050057Y-70535713D01*
X137050057Y-70535713D02*
X137002438Y-70488094D01*
X137002438Y-70488094D02*
X136954819Y-70392856D01*
X136954819Y-70392856D02*
X136954819Y-70154761D01*
X136954819Y-70154761D02*
X137002438Y-70011904D01*
X136954819Y-69678570D02*
X137954819Y-69440475D01*
X137954819Y-69440475D02*
X137240533Y-69249999D01*
X137240533Y-69249999D02*
X137954819Y-69059523D01*
X137954819Y-69059523D02*
X136954819Y-68821428D01*
X137954819Y-67916666D02*
X137954819Y-68488094D01*
X137954819Y-68202380D02*
X136954819Y-68202380D01*
X136954819Y-68202380D02*
X137097676Y-68297618D01*
X137097676Y-68297618D02*
X137192914Y-68392856D01*
X137192914Y-68392856D02*
X137240533Y-68488094D01*
X156333333Y-77454819D02*
X156000000Y-76978628D01*
X155761905Y-77454819D02*
X155761905Y-76454819D01*
X155761905Y-76454819D02*
X156142857Y-76454819D01*
X156142857Y-76454819D02*
X156238095Y-76502438D01*
X156238095Y-76502438D02*
X156285714Y-76550057D01*
X156285714Y-76550057D02*
X156333333Y-76645295D01*
X156333333Y-76645295D02*
X156333333Y-76788152D01*
X156333333Y-76788152D02*
X156285714Y-76883390D01*
X156285714Y-76883390D02*
X156238095Y-76931009D01*
X156238095Y-76931009D02*
X156142857Y-76978628D01*
X156142857Y-76978628D02*
X155761905Y-76978628D01*
X157190476Y-76788152D02*
X157190476Y-77454819D01*
X156952381Y-76407200D02*
X156714286Y-77121485D01*
X156714286Y-77121485D02*
X157333333Y-77121485D01*
X154333333Y-93454819D02*
X154000000Y-92978628D01*
X153761905Y-93454819D02*
X153761905Y-92454819D01*
X153761905Y-92454819D02*
X154142857Y-92454819D01*
X154142857Y-92454819D02*
X154238095Y-92502438D01*
X154238095Y-92502438D02*
X154285714Y-92550057D01*
X154285714Y-92550057D02*
X154333333Y-92645295D01*
X154333333Y-92645295D02*
X154333333Y-92788152D01*
X154333333Y-92788152D02*
X154285714Y-92883390D01*
X154285714Y-92883390D02*
X154238095Y-92931009D01*
X154238095Y-92931009D02*
X154142857Y-92978628D01*
X154142857Y-92978628D02*
X153761905Y-92978628D01*
X155238095Y-92454819D02*
X154761905Y-92454819D01*
X154761905Y-92454819D02*
X154714286Y-92931009D01*
X154714286Y-92931009D02*
X154761905Y-92883390D01*
X154761905Y-92883390D02*
X154857143Y-92835771D01*
X154857143Y-92835771D02*
X155095238Y-92835771D01*
X155095238Y-92835771D02*
X155190476Y-92883390D01*
X155190476Y-92883390D02*
X155238095Y-92931009D01*
X155238095Y-92931009D02*
X155285714Y-93026247D01*
X155285714Y-93026247D02*
X155285714Y-93264342D01*
X155285714Y-93264342D02*
X155238095Y-93359580D01*
X155238095Y-93359580D02*
X155190476Y-93407200D01*
X155190476Y-93407200D02*
X155095238Y-93454819D01*
X155095238Y-93454819D02*
X154857143Y-93454819D01*
X154857143Y-93454819D02*
X154761905Y-93407200D01*
X154761905Y-93407200D02*
X154714286Y-93359580D01*
X160509819Y-85595238D02*
X160033628Y-85928571D01*
X160509819Y-86166666D02*
X159509819Y-86166666D01*
X159509819Y-86166666D02*
X159509819Y-85785714D01*
X159509819Y-85785714D02*
X159557438Y-85690476D01*
X159557438Y-85690476D02*
X159605057Y-85642857D01*
X159605057Y-85642857D02*
X159700295Y-85595238D01*
X159700295Y-85595238D02*
X159843152Y-85595238D01*
X159843152Y-85595238D02*
X159938390Y-85642857D01*
X159938390Y-85642857D02*
X159986009Y-85690476D01*
X159986009Y-85690476D02*
X160033628Y-85785714D01*
X160033628Y-85785714D02*
X160033628Y-86166666D01*
X159509819Y-85309523D02*
X160509819Y-84976190D01*
X160509819Y-84976190D02*
X159509819Y-84642857D01*
X160509819Y-83785714D02*
X160509819Y-84357142D01*
X160509819Y-84071428D02*
X159509819Y-84071428D01*
X159509819Y-84071428D02*
X159652676Y-84166666D01*
X159652676Y-84166666D02*
X159747914Y-84261904D01*
X159747914Y-84261904D02*
X159795533Y-84357142D01*
X158407200Y-70333332D02*
X158454819Y-70190475D01*
X158454819Y-70190475D02*
X158454819Y-69952380D01*
X158454819Y-69952380D02*
X158407200Y-69857142D01*
X158407200Y-69857142D02*
X158359580Y-69809523D01*
X158359580Y-69809523D02*
X158264342Y-69761904D01*
X158264342Y-69761904D02*
X158169104Y-69761904D01*
X158169104Y-69761904D02*
X158073866Y-69809523D01*
X158073866Y-69809523D02*
X158026247Y-69857142D01*
X158026247Y-69857142D02*
X157978628Y-69952380D01*
X157978628Y-69952380D02*
X157931009Y-70142856D01*
X157931009Y-70142856D02*
X157883390Y-70238094D01*
X157883390Y-70238094D02*
X157835771Y-70285713D01*
X157835771Y-70285713D02*
X157740533Y-70333332D01*
X157740533Y-70333332D02*
X157645295Y-70333332D01*
X157645295Y-70333332D02*
X157550057Y-70285713D01*
X157550057Y-70285713D02*
X157502438Y-70238094D01*
X157502438Y-70238094D02*
X157454819Y-70142856D01*
X157454819Y-70142856D02*
X157454819Y-69904761D01*
X157454819Y-69904761D02*
X157502438Y-69761904D01*
X157454819Y-69428570D02*
X158454819Y-69190475D01*
X158454819Y-69190475D02*
X157740533Y-68999999D01*
X157740533Y-68999999D02*
X158454819Y-68809523D01*
X158454819Y-68809523D02*
X157454819Y-68571428D01*
X157550057Y-68238094D02*
X157502438Y-68190475D01*
X157502438Y-68190475D02*
X157454819Y-68095237D01*
X157454819Y-68095237D02*
X157454819Y-67857142D01*
X157454819Y-67857142D02*
X157502438Y-67761904D01*
X157502438Y-67761904D02*
X157550057Y-67714285D01*
X157550057Y-67714285D02*
X157645295Y-67666666D01*
X157645295Y-67666666D02*
X157740533Y-67666666D01*
X157740533Y-67666666D02*
X157883390Y-67714285D01*
X157883390Y-67714285D02*
X158454819Y-68285713D01*
X158454819Y-68285713D02*
X158454819Y-67666666D01*
X148407200Y-71083332D02*
X148454819Y-70940475D01*
X148454819Y-70940475D02*
X148454819Y-70702380D01*
X148454819Y-70702380D02*
X148407200Y-70607142D01*
X148407200Y-70607142D02*
X148359580Y-70559523D01*
X148359580Y-70559523D02*
X148264342Y-70511904D01*
X148264342Y-70511904D02*
X148169104Y-70511904D01*
X148169104Y-70511904D02*
X148073866Y-70559523D01*
X148073866Y-70559523D02*
X148026247Y-70607142D01*
X148026247Y-70607142D02*
X147978628Y-70702380D01*
X147978628Y-70702380D02*
X147931009Y-70892856D01*
X147931009Y-70892856D02*
X147883390Y-70988094D01*
X147883390Y-70988094D02*
X147835771Y-71035713D01*
X147835771Y-71035713D02*
X147740533Y-71083332D01*
X147740533Y-71083332D02*
X147645295Y-71083332D01*
X147645295Y-71083332D02*
X147550057Y-71035713D01*
X147550057Y-71035713D02*
X147502438Y-70988094D01*
X147502438Y-70988094D02*
X147454819Y-70892856D01*
X147454819Y-70892856D02*
X147454819Y-70654761D01*
X147454819Y-70654761D02*
X147502438Y-70511904D01*
X147454819Y-70178570D02*
X148454819Y-69940475D01*
X148454819Y-69940475D02*
X147740533Y-69749999D01*
X147740533Y-69749999D02*
X148454819Y-69559523D01*
X148454819Y-69559523D02*
X147454819Y-69321428D01*
X147454819Y-69035713D02*
X147454819Y-68416666D01*
X147454819Y-68416666D02*
X147835771Y-68749999D01*
X147835771Y-68749999D02*
X147835771Y-68607142D01*
X147835771Y-68607142D02*
X147883390Y-68511904D01*
X147883390Y-68511904D02*
X147931009Y-68464285D01*
X147931009Y-68464285D02*
X148026247Y-68416666D01*
X148026247Y-68416666D02*
X148264342Y-68416666D01*
X148264342Y-68416666D02*
X148359580Y-68464285D01*
X148359580Y-68464285D02*
X148407200Y-68511904D01*
X148407200Y-68511904D02*
X148454819Y-68607142D01*
X148454819Y-68607142D02*
X148454819Y-68892856D01*
X148454819Y-68892856D02*
X148407200Y-68988094D01*
X148407200Y-68988094D02*
X148359580Y-69035713D01*
X139907200Y-85833332D02*
X139954819Y-85690475D01*
X139954819Y-85690475D02*
X139954819Y-85452380D01*
X139954819Y-85452380D02*
X139907200Y-85357142D01*
X139907200Y-85357142D02*
X139859580Y-85309523D01*
X139859580Y-85309523D02*
X139764342Y-85261904D01*
X139764342Y-85261904D02*
X139669104Y-85261904D01*
X139669104Y-85261904D02*
X139573866Y-85309523D01*
X139573866Y-85309523D02*
X139526247Y-85357142D01*
X139526247Y-85357142D02*
X139478628Y-85452380D01*
X139478628Y-85452380D02*
X139431009Y-85642856D01*
X139431009Y-85642856D02*
X139383390Y-85738094D01*
X139383390Y-85738094D02*
X139335771Y-85785713D01*
X139335771Y-85785713D02*
X139240533Y-85833332D01*
X139240533Y-85833332D02*
X139145295Y-85833332D01*
X139145295Y-85833332D02*
X139050057Y-85785713D01*
X139050057Y-85785713D02*
X139002438Y-85738094D01*
X139002438Y-85738094D02*
X138954819Y-85642856D01*
X138954819Y-85642856D02*
X138954819Y-85404761D01*
X138954819Y-85404761D02*
X139002438Y-85261904D01*
X138954819Y-84928570D02*
X139954819Y-84690475D01*
X139954819Y-84690475D02*
X139240533Y-84499999D01*
X139240533Y-84499999D02*
X139954819Y-84309523D01*
X139954819Y-84309523D02*
X138954819Y-84071428D01*
X138954819Y-83214285D02*
X138954819Y-83690475D01*
X138954819Y-83690475D02*
X139431009Y-83738094D01*
X139431009Y-83738094D02*
X139383390Y-83690475D01*
X139383390Y-83690475D02*
X139335771Y-83595237D01*
X139335771Y-83595237D02*
X139335771Y-83357142D01*
X139335771Y-83357142D02*
X139383390Y-83261904D01*
X139383390Y-83261904D02*
X139431009Y-83214285D01*
X139431009Y-83214285D02*
X139526247Y-83166666D01*
X139526247Y-83166666D02*
X139764342Y-83166666D01*
X139764342Y-83166666D02*
X139859580Y-83214285D01*
X139859580Y-83214285D02*
X139907200Y-83261904D01*
X139907200Y-83261904D02*
X139954819Y-83357142D01*
X139954819Y-83357142D02*
X139954819Y-83595237D01*
X139954819Y-83595237D02*
X139907200Y-83690475D01*
X139907200Y-83690475D02*
X139859580Y-83738094D01*
X139753333Y-92954819D02*
X139420000Y-92478628D01*
X139181905Y-92954819D02*
X139181905Y-91954819D01*
X139181905Y-91954819D02*
X139562857Y-91954819D01*
X139562857Y-91954819D02*
X139658095Y-92002438D01*
X139658095Y-92002438D02*
X139705714Y-92050057D01*
X139705714Y-92050057D02*
X139753333Y-92145295D01*
X139753333Y-92145295D02*
X139753333Y-92288152D01*
X139753333Y-92288152D02*
X139705714Y-92383390D01*
X139705714Y-92383390D02*
X139658095Y-92431009D01*
X139658095Y-92431009D02*
X139562857Y-92478628D01*
X139562857Y-92478628D02*
X139181905Y-92478628D01*
X140610476Y-91954819D02*
X140420000Y-91954819D01*
X140420000Y-91954819D02*
X140324762Y-92002438D01*
X140324762Y-92002438D02*
X140277143Y-92050057D01*
X140277143Y-92050057D02*
X140181905Y-92192914D01*
X140181905Y-92192914D02*
X140134286Y-92383390D01*
X140134286Y-92383390D02*
X140134286Y-92764342D01*
X140134286Y-92764342D02*
X140181905Y-92859580D01*
X140181905Y-92859580D02*
X140229524Y-92907200D01*
X140229524Y-92907200D02*
X140324762Y-92954819D01*
X140324762Y-92954819D02*
X140515238Y-92954819D01*
X140515238Y-92954819D02*
X140610476Y-92907200D01*
X140610476Y-92907200D02*
X140658095Y-92859580D01*
X140658095Y-92859580D02*
X140705714Y-92764342D01*
X140705714Y-92764342D02*
X140705714Y-92526247D01*
X140705714Y-92526247D02*
X140658095Y-92431009D01*
X140658095Y-92431009D02*
X140610476Y-92383390D01*
X140610476Y-92383390D02*
X140515238Y-92335771D01*
X140515238Y-92335771D02*
X140324762Y-92335771D01*
X140324762Y-92335771D02*
X140229524Y-92383390D01*
X140229524Y-92383390D02*
X140181905Y-92431009D01*
X140181905Y-92431009D02*
X140134286Y-92526247D01*
X102166666Y-62454819D02*
X102166666Y-63169104D01*
X102166666Y-63169104D02*
X102119047Y-63311961D01*
X102119047Y-63311961D02*
X102023809Y-63407200D01*
X102023809Y-63407200D02*
X101880952Y-63454819D01*
X101880952Y-63454819D02*
X101785714Y-63454819D01*
X102690476Y-63454819D02*
X102880952Y-63454819D01*
X102880952Y-63454819D02*
X102976190Y-63407200D01*
X102976190Y-63407200D02*
X103023809Y-63359580D01*
X103023809Y-63359580D02*
X103119047Y-63216723D01*
X103119047Y-63216723D02*
X103166666Y-63026247D01*
X103166666Y-63026247D02*
X103166666Y-62645295D01*
X103166666Y-62645295D02*
X103119047Y-62550057D01*
X103119047Y-62550057D02*
X103071428Y-62502438D01*
X103071428Y-62502438D02*
X102976190Y-62454819D01*
X102976190Y-62454819D02*
X102785714Y-62454819D01*
X102785714Y-62454819D02*
X102690476Y-62502438D01*
X102690476Y-62502438D02*
X102642857Y-62550057D01*
X102642857Y-62550057D02*
X102595238Y-62645295D01*
X102595238Y-62645295D02*
X102595238Y-62883390D01*
X102595238Y-62883390D02*
X102642857Y-62978628D01*
X102642857Y-62978628D02*
X102690476Y-63026247D01*
X102690476Y-63026247D02*
X102785714Y-63073866D01*
X102785714Y-63073866D02*
X102976190Y-63073866D01*
X102976190Y-63073866D02*
X103071428Y-63026247D01*
X103071428Y-63026247D02*
X103119047Y-62978628D01*
X103119047Y-62978628D02*
X103166666Y-62883390D01*
X114190476Y-70954819D02*
X114190476Y-71669104D01*
X114190476Y-71669104D02*
X114142857Y-71811961D01*
X114142857Y-71811961D02*
X114047619Y-71907200D01*
X114047619Y-71907200D02*
X113904762Y-71954819D01*
X113904762Y-71954819D02*
X113809524Y-71954819D01*
X115190476Y-71954819D02*
X114619048Y-71954819D01*
X114904762Y-71954819D02*
X114904762Y-70954819D01*
X114904762Y-70954819D02*
X114809524Y-71097676D01*
X114809524Y-71097676D02*
X114714286Y-71192914D01*
X114714286Y-71192914D02*
X114619048Y-71240533D01*
X115809524Y-70954819D02*
X115904762Y-70954819D01*
X115904762Y-70954819D02*
X116000000Y-71002438D01*
X116000000Y-71002438D02*
X116047619Y-71050057D01*
X116047619Y-71050057D02*
X116095238Y-71145295D01*
X116095238Y-71145295D02*
X116142857Y-71335771D01*
X116142857Y-71335771D02*
X116142857Y-71573866D01*
X116142857Y-71573866D02*
X116095238Y-71764342D01*
X116095238Y-71764342D02*
X116047619Y-71859580D01*
X116047619Y-71859580D02*
X116000000Y-71907200D01*
X116000000Y-71907200D02*
X115904762Y-71954819D01*
X115904762Y-71954819D02*
X115809524Y-71954819D01*
X115809524Y-71954819D02*
X115714286Y-71907200D01*
X115714286Y-71907200D02*
X115666667Y-71859580D01*
X115666667Y-71859580D02*
X115619048Y-71764342D01*
X115619048Y-71764342D02*
X115571429Y-71573866D01*
X115571429Y-71573866D02*
X115571429Y-71335771D01*
X115571429Y-71335771D02*
X115619048Y-71145295D01*
X115619048Y-71145295D02*
X115666667Y-71050057D01*
X115666667Y-71050057D02*
X115714286Y-71002438D01*
X115714286Y-71002438D02*
X115809524Y-70954819D01*
X141833333Y-62954819D02*
X141500000Y-62478628D01*
X141261905Y-62954819D02*
X141261905Y-61954819D01*
X141261905Y-61954819D02*
X141642857Y-61954819D01*
X141642857Y-61954819D02*
X141738095Y-62002438D01*
X141738095Y-62002438D02*
X141785714Y-62050057D01*
X141785714Y-62050057D02*
X141833333Y-62145295D01*
X141833333Y-62145295D02*
X141833333Y-62288152D01*
X141833333Y-62288152D02*
X141785714Y-62383390D01*
X141785714Y-62383390D02*
X141738095Y-62431009D01*
X141738095Y-62431009D02*
X141642857Y-62478628D01*
X141642857Y-62478628D02*
X141261905Y-62478628D01*
X142785714Y-62954819D02*
X142214286Y-62954819D01*
X142500000Y-62954819D02*
X142500000Y-61954819D01*
X142500000Y-61954819D02*
X142404762Y-62097676D01*
X142404762Y-62097676D02*
X142309524Y-62192914D01*
X142309524Y-62192914D02*
X142214286Y-62240533D01*
X166454819Y-69666666D02*
X165978628Y-69999999D01*
X166454819Y-70238094D02*
X165454819Y-70238094D01*
X165454819Y-70238094D02*
X165454819Y-69857142D01*
X165454819Y-69857142D02*
X165502438Y-69761904D01*
X165502438Y-69761904D02*
X165550057Y-69714285D01*
X165550057Y-69714285D02*
X165645295Y-69666666D01*
X165645295Y-69666666D02*
X165788152Y-69666666D01*
X165788152Y-69666666D02*
X165883390Y-69714285D01*
X165883390Y-69714285D02*
X165931009Y-69761904D01*
X165931009Y-69761904D02*
X165978628Y-69857142D01*
X165978628Y-69857142D02*
X165978628Y-70238094D01*
X165454819Y-69333332D02*
X165454819Y-68714285D01*
X165454819Y-68714285D02*
X165835771Y-69047618D01*
X165835771Y-69047618D02*
X165835771Y-68904761D01*
X165835771Y-68904761D02*
X165883390Y-68809523D01*
X165883390Y-68809523D02*
X165931009Y-68761904D01*
X165931009Y-68761904D02*
X166026247Y-68714285D01*
X166026247Y-68714285D02*
X166264342Y-68714285D01*
X166264342Y-68714285D02*
X166359580Y-68761904D01*
X166359580Y-68761904D02*
X166407200Y-68809523D01*
X166407200Y-68809523D02*
X166454819Y-68904761D01*
X166454819Y-68904761D02*
X166454819Y-69190475D01*
X166454819Y-69190475D02*
X166407200Y-69285713D01*
X166407200Y-69285713D02*
X166359580Y-69333332D01*
X142833333Y-77454819D02*
X142500000Y-76978628D01*
X142261905Y-77454819D02*
X142261905Y-76454819D01*
X142261905Y-76454819D02*
X142642857Y-76454819D01*
X142642857Y-76454819D02*
X142738095Y-76502438D01*
X142738095Y-76502438D02*
X142785714Y-76550057D01*
X142785714Y-76550057D02*
X142833333Y-76645295D01*
X142833333Y-76645295D02*
X142833333Y-76788152D01*
X142833333Y-76788152D02*
X142785714Y-76883390D01*
X142785714Y-76883390D02*
X142738095Y-76931009D01*
X142738095Y-76931009D02*
X142642857Y-76978628D01*
X142642857Y-76978628D02*
X142261905Y-76978628D01*
X143214286Y-76550057D02*
X143261905Y-76502438D01*
X143261905Y-76502438D02*
X143357143Y-76454819D01*
X143357143Y-76454819D02*
X143595238Y-76454819D01*
X143595238Y-76454819D02*
X143690476Y-76502438D01*
X143690476Y-76502438D02*
X143738095Y-76550057D01*
X143738095Y-76550057D02*
X143785714Y-76645295D01*
X143785714Y-76645295D02*
X143785714Y-76740533D01*
X143785714Y-76740533D02*
X143738095Y-76883390D01*
X143738095Y-76883390D02*
X143166667Y-77454819D01*
X143166667Y-77454819D02*
X143785714Y-77454819D01*
X149407200Y-85833332D02*
X149454819Y-85690475D01*
X149454819Y-85690475D02*
X149454819Y-85452380D01*
X149454819Y-85452380D02*
X149407200Y-85357142D01*
X149407200Y-85357142D02*
X149359580Y-85309523D01*
X149359580Y-85309523D02*
X149264342Y-85261904D01*
X149264342Y-85261904D02*
X149169104Y-85261904D01*
X149169104Y-85261904D02*
X149073866Y-85309523D01*
X149073866Y-85309523D02*
X149026247Y-85357142D01*
X149026247Y-85357142D02*
X148978628Y-85452380D01*
X148978628Y-85452380D02*
X148931009Y-85642856D01*
X148931009Y-85642856D02*
X148883390Y-85738094D01*
X148883390Y-85738094D02*
X148835771Y-85785713D01*
X148835771Y-85785713D02*
X148740533Y-85833332D01*
X148740533Y-85833332D02*
X148645295Y-85833332D01*
X148645295Y-85833332D02*
X148550057Y-85785713D01*
X148550057Y-85785713D02*
X148502438Y-85738094D01*
X148502438Y-85738094D02*
X148454819Y-85642856D01*
X148454819Y-85642856D02*
X148454819Y-85404761D01*
X148454819Y-85404761D02*
X148502438Y-85261904D01*
X148454819Y-84928570D02*
X149454819Y-84690475D01*
X149454819Y-84690475D02*
X148740533Y-84499999D01*
X148740533Y-84499999D02*
X149454819Y-84309523D01*
X149454819Y-84309523D02*
X148454819Y-84071428D01*
X148788152Y-83261904D02*
X149454819Y-83261904D01*
X148407200Y-83499999D02*
X149121485Y-83738094D01*
X149121485Y-83738094D02*
X149121485Y-83119047D01*
X137954819Y-59738094D02*
X136954819Y-59738094D01*
X136954819Y-59738094D02*
X136954819Y-59499999D01*
X136954819Y-59499999D02*
X137002438Y-59357142D01*
X137002438Y-59357142D02*
X137097676Y-59261904D01*
X137097676Y-59261904D02*
X137192914Y-59214285D01*
X137192914Y-59214285D02*
X137383390Y-59166666D01*
X137383390Y-59166666D02*
X137526247Y-59166666D01*
X137526247Y-59166666D02*
X137716723Y-59214285D01*
X137716723Y-59214285D02*
X137811961Y-59261904D01*
X137811961Y-59261904D02*
X137907200Y-59357142D01*
X137907200Y-59357142D02*
X137954819Y-59499999D01*
X137954819Y-59499999D02*
X137954819Y-59738094D01*
X137954819Y-58214285D02*
X137954819Y-58785713D01*
X137954819Y-58499999D02*
X136954819Y-58499999D01*
X136954819Y-58499999D02*
X137097676Y-58595237D01*
X137097676Y-58595237D02*
X137192914Y-58690475D01*
X137192914Y-58690475D02*
X137240533Y-58785713D01*
X152454819Y-54809523D02*
X153169104Y-54809523D01*
X153169104Y-54809523D02*
X153311961Y-54857142D01*
X153311961Y-54857142D02*
X153407200Y-54952380D01*
X153407200Y-54952380D02*
X153454819Y-55095237D01*
X153454819Y-55095237D02*
X153454819Y-55190475D01*
X153454819Y-53809523D02*
X153454819Y-54380951D01*
X153454819Y-54095237D02*
X152454819Y-54095237D01*
X152454819Y-54095237D02*
X152597676Y-54190475D01*
X152597676Y-54190475D02*
X152692914Y-54285713D01*
X152692914Y-54285713D02*
X152740533Y-54380951D01*
X153454819Y-52857142D02*
X153454819Y-53428570D01*
X153454819Y-53142856D02*
X152454819Y-53142856D01*
X152454819Y-53142856D02*
X152597676Y-53238094D01*
X152597676Y-53238094D02*
X152692914Y-53333332D01*
X152692914Y-53333332D02*
X152740533Y-53428570D01*
D11*
%TO.C,J1*%
X126610000Y-96130000D02*
X127940000Y-96130000D01*
X126610000Y-97460000D02*
X126610000Y-96130000D01*
X129210000Y-96130000D02*
X147050000Y-96130000D01*
X129210000Y-98790000D02*
X129210000Y-96130000D01*
X129210000Y-98790000D02*
X147050000Y-98790000D01*
X147050000Y-98790000D02*
X147050000Y-96130000D01*
%TO.C,J3*%
X149470000Y-96130000D02*
X150800000Y-96130000D01*
X149470000Y-97460000D02*
X149470000Y-96130000D01*
X152070000Y-96130000D02*
X164830000Y-96130000D01*
X152070000Y-98790000D02*
X152070000Y-96130000D01*
X152070000Y-98790000D02*
X164830000Y-98790000D01*
X164830000Y-98790000D02*
X164830000Y-96130000D01*
%TO.C,J2*%
X117466000Y-47870000D02*
X118796000Y-47870000D01*
X117466000Y-49200000D02*
X117466000Y-47870000D01*
X120066000Y-47870000D02*
X142986000Y-47870000D01*
X120066000Y-50530000D02*
X120066000Y-47870000D01*
X120066000Y-50530000D02*
X142986000Y-50530000D01*
X142986000Y-50530000D02*
X142986000Y-47870000D01*
%TO.C,J4*%
X144390000Y-47870000D02*
X145720000Y-47870000D01*
X144390000Y-49200000D02*
X144390000Y-47870000D01*
X146990000Y-47870000D02*
X164830000Y-47870000D01*
X146990000Y-50530000D02*
X146990000Y-47870000D01*
X146990000Y-50530000D02*
X164830000Y-50530000D01*
X164830000Y-50530000D02*
X164830000Y-47870000D01*
%TO.C,SW1*%
X134000000Y-67000000D02*
X134000000Y-71500000D01*
X136500000Y-72750000D02*
X138000000Y-72750000D01*
X138000000Y-65750000D02*
X136500000Y-65750000D01*
X140500000Y-71500000D02*
X140500000Y-67000000D01*
%TO.C,R4*%
X151880000Y-77000000D02*
X152650000Y-77000000D01*
X152650000Y-75630000D02*
X152650000Y-78370000D01*
X152650000Y-78370000D02*
X159190000Y-78370000D01*
X159190000Y-75630000D02*
X152650000Y-75630000D01*
X159190000Y-78370000D02*
X159190000Y-75630000D01*
X159960000Y-77000000D02*
X159190000Y-77000000D01*
%TO.C,R5*%
X150380000Y-93000000D02*
X151150000Y-93000000D01*
X151150000Y-91630000D02*
X151150000Y-94370000D01*
X151150000Y-94370000D02*
X157690000Y-94370000D01*
X157690000Y-91630000D02*
X151150000Y-91630000D01*
X157690000Y-94370000D02*
X157690000Y-91630000D01*
X158460000Y-93000000D02*
X157690000Y-93000000D01*
%TO.C,RV1*%
X155115000Y-80115000D02*
X155115000Y-89885000D01*
X155115000Y-80115000D02*
X164885000Y-80115000D01*
X155115000Y-89885000D02*
X164885000Y-89885000D01*
X164885000Y-80115000D02*
X164885000Y-89885000D01*
%TO.C,SW2*%
X155000000Y-67000000D02*
X155000000Y-71500000D01*
X157500000Y-72750000D02*
X159000000Y-72750000D01*
X159000000Y-65750000D02*
X157500000Y-65750000D01*
X161500000Y-71500000D02*
X161500000Y-67000000D01*
%TO.C,SW3*%
X144500000Y-67500000D02*
X144500000Y-72000000D01*
X147000000Y-73250000D02*
X148500000Y-73250000D01*
X148500000Y-66250000D02*
X147000000Y-66250000D01*
X151000000Y-72000000D02*
X151000000Y-67500000D01*
%TO.C,SW5*%
X136000000Y-82000000D02*
X136000000Y-86500000D01*
X138500000Y-87750000D02*
X140000000Y-87750000D01*
X140000000Y-80750000D02*
X138500000Y-80750000D01*
X142500000Y-86500000D02*
X142500000Y-82000000D01*
%TO.C,R6*%
X135880000Y-92500000D02*
X136650000Y-92500000D01*
X136650000Y-91130000D02*
X136650000Y-93870000D01*
X136650000Y-93870000D02*
X143190000Y-93870000D01*
X143190000Y-91130000D02*
X136650000Y-91130000D01*
X143190000Y-93870000D02*
X143190000Y-91130000D01*
X143960000Y-92500000D02*
X143190000Y-92500000D01*
%TO.C,J9*%
X104550000Y-62170000D02*
X105880000Y-62170000D01*
X104550000Y-63500000D02*
X104550000Y-62170000D01*
X107150000Y-62170000D02*
X124990000Y-62170000D01*
X107150000Y-64830000D02*
X107150000Y-62170000D01*
X107150000Y-64830000D02*
X124990000Y-64830000D01*
X124990000Y-64830000D02*
X124990000Y-62170000D01*
%TO.C,J10*%
X110370000Y-66645000D02*
X111700000Y-66645000D01*
X110370000Y-67975000D02*
X110370000Y-66645000D01*
X112970000Y-66645000D02*
X120650000Y-66645000D01*
X112970000Y-69305000D02*
X112970000Y-66645000D01*
X112970000Y-69305000D02*
X120650000Y-69305000D01*
X120650000Y-69305000D02*
X120650000Y-66645000D01*
%TO.C,R1*%
X137880000Y-62500000D02*
X138650000Y-62500000D01*
X138650000Y-61130000D02*
X138650000Y-63870000D01*
X138650000Y-63870000D02*
X145190000Y-63870000D01*
X145190000Y-61130000D02*
X138650000Y-61130000D01*
X145190000Y-63870000D02*
X145190000Y-61130000D01*
X145960000Y-62500000D02*
X145190000Y-62500000D01*
%TO.C,R3*%
X164630000Y-66150000D02*
X164630000Y-72690000D01*
X164630000Y-72690000D02*
X167370000Y-72690000D01*
X166000000Y-65380000D02*
X166000000Y-66150000D01*
X166000000Y-73460000D02*
X166000000Y-72690000D01*
X167370000Y-66150000D02*
X164630000Y-66150000D01*
X167370000Y-72690000D02*
X167370000Y-66150000D01*
%TO.C,R2*%
X138960000Y-77000000D02*
X139730000Y-77000000D01*
X139730000Y-75630000D02*
X139730000Y-78370000D01*
X139730000Y-78370000D02*
X146270000Y-78370000D01*
X146270000Y-75630000D02*
X139730000Y-75630000D01*
X146270000Y-78370000D02*
X146270000Y-75630000D01*
X147040000Y-77000000D02*
X146270000Y-77000000D01*
%TO.C,SW4*%
X145500000Y-82500000D02*
X145500000Y-87000000D01*
X148000000Y-88250000D02*
X149500000Y-88250000D01*
X149500000Y-81250000D02*
X148000000Y-81250000D01*
X152000000Y-87000000D02*
X152000000Y-82500000D01*
%TO.C,D1*%
X140455000Y-58830000D02*
X143545000Y-58830000D01*
X140455170Y-58830000D02*
G75*
G02*
X141999952Y-53280000I1544830J2560000D01*
G01*
X142000048Y-53280000D02*
G75*
G02*
X143544830Y-58830000I-48J-2990000D01*
G01*
X144500000Y-56270000D02*
G75*
G02*
X139500000Y-56270000I-2500000J0D01*
G01*
X139500000Y-56270000D02*
G75*
G02*
X144500000Y-56270000I2500000J0D01*
G01*
%TO.C,J11*%
X154250000Y-62100000D02*
X154250000Y-63350000D01*
X154250000Y-63350000D02*
X155500000Y-63350000D01*
X154540000Y-52940000D02*
X154540000Y-63060000D01*
X154540000Y-63060000D02*
X160510000Y-63060000D01*
X154550000Y-52950000D02*
X154550000Y-54750000D01*
X154550000Y-54750000D02*
X155300000Y-54750000D01*
X154550000Y-56250000D02*
X154550000Y-59750000D01*
X154550000Y-59750000D02*
X155300000Y-59750000D01*
X154550000Y-61250000D02*
X154550000Y-63050000D01*
X154550000Y-63050000D02*
X155300000Y-63050000D01*
X155300000Y-52950000D02*
X154550000Y-52950000D01*
X155300000Y-54750000D02*
X155300000Y-52950000D01*
X155300000Y-56250000D02*
X154550000Y-56250000D01*
X155300000Y-59750000D02*
X155300000Y-56250000D01*
X155300000Y-61250000D02*
X154550000Y-61250000D01*
X155300000Y-63050000D02*
X155300000Y-61250000D01*
X156800000Y-52950000D02*
X156800000Y-53700000D01*
X156800000Y-53700000D02*
X159750000Y-53700000D01*
X156800000Y-62300000D02*
X159750000Y-62300000D01*
X156800000Y-63050000D02*
X156800000Y-62300000D01*
X159750000Y-53700000D02*
X159750000Y-58000000D01*
X159750000Y-62300000D02*
X159750000Y-58000000D01*
X160510000Y-52940000D02*
X154540000Y-52940000D01*
X160510000Y-63060000D02*
X160510000Y-52940000D01*
%TD*%
D12*
%TO.C,J1*%
X127940000Y-97460000D03*
D13*
X130480000Y-97460000D03*
X133020000Y-97460000D03*
X135560000Y-97460000D03*
X138100000Y-97460000D03*
X140640000Y-97460000D03*
X143180000Y-97460000D03*
X145720000Y-97460000D03*
%TD*%
D12*
%TO.C,J3*%
X150800000Y-97460000D03*
D13*
X153340000Y-97460000D03*
X155880000Y-97460000D03*
X158420000Y-97460000D03*
X160960000Y-97460000D03*
X163500000Y-97460000D03*
%TD*%
D12*
%TO.C,J2*%
X118796000Y-49200000D03*
D13*
X121336000Y-49200000D03*
X123876000Y-49200000D03*
X126416000Y-49200000D03*
X128956000Y-49200000D03*
X131496000Y-49200000D03*
X134036000Y-49200000D03*
X136576000Y-49200000D03*
X139116000Y-49200000D03*
X141656000Y-49200000D03*
%TD*%
D12*
%TO.C,J4*%
X145720000Y-49200000D03*
D13*
X148260000Y-49200000D03*
X150800000Y-49200000D03*
X153340000Y-49200000D03*
X155880000Y-49200000D03*
X158420000Y-49200000D03*
X160960000Y-49200000D03*
X163500000Y-49200000D03*
%TD*%
D14*
%TO.C,SW1*%
X139500000Y-66000000D03*
X139500000Y-72500000D03*
X135000000Y-66000000D03*
X135000000Y-72500000D03*
%TD*%
D15*
%TO.C,R4*%
X150840000Y-77000000D03*
D16*
X161000000Y-77000000D03*
%TD*%
D15*
%TO.C,R5*%
X149340000Y-93000000D03*
D16*
X159500000Y-93000000D03*
%TD*%
D17*
%TO.C,RV1*%
X160015000Y-87540000D03*
X162555000Y-85000000D03*
X160015000Y-82460000D03*
%TD*%
D14*
%TO.C,SW2*%
X160500000Y-66000000D03*
X160500000Y-72500000D03*
X156000000Y-66000000D03*
X156000000Y-72500000D03*
%TD*%
%TO.C,SW3*%
X145500000Y-73000000D03*
X145500000Y-66500000D03*
X150000000Y-73000000D03*
X150000000Y-66500000D03*
%TD*%
%TO.C,SW5*%
X141500000Y-81000000D03*
X141500000Y-87500000D03*
X137000000Y-81000000D03*
X137000000Y-87500000D03*
%TD*%
D15*
%TO.C,R6*%
X145000000Y-92500000D03*
D16*
X134840000Y-92500000D03*
%TD*%
D12*
%TO.C,J9*%
X105880000Y-63500000D03*
D13*
X108420000Y-63500000D03*
X110960000Y-63500000D03*
X113500000Y-63500000D03*
X116040000Y-63500000D03*
X118580000Y-63500000D03*
X121120000Y-63500000D03*
X123660000Y-63500000D03*
%TD*%
D12*
%TO.C,J10*%
X111700000Y-67975000D03*
D13*
X114240000Y-67975000D03*
X116780000Y-67975000D03*
X119320000Y-67975000D03*
%TD*%
D15*
%TO.C,R1*%
X147000000Y-62500000D03*
D16*
X136840000Y-62500000D03*
%TD*%
D15*
%TO.C,R3*%
X166000000Y-64340000D03*
D16*
X166000000Y-74500000D03*
%TD*%
D15*
%TO.C,R2*%
X148080000Y-77000000D03*
D16*
X137920000Y-77000000D03*
%TD*%
D14*
%TO.C,SW4*%
X146500000Y-88000000D03*
X146500000Y-81500000D03*
X151000000Y-88000000D03*
X151000000Y-81500000D03*
%TD*%
D18*
%TO.C,D1*%
X142000000Y-57540000D03*
D19*
X142000000Y-55000000D03*
%TD*%
D20*
%TO.C,J11*%
X157000000Y-60500000D03*
D21*
X157000000Y-58000000D03*
X157000000Y-55500000D03*
%TD*%
M02*
