M48
; DRILL file {KiCad 9.0.0} date 2025-03-07T20:47:10-0700
; FORMAT={-:-/ absolute / inch / decimal}
; #@! TF.CreationDate,2025-03-07T20:47:10-07:00
; #@! TF.GenerationSoftware,Kicad,Pcbnew,9.0.0
; #@! TF.FileFunction,Plated,1,2,PTH
FMAT,2
INCH
; #@! TA.AperFunction,Plated,PTH,ViaDrill
T1C0.0118
; #@! TA.AperFunction,Plated,PTH,ComponentDrill
T2C0.0283
; #@! TA.AperFunction,Plated,PTH,ComponentDrill
T3C0.0315
; #@! TA.AperFunction,Plated,PTH,ComponentDrill
T4C0.0354
; #@! TA.AperFunction,Plated,PTH,ComponentDrill
T5C0.0374
; #@! TA.AperFunction,Plated,PTH,ComponentDrill
T6C0.0394
%
G90
G05
T1
X7.5059Y-3.1146
X7.7016Y-2.9583
X7.7815Y-3.3508
X7.8212Y-3.9807
X8.189Y-3.3071
X8.4508Y-4.2957
X8.7264Y-3.1539
X8.7264Y-3.587
X8.7429Y-4.0201
X8.8839Y-3.7839
X8.9232Y-3.3114
X9.002Y-3.272
T2
X7.2697Y-2.5815
X7.2697Y-2.6815
X7.2697Y-2.7815
X7.2697Y-2.8815
X7.7933Y-2.5815
X7.7933Y-2.6815
X7.7933Y-2.7815
X7.7933Y-2.8815
T3
X6.7154Y-2.839
X7.1154Y-2.839
X8.7134Y-3.6657
X8.7232Y-3.0752
X8.7232Y-4.2563
X8.7264Y-2.6421
X8.7264Y-3.2327
X8.7264Y-4.0988
X9.1134Y-3.6657
X9.1232Y-3.0752
X9.1232Y-4.2563
X9.1264Y-2.6421
X9.1264Y-3.2327
X9.1264Y-4.0988
T4
X6.752Y-4.1772
X6.811Y-4.1772
X6.8701Y-4.1772
X8.7657Y-2.7996
X8.7657Y-2.8996
X8.7657Y-3.3902
X8.7657Y-3.4902
X9.0413Y-2.7996
X9.0413Y-2.8996
X9.0413Y-3.3902
X9.0413Y-3.4902
T5
X6.7972Y-2.6421
X6.8957Y-2.6421
X6.9941Y-2.6421
T6
X6.6929Y-3.1496
X6.7929Y-3.1496
X6.8929Y-3.1496
X7.2421Y-3.0752
X7.3421Y-3.0752
X7.4421Y-3.0752
X7.5421Y-3.0752
X7.6421Y-3.0752
X7.7421Y-3.0752
X7.7681Y-3.7776
X7.7681Y-3.8776
X7.7681Y-3.9776
X7.7681Y-4.0776
X7.7681Y-4.1776
X7.7681Y-4.2776
X7.939Y-2.7933
X7.939Y-2.8933
X7.939Y-2.9933
X7.939Y-3.0933
X7.939Y-3.1933
X7.939Y-3.2933
X7.939Y-3.3933
X7.939Y-3.4933
X7.939Y-3.5933
X7.939Y-3.6933
X7.939Y-3.7933
X7.939Y-3.8933
X7.939Y-3.9933
X7.939Y-4.0933
X7.939Y-4.1933
X8.539Y-2.7933
X8.539Y-2.8933
X8.539Y-2.9933
X8.539Y-3.0933
X8.539Y-3.1933
X8.539Y-3.2933
X8.539Y-3.3933
X8.539Y-3.4933
X8.539Y-3.5933
X8.539Y-3.6933
X8.539Y-3.7933
X8.539Y-3.8933
X8.539Y-3.9933
X8.539Y-4.0933
X8.539Y-4.1933
X8.7657Y-3.8232
X8.7657Y-3.9232
X9.0413Y-3.8232
X9.0413Y-3.9232
M30
