%TF.GenerationSoftware,KiCad,Pcbnew,9.0.0*%
%TF.CreationDate,2025-03-14T04:33:13-06:00*%
%TF.ProjectId,weather_baloon,77656174-6865-4725-9f62-616c6f6f6e2e,rev?*%
%TF.SameCoordinates,Original*%
%TF.FileFunction,Copper,L1,Top*%
%TF.FilePolarity,Positive*%
%FSLAX46Y46*%
G04 Gerber Fmt 4.6, Leading zero omitted, Abs format (unit mm)*
G04 Created by KiCad (PCBNEW 9.0.0) date 2025-03-14 04:33:13*
%MOMM*%
%LPD*%
G01*
G04 APERTURE LIST*
G04 Aperture macros list*
%AMRoundRect*
0 Rectangle with rounded corners*
0 $1 Rounding radius*
0 $2 $3 $4 $5 $6 $7 $8 $9 X,Y pos of 4 corners*
0 Add a 4 corners polygon primitive as box body*
4,1,4,$2,$3,$4,$5,$6,$7,$8,$9,$2,$3,0*
0 Add four circle primitives for the rounded corners*
1,1,$1+$1,$2,$3*
1,1,$1+$1,$4,$5*
1,1,$1+$1,$6,$7*
1,1,$1+$1,$8,$9*
0 Add four rect primitives between the rounded corners*
20,1,$1+$1,$2,$3,$4,$5,0*
20,1,$1+$1,$4,$5,$6,$7,0*
20,1,$1+$1,$6,$7,$8,$9,0*
20,1,$1+$1,$8,$9,$2,$3,0*%
G04 Aperture macros list end*
%TA.AperFunction,ComponentPad*%
%ADD10C,1.600000*%
%TD*%
%TA.AperFunction,ComponentPad*%
%ADD11O,1.600000X1.600000*%
%TD*%
%TA.AperFunction,ComponentPad*%
%ADD12O,1.100000X2.200000*%
%TD*%
%TA.AperFunction,ComponentPad*%
%ADD13R,1.700000X1.700000*%
%TD*%
%TA.AperFunction,ComponentPad*%
%ADD14O,1.700000X1.700000*%
%TD*%
%TA.AperFunction,ComponentPad*%
%ADD15R,1.800000X1.800000*%
%TD*%
%TA.AperFunction,ComponentPad*%
%ADD16C,1.800000*%
%TD*%
%TA.AperFunction,ComponentPad*%
%ADD17RoundRect,0.250000X0.750000X-0.600000X0.750000X0.600000X-0.750000X0.600000X-0.750000X-0.600000X0*%
%TD*%
%TA.AperFunction,ComponentPad*%
%ADD18O,2.000000X1.700000*%
%TD*%
%TA.AperFunction,ComponentPad*%
%ADD19R,1.600000X1.600000*%
%TD*%
%TA.AperFunction,ComponentPad*%
%ADD20R,1.070000X1.070000*%
%TD*%
%TA.AperFunction,ComponentPad*%
%ADD21C,1.070000*%
%TD*%
%TA.AperFunction,ComponentPad*%
%ADD22RoundRect,0.250000X0.600000X0.725000X-0.600000X0.725000X-0.600000X-0.725000X0.600000X-0.725000X0*%
%TD*%
%TA.AperFunction,ComponentPad*%
%ADD23O,1.700000X1.950000*%
%TD*%
%TA.AperFunction,ViaPad*%
%ADD24C,0.600000*%
%TD*%
%TA.AperFunction,Conductor*%
%ADD25C,0.500000*%
%TD*%
G04 APERTURE END LIST*
D10*
%TO.P,R5,1*%
%TO.N,Net-(D1-K)*%
X221570000Y-78110000D03*
D11*
%TO.P,R5,2*%
%TO.N,GND*%
X231730000Y-78110000D03*
%TD*%
D12*
%TO.P,J2,1,Pin_1*%
%TO.N,GND*%
X176500000Y-91100000D03*
%TO.P,J2,2,Pin_2*%
%TO.N,/TEMP2*%
X175000000Y-91100000D03*
%TO.P,J2,3,Pin_3*%
%TO.N,+5V*%
X173500000Y-91100000D03*
%TD*%
D13*
%TO.P,D5,1,K*%
%TO.N,Net-(D5-K)*%
X222650000Y-97110000D03*
D14*
%TO.P,D5,2,A*%
%TO.N,/ORANGE_LED*%
X222650000Y-99650000D03*
%TD*%
D15*
%TO.P,D3,1,K*%
%TO.N,Net-(D3-K)*%
X222650000Y-88650000D03*
D16*
%TO.P,D3,2,A*%
%TO.N,/BLUE1_LED*%
X222650000Y-86110000D03*
%TD*%
D10*
%TO.P,R7,1*%
%TO.N,+5V*%
X170570000Y-72110000D03*
D11*
%TO.P,R7,2*%
%TO.N,/Temp1*%
X180730000Y-72110000D03*
%TD*%
D13*
%TO.P,J3,1,Pin_1*%
%TO.N,+5V*%
X176500000Y-77120000D03*
D14*
%TO.P,J3,2,Pin_2*%
%TO.N,/HUMIDITY_SENSOR*%
X176500000Y-79660000D03*
%TO.P,J3,3,Pin_3*%
%TO.N,unconnected-(J3-Pin_3-Pad3)*%
X176500000Y-82200000D03*
%TO.P,J3,4,Pin_4*%
%TO.N,GND*%
X176500000Y-84740000D03*
%TD*%
D17*
%TO.P,J4,1,Pin_1*%
%TO.N,GND*%
X172000000Y-107500000D03*
D18*
%TO.P,J4,2,Pin_2*%
%TO.N,VCC*%
X172000000Y-105000000D03*
%TD*%
D13*
%TO.P,D4,1,K*%
%TO.N,Net-(D4-K)*%
X229650000Y-97110000D03*
D14*
%TO.P,D4,2,A*%
%TO.N,/BLUE2_LED*%
X229650000Y-99650000D03*
%TD*%
D15*
%TO.P,D6,1,K*%
%TO.N,Net-(D6-K)*%
X229650000Y-88650000D03*
D16*
%TO.P,D6,2,A*%
%TO.N,/YELLOW_LED*%
X229650000Y-86110000D03*
%TD*%
D19*
%TO.P,A1,1,D1/TX*%
%TO.N,/OPEN_LOG*%
X216890000Y-106510000D03*
D11*
%TO.P,A1,2,D0/RX*%
%TO.N,unconnected-(A1-D0{slash}RX-Pad2)*%
X216890000Y-103970000D03*
%TO.P,A1,3,~{RESET}*%
%TO.N,unconnected-(A1-~{RESET}-Pad3)*%
X216890000Y-101430000D03*
%TO.P,A1,4,GND*%
%TO.N,GND*%
X216890000Y-98890000D03*
%TO.P,A1,5,D2*%
%TO.N,/BLUE1_LED*%
X216890000Y-96350000D03*
%TO.P,A1,6,D3*%
%TO.N,/BLUE2_LED*%
X216890000Y-93810000D03*
%TO.P,A1,7,D4*%
%TO.N,/ORANGE_LED*%
X216890000Y-91270000D03*
%TO.P,A1,8,D5*%
%TO.N,/YELLOW_LED*%
X216890000Y-88730000D03*
%TO.P,A1,9,D6*%
%TO.N,/RED_LED*%
X216890000Y-86190000D03*
%TO.P,A1,10,D7*%
%TO.N,/GREEN_LED*%
X216890000Y-83650000D03*
%TO.P,A1,11,D8*%
%TO.N,unconnected-(A1-D8-Pad11)*%
X216890000Y-81110000D03*
%TO.P,A1,12,D9*%
%TO.N,unconnected-(A1-D9-Pad12)*%
X216890000Y-78570000D03*
%TO.P,A1,13,D10*%
%TO.N,unconnected-(A1-D10-Pad13)*%
X216890000Y-76030000D03*
%TO.P,A1,14,D11*%
%TO.N,unconnected-(A1-D11-Pad14)*%
X216890000Y-73490000D03*
%TO.P,A1,15,D12*%
%TO.N,unconnected-(A1-D12-Pad15)*%
X216890000Y-70950000D03*
%TO.P,A1,16,D13*%
%TO.N,unconnected-(A1-D13-Pad16)*%
X201650000Y-70950000D03*
%TO.P,A1,17,3V3*%
%TO.N,+3V3*%
X201650000Y-73490000D03*
%TO.P,A1,18,AREF*%
%TO.N,unconnected-(A1-AREF-Pad18)*%
X201650000Y-76030000D03*
%TO.P,A1,19,A0*%
%TO.N,/Temp1*%
X201650000Y-78570000D03*
%TO.P,A1,20,A1*%
%TO.N,/TEMP2*%
X201650000Y-81110000D03*
%TO.P,A1,21,A2*%
%TO.N,/HUMIDITY_SENSOR*%
X201650000Y-83650000D03*
%TO.P,A1,22,A3*%
%TO.N,/PRESSURE_SENSOR*%
X201650000Y-86190000D03*
%TO.P,A1,23,A4*%
%TO.N,/I2C_SDA*%
X201650000Y-88730000D03*
%TO.P,A1,24,A5*%
%TO.N,/I2C_SCL*%
X201650000Y-91270000D03*
%TO.P,A1,25,A6*%
%TO.N,unconnected-(A1-A6-Pad25)*%
X201650000Y-93810000D03*
%TO.P,A1,26,A7*%
%TO.N,unconnected-(A1-A7-Pad26)*%
X201650000Y-96350000D03*
%TO.P,A1,27,+5V*%
%TO.N,+5V*%
X201650000Y-98890000D03*
%TO.P,A1,28,~{RESET}*%
%TO.N,unconnected-(A1-~{RESET}-Pad28)*%
X201650000Y-101430000D03*
%TO.P,A1,29,GND*%
%TO.N,GND*%
X201650000Y-103970000D03*
%TO.P,A1,30,VIN*%
%TO.N,VCC*%
X201650000Y-106510000D03*
%TD*%
D13*
%TO.P,J9,1,Pin_1*%
%TO.N,+5V*%
X179460000Y-98975000D03*
D14*
%TO.P,J9,2,Pin_2*%
%TO.N,GND*%
X182000000Y-98975000D03*
%TO.P,J9,3,Pin_3*%
%TO.N,/I2C_SCL*%
X184540000Y-98975000D03*
%TO.P,J9,4,Pin_4*%
%TO.N,/I2C_SDA*%
X187080000Y-98975000D03*
%TO.P,J9,5,Pin_5*%
%TO.N,unconnected-(J9-Pin_5-Pad5)*%
X189620000Y-98975000D03*
%TO.P,J9,6,Pin_6*%
%TO.N,unconnected-(J9-Pin_6-Pad6)*%
X192160000Y-98975000D03*
%TO.P,J9,7,Pin_7*%
%TO.N,unconnected-(J9-Pin_7-Pad7)*%
X194700000Y-98975000D03*
%TO.P,J9,8,Pin_8*%
%TO.N,unconnected-(J9-Pin_8-Pad8)*%
X197240000Y-98975000D03*
%TD*%
D20*
%TO.P,U3,1,Vcc*%
%TO.N,+5V*%
X197950000Y-73190000D03*
D21*
%TO.P,U3,2,GND*%
%TO.N,GND*%
X197950000Y-70650000D03*
%TO.P,U3,3,Vout*%
%TO.N,/PRESSURE_SENSOR*%
X197950000Y-68110000D03*
%TO.P,U3,4,NC*%
%TO.N,unconnected-(U3-NC-Pad4)*%
X197950000Y-65570000D03*
%TO.P,U3,5,NC*%
%TO.N,unconnected-(U3-NC-Pad5)*%
X184650000Y-65570000D03*
%TO.P,U3,6,NC*%
%TO.N,unconnected-(U3-NC-Pad6)*%
X184650000Y-68110000D03*
%TO.P,U3,7*%
%TO.N,N/C*%
X184650000Y-70650000D03*
%TO.P,U3,8*%
X184650000Y-73190000D03*
%TD*%
D15*
%TO.P,D2,1,K*%
%TO.N,Net-(D2-K)*%
X229650000Y-73650000D03*
D16*
%TO.P,D2,2,A*%
%TO.N,/GREEN_LED*%
X229650000Y-71110000D03*
%TD*%
D13*
%TO.P,OPEN_LOG1,1,Pin_1*%
%TO.N,unconnected-(OPEN_LOG1-Pin_1-Pad1)*%
X196330000Y-94000000D03*
D14*
%TO.P,OPEN_LOG1,2,Pin_2*%
%TO.N,GND*%
X193790000Y-94000000D03*
%TO.P,OPEN_LOG1,3,Pin_3*%
%TO.N,+5V*%
X191250000Y-94000000D03*
%TO.P,OPEN_LOG1,4,Pin_4*%
%TO.N,unconnected-(OPEN_LOG1-Pin_4-Pad4)*%
X188710000Y-94000000D03*
%TO.P,OPEN_LOG1,5,Pin_5*%
%TO.N,/OPEN_LOG*%
X186170000Y-94000000D03*
%TO.P,OPEN_LOG1,6,Pin_6*%
%TO.N,unconnected-(OPEN_LOG1-Pin_6-Pad6)*%
X183630000Y-94000000D03*
%TD*%
D10*
%TO.P,R3,1*%
%TO.N,Net-(D4-K)*%
X231730000Y-108110000D03*
D11*
%TO.P,R3,2*%
%TO.N,GND*%
X221570000Y-108110000D03*
%TD*%
D10*
%TO.P,R1,1*%
%TO.N,Net-(D6-K)*%
X221650000Y-82110000D03*
D11*
%TO.P,R1,2*%
%TO.N,GND*%
X231810000Y-82110000D03*
%TD*%
D15*
%TO.P,D1,1,K*%
%TO.N,Net-(D1-K)*%
X222650000Y-73650000D03*
D16*
%TO.P,D1,2,A*%
%TO.N,/RED_LED*%
X222650000Y-71110000D03*
%TD*%
D10*
%TO.P,R4,1*%
%TO.N,Net-(D2-K)*%
X221650000Y-67110000D03*
D11*
%TO.P,R4,2*%
%TO.N,GND*%
X231810000Y-67110000D03*
%TD*%
D10*
%TO.P,R6,1*%
%TO.N,Net-(D3-K)*%
X231480000Y-93110000D03*
D11*
%TO.P,R6,2*%
%TO.N,GND*%
X221320000Y-93110000D03*
%TD*%
D10*
%TO.P,R2,1*%
%TO.N,Net-(D5-K)*%
X231810000Y-104110000D03*
D11*
%TO.P,R2,2*%
%TO.N,GND*%
X221650000Y-104110000D03*
%TD*%
D22*
%TO.P,J1,1,Pin_1*%
%TO.N,GND*%
X177650000Y-67110000D03*
D23*
%TO.P,J1,2,Pin_2*%
%TO.N,/Temp1*%
X175150000Y-67110000D03*
%TO.P,J1,3,Pin_3*%
%TO.N,+5V*%
X172650000Y-67110000D03*
%TD*%
D24*
%TO.N,/BLUE2_LED*%
X225650000Y-96110000D03*
%TO.N,/GREEN_LED*%
X221650000Y-80110000D03*
%TO.N,/YELLOW_LED*%
X228650000Y-83110000D03*
%TO.N,/OPEN_LOG*%
X206000000Y-96000000D03*
X203900000Y-95000000D03*
%TO.N,/ORANGE_LED*%
X222070000Y-102110000D03*
%TO.N,/PRESSURE_SENSOR*%
X208000000Y-84000000D03*
%TO.N,/TEMP2*%
X195000000Y-84400000D03*
%TO.N,Net-(D3-K)*%
X221650000Y-91110000D03*
%TO.N,Net-(D6-K)*%
X226650000Y-84110000D03*
%TO.N,/I2C_SDA*%
X180000000Y-96000000D03*
%TD*%
D25*
%TO.N,/HUMIDITY_SENSOR*%
X178810000Y-81810000D02*
X180650000Y-83650000D01*
X178650000Y-81810000D02*
X178810000Y-81810000D01*
X180650000Y-83650000D02*
X201650000Y-83650000D01*
X176500000Y-79660000D02*
X178650000Y-81810000D01*
%TO.N,/BLUE2_LED*%
X229650000Y-99650000D02*
X226110000Y-96110000D01*
X226110000Y-96110000D02*
X225650000Y-96110000D01*
%TO.N,/GREEN_LED*%
X225892000Y-80110000D02*
X221650000Y-80110000D01*
X231001000Y-75001000D02*
X225892000Y-80110000D01*
X231001000Y-72461000D02*
X231001000Y-75001000D01*
X229650000Y-71110000D02*
X231001000Y-72461000D01*
%TO.N,/YELLOW_LED*%
X226338925Y-84861000D02*
X226961075Y-84861000D01*
X216890000Y-88730000D02*
X221198925Y-84421075D01*
X221198925Y-84421075D02*
X225899000Y-84421075D01*
X228650000Y-83172075D02*
X228650000Y-83110000D01*
X226961075Y-84861000D02*
X228650000Y-83172075D01*
X225899000Y-84421075D02*
X226338925Y-84861000D01*
%TO.N,/OPEN_LOG*%
X197769818Y-91699000D02*
X201131818Y-95061000D01*
X203839000Y-95061000D02*
X203900000Y-95000000D01*
X206000000Y-96000000D02*
X216510000Y-106510000D01*
X186170000Y-94000000D02*
X188471000Y-91699000D01*
X188471000Y-91699000D02*
X197769818Y-91699000D01*
X201131818Y-95061000D02*
X203839000Y-95061000D01*
%TO.N,/Temp1*%
X180730000Y-72110000D02*
X193650000Y-72110000D01*
X200110000Y-78570000D02*
X201650000Y-78570000D01*
X180150000Y-72110000D02*
X175150000Y-67110000D01*
X193650000Y-72110000D02*
X200110000Y-78570000D01*
X180730000Y-72110000D02*
X180150000Y-72110000D01*
%TO.N,GND*%
X231810000Y-82110000D02*
X231810000Y-78190000D01*
X231730000Y-78110000D02*
X231730000Y-67190000D01*
X194410000Y-67110000D02*
X177650000Y-67110000D01*
X221570000Y-108110000D02*
X221570000Y-104190000D01*
X221320000Y-93110000D02*
X221320000Y-92529397D01*
X221320000Y-103780000D02*
X221320000Y-93110000D01*
X197950000Y-70650000D02*
X194410000Y-67110000D01*
X221320000Y-92529397D02*
X231739397Y-82110000D01*
%TO.N,/ORANGE_LED*%
X222650000Y-99650000D02*
X222650000Y-101530000D01*
X222650000Y-101530000D02*
X222070000Y-102110000D01*
%TO.N,/PRESSURE_SENSOR*%
X207110000Y-83110000D02*
X208000000Y-84000000D01*
X205650000Y-83110000D02*
X207110000Y-83110000D01*
X205650000Y-71118636D02*
X205650000Y-83110000D01*
X202641364Y-68110000D02*
X205650000Y-71118636D01*
X197950000Y-68110000D02*
X202641364Y-68110000D01*
%TO.N,/TEMP2*%
X192400000Y-87000000D02*
X180000000Y-87000000D01*
X178000000Y-89000000D02*
X176600000Y-89000000D01*
X176600000Y-89000000D02*
X175000000Y-90600000D01*
X180000000Y-87000000D02*
X178000000Y-89000000D01*
X195000000Y-84400000D02*
X192400000Y-87000000D01*
%TO.N,/BLUE1_LED*%
X218141000Y-95099000D02*
X216890000Y-96350000D01*
X218141000Y-90619000D02*
X218141000Y-95099000D01*
X222650000Y-86110000D02*
X218141000Y-90619000D01*
%TO.N,/RED_LED*%
X220319000Y-82761000D02*
X216890000Y-86190000D01*
X222650000Y-71110000D02*
X220319000Y-73441000D01*
X220319000Y-73441000D02*
X220319000Y-82761000D01*
%TO.N,Net-(D1-K)*%
X222650000Y-73650000D02*
X222650000Y-77030000D01*
X222650000Y-77030000D02*
X221570000Y-78110000D01*
%TO.N,Net-(D2-K)*%
X223110000Y-67110000D02*
X229650000Y-73650000D01*
X221650000Y-67110000D02*
X223110000Y-67110000D01*
%TO.N,Net-(D3-K)*%
X222650000Y-90110000D02*
X221650000Y-91110000D01*
X222650000Y-88650000D02*
X222650000Y-90110000D01*
%TO.N,Net-(D4-K)*%
X233061000Y-100521000D02*
X229650000Y-97110000D01*
X233061000Y-106779000D02*
X233061000Y-100521000D01*
X231730000Y-108110000D02*
X233061000Y-106779000D01*
%TO.N,Net-(D5-K)*%
X231810000Y-104110000D02*
X229650000Y-104110000D01*
X229650000Y-104110000D02*
X222650000Y-97110000D01*
%TO.N,Net-(D6-K)*%
X224650000Y-82110000D02*
X226650000Y-84110000D01*
X221650000Y-82110000D02*
X224650000Y-82110000D01*
%TO.N,VCC*%
X172000000Y-105000000D02*
X200140000Y-105000000D01*
X200140000Y-105000000D02*
X201650000Y-106510000D01*
%TO.N,+5V*%
X176500000Y-77120000D02*
X171000000Y-82620000D01*
X197950000Y-73190000D02*
X198936000Y-72204000D01*
X173500000Y-93015000D02*
X179460000Y-98975000D01*
X198936000Y-72204000D02*
X198936000Y-70824000D01*
X170570000Y-72110000D02*
X170570000Y-69190000D01*
X199540000Y-101000000D02*
X201650000Y-98890000D01*
X198760000Y-96000000D02*
X201650000Y-98890000D01*
X173100000Y-91100000D02*
X173500000Y-91100000D01*
X202650000Y-69110000D02*
X204650000Y-71110000D01*
X191250000Y-94000000D02*
X193250000Y-96000000D01*
X170570000Y-72110000D02*
X170570000Y-73570000D01*
X179460000Y-98975000D02*
X181485000Y-101000000D01*
X181485000Y-101000000D02*
X199540000Y-101000000D01*
X170570000Y-69190000D02*
X172650000Y-67110000D01*
X174120000Y-77120000D02*
X176500000Y-77120000D01*
X204650000Y-95890000D02*
X201650000Y-98890000D01*
X171000000Y-89000000D02*
X173100000Y-91100000D01*
X204650000Y-71110000D02*
X204650000Y-95890000D01*
X171000000Y-82620000D02*
X171000000Y-89000000D01*
X173500000Y-91100000D02*
X173500000Y-93015000D01*
X200650000Y-69110000D02*
X202650000Y-69110000D01*
X193250000Y-96000000D02*
X198760000Y-96000000D01*
X198936000Y-70824000D02*
X200650000Y-69110000D01*
X170570000Y-73570000D02*
X174120000Y-77120000D01*
%TO.N,/I2C_SCL*%
X180000000Y-94435000D02*
X180000000Y-92000000D01*
X180000000Y-92000000D02*
X181529999Y-90470001D01*
X200850001Y-90470001D02*
X201650000Y-91270000D01*
X181529999Y-90470001D02*
X200850001Y-90470001D01*
X184540000Y-98975000D02*
X180000000Y-94435000D01*
%TO.N,/I2C_SDA*%
X179000000Y-95000000D02*
X179000000Y-91000000D01*
X179000000Y-91000000D02*
X181270000Y-88730000D01*
X180000000Y-96000000D02*
X179000000Y-95000000D01*
X181270000Y-88730000D02*
X201650000Y-88730000D01*
%TD*%
M02*
