%TF.GenerationSoftware,KiCad,Pcbnew,9.0.0*%
%TF.CreationDate,2025-03-09T23:23:26-06:00*%
%TF.ProjectId,weather_baloon,77656174-6865-4725-9f62-616c6f6f6e2e,rev?*%
%TF.SameCoordinates,Original*%
%TF.FileFunction,Soldermask,Top*%
%TF.FilePolarity,Negative*%
%FSLAX46Y46*%
G04 Gerber Fmt 4.6, Leading zero omitted, Abs format (unit mm)*
G04 Created by KiCad (PCBNEW 9.0.0) date 2025-03-09 23:23:26*
%MOMM*%
%LPD*%
G01*
G04 APERTURE LIST*
G04 Aperture macros list*
%AMRoundRect*
0 Rectangle with rounded corners*
0 $1 Rounding radius*
0 $2 $3 $4 $5 $6 $7 $8 $9 X,Y pos of 4 corners*
0 Add a 4 corners polygon primitive as box body*
4,1,4,$2,$3,$4,$5,$6,$7,$8,$9,$2,$3,0*
0 Add four circle primitives for the rounded corners*
1,1,$1+$1,$2,$3*
1,1,$1+$1,$4,$5*
1,1,$1+$1,$6,$7*
1,1,$1+$1,$8,$9*
0 Add four rect primitives between the rounded corners*
20,1,$1+$1,$2,$3,$4,$5,0*
20,1,$1+$1,$4,$5,$6,$7,0*
20,1,$1+$1,$6,$7,$8,$9,0*
20,1,$1+$1,$8,$9,$2,$3,0*%
G04 Aperture macros list end*
%ADD10C,1.600000*%
%ADD11O,1.600000X1.600000*%
%ADD12O,1.304000X2.404000*%
%ADD13R,1.700000X1.700000*%
%ADD14O,1.700000X1.700000*%
%ADD15R,1.800000X1.800000*%
%ADD16C,1.800000*%
%ADD17R,1.600000X1.600000*%
%ADD18RoundRect,0.102000X0.535000X0.535000X-0.535000X0.535000X-0.535000X-0.535000X0.535000X-0.535000X0*%
%ADD19C,1.274000*%
%ADD20RoundRect,0.250000X0.600000X0.725000X-0.600000X0.725000X-0.600000X-0.725000X0.600000X-0.725000X0*%
%ADD21O,1.700000X1.950000*%
G04 APERTURE END LIST*
D10*
%TO.C,R5*%
X221570000Y-78110000D03*
D11*
X231730000Y-78110000D03*
%TD*%
D12*
%TO.C,J2*%
X174500000Y-106100000D03*
X173000000Y-106100000D03*
X171500000Y-106100000D03*
%TD*%
D13*
%TO.C,D5*%
X222650000Y-97110000D03*
D14*
X222650000Y-99650000D03*
%TD*%
D15*
%TO.C,D3*%
X222650000Y-88650000D03*
D16*
X222650000Y-86110000D03*
%TD*%
D10*
%TO.C,R7*%
X170570000Y-72110000D03*
D11*
X180730000Y-72110000D03*
%TD*%
D13*
%TO.C,J3*%
X176500000Y-77120000D03*
D14*
X176500000Y-79660000D03*
X176500000Y-82200000D03*
X176500000Y-84740000D03*
%TD*%
D13*
%TO.C,D4*%
X229650000Y-97110000D03*
D14*
X229650000Y-99650000D03*
%TD*%
D15*
%TO.C,D6*%
X229650000Y-88650000D03*
D16*
X229650000Y-86110000D03*
%TD*%
D17*
%TO.C,A1*%
X216890000Y-106510000D03*
D11*
X216890000Y-103970000D03*
X216890000Y-101430000D03*
X216890000Y-98890000D03*
X216890000Y-96350000D03*
X216890000Y-93810000D03*
X216890000Y-91270000D03*
X216890000Y-88730000D03*
X216890000Y-86190000D03*
X216890000Y-83650000D03*
X216890000Y-81110000D03*
X216890000Y-78570000D03*
X216890000Y-76030000D03*
X216890000Y-73490000D03*
X216890000Y-70950000D03*
X201650000Y-70950000D03*
X201650000Y-73490000D03*
X201650000Y-76030000D03*
X201650000Y-78570000D03*
X201650000Y-81110000D03*
X201650000Y-83650000D03*
X201650000Y-86190000D03*
X201650000Y-88730000D03*
X201650000Y-91270000D03*
X201650000Y-93810000D03*
X201650000Y-96350000D03*
X201650000Y-98890000D03*
X201650000Y-101430000D03*
X201650000Y-103970000D03*
X201650000Y-106510000D03*
%TD*%
D13*
%TO.C,J9*%
X179460000Y-98975000D03*
D14*
X182000000Y-98975000D03*
X184540000Y-98975000D03*
X187080000Y-98975000D03*
X189620000Y-98975000D03*
X192160000Y-98975000D03*
X194700000Y-98975000D03*
X197240000Y-98975000D03*
%TD*%
D18*
%TO.C,U3*%
X197950000Y-73190000D03*
D19*
X197950000Y-70650000D03*
X197950000Y-68110000D03*
X197950000Y-65570000D03*
X184650000Y-65570000D03*
X184650000Y-68110000D03*
X184650000Y-70650000D03*
X184650000Y-73190000D03*
%TD*%
D15*
%TO.C,D2*%
X229650000Y-73650000D03*
D16*
X229650000Y-71110000D03*
%TD*%
D13*
%TO.C,OPEN_LOG1*%
X196330000Y-94000000D03*
D14*
X193790000Y-94000000D03*
X191250000Y-94000000D03*
X188710000Y-94000000D03*
X186170000Y-94000000D03*
X183630000Y-94000000D03*
%TD*%
D10*
%TO.C,R3*%
X231730000Y-108110000D03*
D11*
X221570000Y-108110000D03*
%TD*%
D10*
%TO.C,R1*%
X221650000Y-82110000D03*
D11*
X231810000Y-82110000D03*
%TD*%
D15*
%TO.C,D1*%
X222650000Y-73650000D03*
D16*
X222650000Y-71110000D03*
%TD*%
D10*
%TO.C,R4*%
X221650000Y-67110000D03*
D11*
X231810000Y-67110000D03*
%TD*%
D10*
%TO.C,R6*%
X231480000Y-93110000D03*
D11*
X221320000Y-93110000D03*
%TD*%
D10*
%TO.C,R2*%
X231810000Y-104110000D03*
D11*
X221650000Y-104110000D03*
%TD*%
D20*
%TO.C,J1*%
X177650000Y-67110000D03*
D21*
X175150000Y-67110000D03*
X172650000Y-67110000D03*
%TD*%
M02*
