M48
; DRILL file {KiCad 9.0.0} date 2025-03-14T04:33:09-0600
; FORMAT={-:-/ absolute / inch / decimal}
; #@! TF.CreationDate,2025-03-14T04:33:09-06:00
; #@! TF.GenerationSoftware,Kicad,Pcbnew,9.0.0
; #@! TF.FileFunction,Plated,1,2,PTH
FMAT,2
INCH
; #@! TA.AperFunction,Plated,PTH,ViaDrill
T1C0.0118
; #@! TA.AperFunction,Plated,PTH,ComponentDrill
T2C0.0283
; #@! TA.AperFunction,Plated,PTH,ComponentDrill
T3C0.0315
; #@! TA.AperFunction,Plated,PTH,ComponentDrill
T4C0.0354
; #@! TA.AperFunction,Plated,PTH,ComponentDrill
T5C0.0374
; #@! TA.AperFunction,Plated,PTH,ComponentDrill
T6C0.0394
%
G90
G05
T1
X7.0866Y-3.7795
X7.6772Y-3.3228
X8.0276Y-3.7402
X8.1102Y-3.7795
X8.189Y-3.3071
X8.7264Y-3.1539
X8.7264Y-3.587
X8.7429Y-4.0201
X8.8839Y-3.7839
X8.9232Y-3.3114
X9.002Y-3.272
T2
X7.2697Y-2.5815
X7.2697Y-2.6815
X7.2697Y-2.7815
X7.2697Y-2.8815
X7.7933Y-2.5815
X7.7933Y-2.6815
X7.7933Y-2.7815
X7.7933Y-2.8815
T3
X6.7154Y-2.839
X7.1154Y-2.839
X8.7134Y-3.6657
X8.7232Y-3.0752
X8.7232Y-4.2563
X8.7264Y-2.6421
X8.7264Y-3.2327
X8.7264Y-4.0988
X9.1134Y-3.6657
X9.1232Y-3.0752
X9.1232Y-4.2563
X9.1264Y-2.6421
X9.1264Y-3.2327
X9.1264Y-4.0988
T4
X6.8307Y-3.5866
X6.8898Y-3.5866
X6.9488Y-3.5866
X8.7657Y-2.7996
X8.7657Y-2.8996
X8.7657Y-3.3902
X8.7657Y-3.4902
X9.0413Y-2.7996
X9.0413Y-2.8996
X9.0413Y-3.3902
X9.0413Y-3.4902
T5
X6.7972Y-2.6421
X6.8957Y-2.6421
X6.9941Y-2.6421
T6
X6.7717Y-4.1339
X6.7717Y-4.2323
X6.9488Y-3.0362
X6.9488Y-3.1362
X6.9488Y-3.2362
X6.9488Y-3.3362
X7.0654Y-3.8967
X7.1654Y-3.8967
X7.2295Y-3.7008
X7.2654Y-3.8967
X7.3295Y-3.7008
X7.3654Y-3.8967
X7.4295Y-3.7008
X7.4654Y-3.8967
X7.5295Y-3.7008
X7.5654Y-3.8967
X7.6295Y-3.7008
X7.6654Y-3.8967
X7.7295Y-3.7008
X7.7654Y-3.8967
X7.939Y-2.7933
X7.939Y-2.8933
X7.939Y-2.9933
X7.939Y-3.0933
X7.939Y-3.1933
X7.939Y-3.2933
X7.939Y-3.3933
X7.939Y-3.4933
X7.939Y-3.5933
X7.939Y-3.6933
X7.939Y-3.7933
X7.939Y-3.8933
X7.939Y-3.9933
X7.939Y-4.0933
X7.939Y-4.1933
X8.539Y-2.7933
X8.539Y-2.8933
X8.539Y-2.9933
X8.539Y-3.0933
X8.539Y-3.1933
X8.539Y-3.2933
X8.539Y-3.3933
X8.539Y-3.4933
X8.539Y-3.5933
X8.539Y-3.6933
X8.539Y-3.7933
X8.539Y-3.8933
X8.539Y-3.9933
X8.539Y-4.0933
X8.539Y-4.1933
X8.7657Y-3.8232
X8.7657Y-3.9232
X9.0413Y-3.8232
X9.0413Y-3.9232
M30
