M48
; DRILL file {KiCad 8.0.8} date 2025-01-31T10:37:59-0700
; FORMAT={-:-/ absolute / inch / decimal}
; #@! TF.CreationDate,2025-01-31T10:37:59-07:00
; #@! TF.GenerationSoftware,Kicad,Pcbnew,8.0.8
; #@! TF.FileFunction,Plated,1,2,PTH
FMAT,2
INCH
; #@! TA.AperFunction,Plated,PTH,ComponentDrill
T1C0.0315
; #@! TA.AperFunction,Plated,PTH,ComponentDrill
T2C0.0354
; #@! TA.AperFunction,Plated,PTH,ComponentDrill
T3C0.0374
; #@! TA.AperFunction,Plated,PTH,ComponentDrill
T4C0.0394
; #@! TA.AperFunction,Plated,PTH,ComponentDrill
T5C0.0433
%
G90
G05
T1
X5.0559Y-3.3268
X5.115Y-2.1457
X5.1346Y-2.6969
X5.4559Y-3.3268
X5.515Y-2.1457
X5.5346Y-2.6969
X5.5677Y-3.3268
X5.6661Y-2.6969
X5.9677Y-3.3268
X6.0661Y-2.6969
X6.0992Y-2.4409
X6.2976Y-3.5242
X6.3976Y-3.6242
X6.4976Y-3.5242
X6.4992Y-2.4409
T2
X5.3134Y-2.3819
X5.4134Y-2.3819
T3
X5.7864Y-2.2244
X5.7864Y-2.3228
X5.7864Y-2.4213
T4
X4.0685Y-2.5197
X4.1685Y-2.5197
X4.2685Y-2.5197
X4.3004Y-2.7559
X4.3685Y-2.5197
X4.4004Y-2.7559
X4.4685Y-2.5197
X4.5004Y-2.7559
X4.5685Y-2.5197
X4.6004Y-2.7559
X4.6685Y-2.5197
X4.677Y-1.937
X4.7685Y-2.5197
X4.777Y-1.937
X4.877Y-1.937
X4.977Y-1.937
X5.037Y-3.837
X5.077Y-1.937
X5.137Y-3.837
X5.177Y-1.937
X5.237Y-3.837
X5.277Y-1.937
X5.337Y-3.837
X5.377Y-1.937
X5.437Y-3.837
X5.477Y-1.937
X5.537Y-3.837
X5.577Y-1.937
X5.637Y-3.837
X5.737Y-1.937
X5.737Y-3.837
X5.837Y-1.937
X5.937Y-1.937
X5.937Y-3.837
X6.037Y-1.937
X6.037Y-3.837
X6.137Y-1.937
X6.137Y-3.837
X6.237Y-1.937
X6.237Y-3.837
X6.337Y-1.937
X6.337Y-3.837
X6.437Y-1.937
X6.437Y-3.837
T5
X5.1772Y-2.8543
X5.1772Y-3.0315
X5.3248Y-3.4547
X5.3248Y-3.6319
X5.4331Y-2.8543
X5.4331Y-3.0315
X5.5807Y-3.4547
X5.5807Y-3.6319
X5.6201Y-2.8642
X5.6201Y-3.0413
X5.7382Y-3.4547
X5.7382Y-3.6319
X5.876Y-2.8642
X5.876Y-3.0413
X5.9941Y-3.4547
X5.9941Y-3.6319
X6.0531Y-2.8642
X6.0531Y-3.0413
X6.3091Y-2.8642
X6.3091Y-3.0413
M30
